<svg width="17" height="14" viewBox="0 0 17 14" fill="none" xmlns="http://www.w3.org/2000/svg">
<path d="M1 3.57143L7.575 8.08C7.84888 8.26795 8.17075 8.36826 8.5 8.36826C8.82925 8.36826 9.15112 8.26795 9.425 8.08L16 3.57143M2.66667 13H14.3333C14.7754 13 15.1993 12.8194 15.5118 12.4979C15.8244 12.1764 16 11.7404 16 11.2857V2.71429C16 2.25963 15.8244 1.82359 15.5118 1.5021C15.1993 1.18061 14.7754 1 14.3333 1H2.66667C2.22464 1 1.80072 1.18061 1.48816 1.5021C1.17559 1.82359 1 2.25963 1 2.71429V11.2857C1 11.7404 1.17559 12.1764 1.48816 12.4979C1.80072 12.8194 2.22464 13 2.66667 13Z" stroke="white" stroke-width="2" stroke-linecap="round" stroke-linejoin="round"/>
</svg>
