<svg width="15" height="14" viewBox="0 0 15 14" fill="none" xmlns="http://www.w3.org/2000/svg">
<g clip-path="url(#clip0_10_16018)">
<path d="M3.29125 5.69625C3.58368 4.87051 4.14804 4.15206 4.90382 3.64338C5.65961 3.13471 6.56821 2.8618 7.5 2.86358C8.55625 2.86358 9.51125 3.21358 10.2613 3.78642L12.4438 1.75C11.1138 0.667917 9.40938 0 7.5 0C4.54375 0 1.99875 1.57383 0.775002 3.87917L3.29125 5.69625Z" fill="#EA4335"/>
<path d="M10.025 10.5078C9.34378 10.9179 8.47878 11.1367 7.50003 11.1367C6.57195 11.1384 5.66678 10.8677 4.91268 10.3628C4.15857 9.85786 3.59374 9.14434 3.29816 8.32324L0.773155 10.1123C1.39268 11.2827 2.35145 12.2674 3.54054 12.9546C4.72964 13.6419 6.10141 14.0042 7.50003 14.0002C9.33316 14.0002 11.0844 13.3918 12.3963 12.2502L10.0257 10.5078H10.025Z" fill="#34A853"/>
<path d="M12.3961 12.2499C13.768 11.0552 14.6586 9.27722 14.6586 6.99988C14.6586 6.58572 14.5905 6.14063 14.4886 5.72705H7.49987V8.43197H11.5224C11.3242 9.34138 10.7911 10.0455 10.0255 10.5075L12.3961 12.2499Z" fill="#4A90E2"/>
<path d="M3.2982 8.32323C3.14529 7.89676 3.06762 7.44994 3.0682 7.00023C3.0682 6.54406 3.14632 6.10598 3.29132 5.69648L0.775073 3.87939C0.260309 4.84929 -0.00504996 5.91786 7.27841e-05 7.00023C7.27841e-05 8.12023 0.278198 9.17606 0.773198 10.1123L3.2982 8.32323Z" fill="#FBBC05"/>
</g>
<defs>
<clipPath id="clip0_10_16018">
<rect width="15" height="14" fill="white"/>
</clipPath>
</defs>
</svg>
