<svg width="208" height="41" viewBox="0 0 208 41" fill="none" xmlns="http://www.w3.org/2000/svg">
<path d="M57.2201 4.41597C54.8947 2.44976 52.0535 1.11468 48.9858 1.11468C45.2134 1.11468 41.5955 2.63988 38.928 5.35476C36.2605 8.06963 34.7619 11.7518 34.7619 15.5912C34.7619 19.4306 36.2605 23.1128 38.928 25.8277C41.5955 28.5425 45.2134 30.0677 48.9858 30.0677C52.0535 30.0677 54.8947 28.7357 57.2201 26.7664V28.854C57.2201 29.1759 57.3458 29.4846 57.5694 29.7123C57.793 29.9399 58.0964 30.0677 58.4126 30.0677H65.7258C66.0421 30.0677 66.3454 29.9399 66.569 29.7123C66.7927 29.4846 66.9183 29.1759 66.9183 28.854V2.31625C66.9183 1.99435 66.7927 1.68565 66.569 1.45803C66.3454 1.23042 66.0421 1.10254 65.7258 1.10254H58.4126C58.0964 1.10254 57.793 1.23042 57.5694 1.45803C57.3458 1.68565 57.2201 1.99435 57.2201 2.31625V4.41597ZM50.8908 22.1361C49.6654 22.1361 48.4658 21.7779 47.4346 21.1041C46.4035 20.4303 45.5841 19.4693 45.074 18.3354C44.5638 17.2014 44.3844 15.9422 44.557 14.7075C44.7296 13.4728 45.2469 12.3145 46.0475 11.3703C46.8481 10.4261 47.8983 9.7358 49.0732 9.38142C50.2481 9.02705 51.4982 9.02353 52.675 9.37128C53.8518 9.71902 54.9057 10.4034 55.7115 11.3431C56.5172 12.2827 57.0408 13.4381 57.2201 14.6718V16.5804C56.9943 18.1247 56.2311 19.5351 55.0694 20.5548C53.9077 21.5745 52.4249 22.1357 50.8908 22.1361Z" fill="#EBEBEB"/>
<path d="M97.6766 2.39769L97.5961 2.33397C95.4536 0.677121 92.7986 -0.143593 90.1126 0.0206213C87.4266 0.184836 84.8872 1.3231 82.9549 3.22908L81.9681 4.21522V2.31576C81.9681 1.99386 81.8425 1.68516 81.6188 1.45754C81.3952 1.22993 81.0919 1.10205 80.7756 1.10205H73.4625C73.1462 1.10205 72.8429 1.22993 72.6192 1.45754C72.3956 1.68516 72.2699 1.99386 72.2699 2.31576V28.8414C72.2699 29.1633 72.3956 29.472 72.6192 29.6996C72.8429 29.9272 73.1462 30.0551 73.4625 30.0551H80.7756C81.0919 30.0551 81.3952 29.9272 81.6188 29.6996C81.8425 29.472 81.9681 29.1633 81.9681 28.8414V11.1121C81.986 11.2669 82.0039 11.4156 82.0248 11.5703C83.1815 9.89841 84.7318 8.46321 86.8128 8.20226C89.5734 7.85635 92.1791 10.1108 92.1791 12.9752V28.8414C92.1791 29.1633 92.3047 29.472 92.5284 29.6996C92.752 29.9272 93.0554 30.0551 93.3716 30.0551H100.694C101.01 30.0551 101.313 29.9272 101.537 29.6996C101.761 29.472 101.886 29.1633 101.886 28.8414C101.886 25.267 101.886 16.6557 101.886 11.1273C101.886 9.44168 101.507 7.7785 100.777 6.2653C100.047 4.7521 98.9866 3.42908 97.6766 2.39769Z" fill="#EBEBEB"/>
<path d="M157.428 0.883789C148.469 0.883789 141.209 7.36501 141.209 15.3603C141.209 23.3556 148.469 29.8369 157.428 29.8369C165.561 29.8369 169.949 25.8286 171.845 22.7367C171.958 22.5528 172.019 22.3418 172.024 22.1255C172.03 21.9091 171.978 21.6953 171.874 21.5063C171.771 21.3172 171.62 21.1596 171.436 21.05C171.253 20.9404 171.044 20.8826 170.832 20.8827H164.025C163.536 20.8844 163.05 20.9591 162.582 21.1042C159.804 21.9659 159.121 21.8112 157.44 21.7111C156.459 21.6544 155.501 21.3884 154.628 20.9305C153.755 20.4726 152.986 19.8329 152.371 19.053C152.306 18.9627 152.266 18.8555 152.257 18.7434C152.247 18.6314 152.269 18.5189 152.318 18.4185C152.368 18.3181 152.444 18.2338 152.539 18.1749C152.633 18.1161 152.741 18.085 152.851 18.0851H172.352C172.644 18.0875 172.926 17.9811 173.146 17.786C173.366 17.5908 173.508 17.3205 173.545 17.0261C173.615 16.4737 173.651 15.9174 173.652 15.3603C173.646 7.36501 166.384 0.883789 157.428 0.883789ZM152.553 13.0725C152.449 13.0718 152.347 13.0433 152.256 12.9898C152.166 12.9363 152.092 12.8596 152.04 12.7675C151.988 12.6753 151.961 12.5709 151.961 12.4647C151.961 12.3585 151.988 12.2542 152.041 12.1622C152.591 11.2054 153.377 10.4118 154.322 9.8603C155.267 9.3088 156.337 9.01863 157.426 9.01863C158.516 9.01863 159.586 9.3088 160.531 9.8603C161.475 10.4118 162.262 11.2054 162.812 12.1622C162.864 12.254 162.892 12.358 162.892 12.464C162.892 12.5699 162.865 12.6741 162.814 12.7662C162.762 12.8582 162.688 12.935 162.598 12.9887C162.508 13.0424 162.406 13.0713 162.302 13.0725H152.553Z" fill="#EBEBEB"/>
<path d="M198.302 2.31625V4.41597C195.979 2.44976 193.138 1.11468 190.067 1.11468C186.295 1.11468 182.677 2.63988 180.01 5.35476C177.342 8.06963 175.844 11.7518 175.844 15.5912C175.844 19.4306 177.342 23.1128 180.01 25.8277C182.677 28.5425 186.295 30.0677 190.067 30.0677C193.138 30.0677 195.979 28.7357 198.302 26.7664V28.854C198.302 29.1759 198.427 29.4846 198.651 29.7123C198.875 29.9399 199.178 30.0677 199.494 30.0677H206.807C207.124 30.0677 207.427 29.9399 207.651 29.7123C207.874 29.4846 208 29.1759 208 28.854V2.31625C208 1.99435 207.874 1.68565 207.651 1.45803C207.427 1.23042 207.124 1.10254 206.807 1.10254H199.494C199.178 1.10254 198.875 1.23042 198.651 1.45803C198.427 1.68565 198.302 1.99435 198.302 2.31625ZM191.972 22.1361C190.747 22.1361 189.547 21.7779 188.516 21.1041C187.485 20.4303 186.666 19.4693 186.156 18.3354C185.646 17.2014 185.466 15.9422 185.639 14.7075C185.811 13.4728 186.329 12.3145 187.129 11.3703C187.93 10.4261 188.98 9.7358 190.155 9.38142C191.33 9.02705 192.58 9.02353 193.757 9.37128C194.933 9.71902 195.987 10.4034 196.793 11.3431C197.599 12.2827 198.122 13.4381 198.302 14.6718V16.5804C198.077 18.1252 197.314 19.5364 196.152 20.5563C194.99 21.5762 193.507 22.137 191.972 22.1361Z" fill="#EBEBEB"/>
<path d="M17.9564 1.10254C14.8767 1.10254 12.0266 2.44673 9.69819 4.42508V2.31625C9.69819 1.99435 9.57256 1.68565 9.34891 1.45803C9.12527 1.23042 8.82195 1.10254 8.50567 1.10254H1.19252C0.876246 1.10254 0.572923 1.23042 0.349281 1.45803C0.12564 1.68565 0 1.99435 0 2.31625V37.6565C0 37.9784 0.12564 38.2871 0.349281 38.5147C0.572923 38.7423 0.876246 38.8702 1.19252 38.8702H8.50567C8.82195 38.8702 9.12527 38.7423 9.34891 38.5147C9.57256 38.2871 9.69819 37.9784 9.69819 37.6565V26.7331C12.0266 28.7145 14.8767 30.0708 17.9564 30.0708C21.7288 30.0708 25.3467 28.5456 28.0142 25.8307C30.6817 23.1158 32.1802 19.4337 32.1802 15.5942C32.1802 11.7548 30.6817 8.07267 28.0142 5.35779C25.3467 2.64292 21.7288 1.11772 17.9564 1.11772V1.10254ZM16.0514 22.039C14.482 22.0384 12.9676 21.4507 11.7962 20.3877C10.6248 19.3248 9.8781 17.8607 9.69819 16.2739V14.7568C9.84414 13.5106 10.3408 12.334 11.1284 11.3683C11.916 10.4027 12.961 9.68932 14.1376 9.31398C15.3142 8.93864 16.5724 8.91736 17.7606 9.25268C18.9488 9.58801 20.0166 10.2657 20.8353 11.2041C21.654 12.1425 22.1888 13.3018 22.3753 14.5423C22.5619 15.7828 22.3923 17.0518 21.8869 18.1965C21.3814 19.3412 20.5618 20.3129 19.5265 20.9946C18.4912 21.6763 17.2844 22.039 16.0514 22.039Z" fill="#EBEBEB"/>
<path d="M128.56 5.12296C126.103 2.76836 122.958 1.10254 119.53 1.10254C115.757 1.10254 112.139 2.62774 109.472 5.34262C106.804 8.05749 105.306 11.7397 105.306 15.5791C105.306 19.4185 106.804 23.1007 109.472 25.8155C112.139 28.5304 115.757 30.0556 119.53 30.0556C122.958 30.0556 126.088 28.3898 128.56 26.0352V28.4232C128.56 29.7502 128.042 31.0229 127.12 31.9612C126.198 32.8995 124.948 33.4267 123.644 33.4267H114.831C114.055 33.4276 113.297 33.6575 112.647 34.0883C111.997 34.5191 111.484 35.1325 111.17 35.8541L109.292 40.1476C109.251 40.24 109.235 40.3412 109.243 40.442C109.25 40.5427 109.283 40.6399 109.337 40.7246C109.391 40.8093 109.466 40.8788 109.553 40.927C109.64 40.9751 109.738 41.0003 109.837 41.0002H123.644C131.604 41.0002 138.082 36.5308 138.082 28.4292V2.33446C138.082 2.01257 137.957 1.70385 137.733 1.47624C137.509 1.24863 137.206 1.12075 136.89 1.12075H129.752C129.436 1.12075 129.133 1.24863 128.909 1.47624C128.686 1.70385 128.56 2.01257 128.56 2.33446V5.12296ZM121.441 22.0451C120.175 22.0445 118.939 21.6621 117.887 20.9463C116.835 20.2304 116.016 19.2132 115.532 18.0233C115.048 16.8334 114.922 15.5243 115.169 14.2614C115.416 12.9984 116.026 11.8385 116.921 10.9281C117.815 10.0178 118.955 9.3979 120.196 9.1469C121.437 8.8959 122.724 9.02503 123.893 9.51796C125.061 10.0109 126.06 10.8455 126.763 11.9163C127.466 12.987 127.841 14.2458 127.841 15.5336C127.841 16.3889 127.676 17.2359 127.354 18.0261C127.032 18.8163 126.561 19.5343 125.966 20.139C125.372 20.7437 124.666 21.2233 123.89 21.5503C123.113 21.8774 122.281 22.0455 121.441 22.0451Z" fill="#EBEBEB"/>
</svg>
