<svg width="52" height="58" viewBox="0 0 52 58" fill="none" xmlns="http://www.w3.org/2000/svg">
<g clip-path="url(#clip0_723_14316)">
<path d="M46.7193 6.20752C32.7381 4.65707 17.3446 7.62247 8.16422 15.9591C3.7159 19.9966 0.908673 24.7982 0.159995 29.9796C-0.568685 35.0153 1.24239 40.0529 4.63456 44.4148C8.58543 49.493 14.4299 53.6355 20.478 57.3494C21.7742 58.1458 23.6277 58.2859 24.8964 57.3494C26.0075 56.5308 26.2 54.891 24.8964 54.0909C15.9697 48.609 6.3469 41.5868 6.24566 32.4039C6.14942 23.6201 14.0762 15.7969 24.8689 12.4545C31.1608 10.5058 38.3176 9.9039 45.0582 10.6515C46.7243 10.8358 48.4166 10.3427 48.9016 9.04202C49.3065 7.95431 48.3979 6.39372 46.7193 6.20752Z" fill="#01010C"/>
<path d="M34.6567 4.30103L47.2992 10.642V6.66265C43.2921 7.94394 39.9187 10.2198 37.6464 12.9585C36.7927 13.9872 37.2964 15.5377 38.7675 16.111C40.2911 16.7046 42.1309 16.3829 43.0421 15.2842C43.2821 14.9956 43.5296 14.7127 43.7958 14.438C43.9783 14.249 44.0945 14.143 43.8308 14.3882C44.5528 13.7127 45.3592 13.0887 46.2393 12.5243C46.3968 12.4229 46.5618 12.3289 46.718 12.2275C46.9967 12.045 46.2968 12.4469 46.7767 12.1934C47.183 11.9777 47.5917 11.7685 48.0166 11.574C48.7973 11.2202 49.6119 10.9087 50.4539 10.642C51.4288 10.3305 52 9.38839 52 8.65188C52 7.79646 51.3813 7.12816 50.4526 6.66265L37.8114 0.320734C36.4552 -0.358626 34.2867 0.0995038 33.5355 1.14758C32.6981 2.31549 33.2106 3.5765 34.6567 4.30103Z" fill="#01010C"/>
</g>
<defs>
<clipPath id="clip0_723_14316">
<rect width="52" height="58" fill="white"/>
</clipPath>
</defs>
</svg>
