<svg width="33" height="32" viewBox="0 0 33 32" fill="none" xmlns="http://www.w3.org/2000/svg">
<g clip-path="url(#clip0_723_14146)">
<path d="M16.5003 23.9991C20.9189 23.9991 24.5007 20.4171 24.5007 15.9986C24.5007 11.58 20.9189 7.99805 16.5003 7.99805C12.0818 7.99805 8.5 11.58 8.5 15.9986C8.5 20.4171 12.0818 23.9991 16.5003 23.9991Z" fill="white"/>
<path d="M9.57171 20.0007L2.64426 8.00195C1.23951 10.4341 0.499905 13.1932 0.499817 16.0019C0.499728 18.8105 1.23916 21.5697 2.64376 24.002C4.04826 26.4341 6.06835 28.4537 8.50091 29.8576C10.9335 31.2615 13.6928 32.0002 16.5014 31.9994L23.4288 20.0007V19.9988C22.7272 21.2157 21.7175 22.2262 20.5013 22.9289C19.2851 23.6315 17.9054 24.0016 16.5008 24.0018C15.0963 24.002 13.7165 23.6323 12.5001 22.9301C11.2837 22.2278 10.2738 21.2175 9.57171 20.001V20.0007Z" fill="#229342"/>
<path d="M23.4283 20.0008L16.501 31.9995C19.3096 31.9999 22.0689 31.2608 24.5012 29.8566C26.9336 28.4524 28.9534 26.4325 30.3574 24C31.7615 21.5675 32.5005 18.8083 32.5 15.9997C32.4995 13.191 31.7596 10.432 30.3546 8H16.4998L16.4982 8.00118C17.9027 8.00051 19.2827 8.36967 20.4993 9.07154C21.7159 9.77343 22.7262 10.7833 23.4286 11.9996C24.1311 13.2159 24.5009 14.5957 24.5009 16.0003C24.5008 17.4048 24.131 18.7847 23.4285 20.0009L23.4283 20.0008Z" fill="#FBC116"/>
<path d="M16.5003 22.3354C19.9983 22.3354 22.834 19.4998 22.834 16.0016C22.834 12.5035 19.9983 9.66797 16.5003 9.66797C13.0023 9.66797 10.1667 12.5036 10.1667 16.0016C10.1667 19.4996 13.0023 22.3354 16.5003 22.3354Z" fill="#1A73E8"/>
<path d="M16.5004 8.0005H30.3551C28.9511 5.56794 26.9315 3.54788 24.4992 2.14341C22.0669 0.739035 19.3078 -0.000213178 16.4992 4.61128e-08C13.6906 0.000140058 10.9315 0.739798 8.49952 2.14459C6.06743 3.54931 4.04805 5.56962 2.64444 8.00235L9.57189 20.0011L9.57374 20.0021C8.87088 18.786 8.50061 17.4063 8.50017 16.0018C8.49972 14.5972 8.86913 13.2173 9.57122 12.0008C10.2732 10.7842 11.2833 9.77392 12.4997 9.07166C13.7161 8.3694 15.0961 7.9999 16.5007 8.00034L16.5004 8.0005Z" fill="#E33B2E"/>
</g>
<defs>
<clipPath id="clip0_723_14146">
<rect width="32" height="32" fill="white" transform="translate(0.5)"/>
</clipPath>
</defs>
</svg>
