<svg width="354" height="335" viewBox="0 0 354 335" fill="none" xmlns="http://www.w3.org/2000/svg">
<g clip-path="url(#clip0_723_14320)">
<path d="M17.0816 114.159L0.0125796 103.763C-0.217761 92.6414 2.0663 81.6267 6.66643 71.6758C10.6019 90.9896 31.3125 100.178 40.8678 117.041C43.8108 122.325 45.6164 128.258 46.1507 134.399C46.685 140.54 45.9344 146.732 43.9545 152.517L45.0771 167.491C36.2552 164.634 28.111 159.743 21.2056 153.155C14.3002 146.567 8.79779 138.439 5.07746 129.33C3.03728 124.197 1.60297 118.808 0.808376 113.288C8.76687 114.203 17.0816 114.159 17.0816 114.159Z" fill="#F2F2F2"/>
<path d="M323.925 303.276L324.449 290.552C329.905 287.398 335.991 285.733 342.177 285.699C333.663 293.226 334.727 307.736 328.954 317.858C327.131 321.001 324.678 323.659 321.776 325.637C318.873 327.614 315.597 328.86 312.188 329.282L305.063 334C304.085 328.106 304.301 322.053 305.695 316.258C307.089 310.463 309.628 305.064 313.138 300.432C315.131 297.855 317.416 295.559 319.939 293.599C321.646 298.465 323.925 303.276 323.925 303.276Z" fill="#F2F2F2"/>
<path d="M305.565 327.451L299.113 327.45L296.044 300.541L305.567 300.542L305.565 327.451Z" fill="#FFB6B6"/>
<path d="M307.211 334.213L286.407 334.212V333.928C286.407 331.606 287.26 329.379 288.779 327.737C290.298 326.095 292.357 325.172 294.505 325.172H294.505L298.305 322.055L305.396 325.173H307.212L307.211 334.213Z" fill="#2F2E41"/>
<path d="M275.59 327.451L269.138 327.45L266.069 300.541L275.592 300.542L275.59 327.451Z" fill="#FFB6B6"/>
<path d="M277.236 334.213L256.432 334.212V333.928C256.432 331.606 257.286 329.379 258.804 327.737C260.323 326.095 262.382 325.172 264.53 325.172L268.33 322.055L275.421 325.173H277.237L277.236 334.213Z" fill="#2F2E41"/>
<path d="M272.798 180.336L314.765 181.47C322.735 186.152 322.856 196.283 320.245 208.312C320.245 208.312 321.126 215.462 319.364 217.368C317.601 219.275 316.718 219.274 317.6 222.611C318.482 225.948 313.824 231.397 314.39 232.009C314.956 232.62 316.278 235.956 316.278 235.956L311.869 263.125C311.869 263.125 308.784 310.312 307.902 311.265C307.02 312.218 306.139 311.265 307.021 313.648C307.902 316.032 308.783 315.078 307.902 316.031C307.121 316.942 306.386 317.896 305.698 318.891H295.041C295.041 318.891 294.237 314.125 294.237 313.648C294.237 313.172 293.356 310.312 293.356 309.835C293.356 309.359 294.135 308.516 294.135 308.516C294.404 307.547 294.586 306.552 294.678 305.545C294.678 304.592 297.323 267.891 297.323 267.891L292.033 220.227L279.249 266.938C279.249 266.938 279.249 307.928 278.368 308.882C277.487 309.835 277.487 309.358 277.927 311.265C278.368 313.171 280.131 312.695 278.808 314.125C277.485 315.555 277.046 313.172 277.487 315.555L277.927 317.938L264.703 318.142C264.703 318.142 262.94 314.125 263.822 312.695C264.703 311.265 264.65 311.655 263.575 309.315C262.499 306.975 262.058 306.499 262.499 306.022C262.94 305.545 262.94 303.01 262.94 303.01L265.144 257.405C265.144 257.405 265.584 209.265 265.584 207.835C265.618 207.1 265.492 206.366 265.219 205.691V203.75L266.907 196.873L272.798 180.336Z" fill="#2F2E41"/>
<path d="M311.047 71.882C311.047 79.6688 305.209 85.9809 298.008 85.9809C290.806 85.9809 284.969 79.6688 284.969 71.882C284.969 64.0952 290.806 57.7832 298.008 57.7832C305.209 57.7832 311.047 64.0952 311.047 71.882Z" fill="#FFB6B6"/>
<path d="M291.488 95.2999C288.679 97.1053 286.999 100.424 286.034 103.8C284.248 110.05 283.173 116.513 282.833 123.045L281.814 142.6L269.195 184.238C280.132 194.244 321.24 186.512 321.24 186.512C321.24 186.512 322.501 186.057 321.24 184.693C319.978 183.329 318.749 184.537 320.011 183.173C321.272 181.809 320.403 183.329 319.982 181.964C319.562 180.6 319.982 181.509 320.403 181.055C320.824 180.6 317.146 176.507 317.146 176.507L320.512 152.606L324.718 104.396C319.67 97.5738 309.519 93.5523 309.519 93.5523L306.896 88.4473L293.782 89.5817L291.488 95.2999Z" fill="#E6E6E6"/>
<path d="M289.7 63.6085C290.204 63.6126 290.707 63.6837 291.195 63.8201C292.158 64.0705 293.136 64.2479 294.122 64.351C297.141 64.6582 299.977 66.0503 302.178 68.3049C304.379 70.5595 305.818 73.5465 306.265 76.789C307.023 76.0743 308.747 74.7607 310.16 75.9819C310.181 76.0012 310.194 76.0114 310.244 75.9859C311.182 75.5043 312.848 69.5791 312.898 64.3618C312.925 61.5926 312.522 58.0566 310.451 56.9369L310.342 56.8779L310.313 56.7497C310.175 56.1269 308.629 55.0634 305.942 54.2358C301.059 52.7321 293.78 49.8024 289.681 54.1138C289.371 55.5676 288.361 58.6777 287.342 59.0305C286.213 59.4207 285.238 59.7577 285.085 61.2546C284.956 63.3854 284.966 65.5234 285.112 67.6528C285.495 66.3498 286.246 65.2093 287.259 64.3919C287.98 63.8673 288.831 63.5943 289.7 63.6085Z" fill="#2F2E41"/>
<path d="M265.43 141.512L286.73 126.762L276.002 111.342L265.408 125.432L232.402 127.621C231.534 126.693 230.435 126.058 229.239 125.794C228.043 125.53 226.802 125.648 225.666 126.134C224.531 126.619 223.551 127.451 222.846 128.528C222.141 129.606 221.741 130.882 221.694 132.201C221.648 133.52 221.958 134.825 222.586 135.957C223.213 137.088 224.132 137.998 225.23 138.575C226.328 139.153 227.557 139.372 228.768 139.206C229.98 139.041 231.12 138.498 232.051 137.644L265.43 141.512Z" fill="#FFB6B6"/>
<path d="M306.499 106.174C307.735 114.264 284.39 129.712 284.39 129.712C284.39 127.813 270.456 142.147 269.828 140.572C268.04 136.097 266.783 125.495 264.285 123.799C262.857 122.829 272.888 113.714 272.888 113.714C272.888 113.714 278.139 107.994 285.03 100.779C286.943 98.7007 289.311 97.1791 291.914 96.3563C294.518 95.5335 297.271 95.4363 299.918 96.0737C299.918 96.0737 305.263 98.0851 306.499 106.174Z" fill="#E6E6E6"/>
<path d="M350.401 145.384L336.313 122.67L322.282 134.594L335.534 145.747L338.257 181.382C337.417 182.34 336.853 183.541 336.634 184.84C336.415 186.138 336.551 187.478 337.023 188.695C337.496 189.912 338.286 190.953 339.297 191.693C340.308 192.433 341.496 192.839 342.717 192.861C343.937 192.883 345.138 192.521 346.171 191.818C347.204 191.115 348.026 190.103 348.537 188.904C349.047 187.705 349.224 186.371 349.045 185.065C348.867 183.76 348.341 182.538 347.531 181.55L350.401 145.384Z" fill="#FFB6B6"/>
<path d="M316.858 101.734C324.312 100.226 339.089 125.136 339.089 125.136C337.333 125.176 350.882 139.935 349.439 140.649C345.339 142.676 335.564 144.259 334.048 146.995C333.181 148.56 324.541 137.908 324.541 137.908C324.541 137.908 319.141 132.353 312.324 125.057C310.362 123.033 308.905 120.505 308.089 117.708C307.273 114.912 307.125 111.937 307.658 109.062C307.658 109.062 309.404 103.241 316.858 101.734Z" fill="#E6E6E6"/>
<path d="M354.001 334.325C354.001 334.414 353.985 334.502 353.954 334.584C353.923 334.666 353.877 334.741 353.819 334.803C353.761 334.866 353.692 334.916 353.616 334.95C353.54 334.983 353.459 335.001 353.377 335H206.341C206.175 335 206.016 334.929 205.899 334.803C205.782 334.676 205.716 334.504 205.716 334.325C205.716 334.146 205.782 333.975 205.899 333.848C206.016 333.722 206.175 333.65 206.341 333.65H353.377C353.459 333.65 353.54 333.667 353.616 333.701C353.692 333.735 353.761 333.785 353.819 333.848C353.877 333.91 353.923 333.985 353.954 334.067C353.985 334.149 354.001 334.237 354.001 334.325Z" fill="#CCCCCC"/>
<path d="M217.789 129.775H39.3403C36.5522 129.779 33.8792 130.978 31.9078 133.109C29.9364 135.241 28.8275 138.131 28.8244 141.146V261.276C28.8276 264.291 29.9365 267.181 31.908 269.313C33.8794 271.444 36.5523 272.643 39.3403 272.647H217.789C220.577 272.643 223.25 271.444 225.221 269.313C227.192 267.181 228.301 264.291 228.305 261.276V141.146C228.301 138.131 227.193 135.241 225.221 133.109C223.25 130.978 220.577 129.779 217.789 129.775Z" fill="#50EFC0"/>
<path d="M217.789 129.775H39.3403C36.5522 129.779 33.8792 130.978 31.9078 133.109C29.9364 135.241 28.8275 138.131 28.8244 141.146V261.276C28.8276 264.291 29.9365 267.181 31.908 269.313C33.8794 271.444 36.5523 272.643 39.3403 272.647H217.789C220.577 272.643 223.25 271.444 225.221 269.313C227.192 267.181 228.301 264.291 228.305 261.276V141.146C228.301 138.131 227.193 135.241 225.221 133.109C223.25 130.978 220.577 129.779 217.789 129.775ZM221.239 216.067C221.197 228.297 216.723 240.021 208.777 248.726C200.832 257.43 190.048 262.421 178.738 262.626C160.631 262.881 188.756 262.98 166.919 262.98C116.982 262.98 64.9117 262.464 45.4837 262.13C42.9276 262.073 40.4934 260.937 38.7007 258.966C36.908 256.995 35.899 254.345 35.889 251.58V141.154C35.89 140.164 36.2535 139.215 36.9001 138.514C37.5467 137.814 38.4237 137.418 39.3392 137.415H217.782C218.697 137.416 219.575 137.809 220.223 138.508C220.871 139.207 221.237 140.155 221.24 141.145L221.239 216.067Z" fill="#3F3D56"/>
<path d="M195.822 60.6016H59.8626C58.6597 60.6036 57.4868 61.0069 56.5038 61.7565C55.5208 62.5061 54.7757 63.5654 54.3702 64.7899L33.3721 128.489C33.0587 129.44 32.961 130.458 33.0871 131.458C33.2133 132.458 33.5596 133.411 34.097 134.236C34.6344 135.061 35.3472 135.735 36.1754 136.201C37.0036 136.666 37.9231 136.91 38.8566 136.911L221.2 137.261H221.208C222.173 137.262 223.123 137.003 223.973 136.508C224.823 136.013 225.546 135.298 226.077 134.427C226.608 133.556 226.931 132.556 227.017 131.516C227.103 130.477 226.948 129.431 226.568 128.472L201.182 64.4235C200.733 63.2886 199.986 62.3213 199.033 61.6418C198.08 60.9623 196.963 60.6006 195.822 60.6016Z" fill="#3F3D56"/>
<path d="M227.04 129.854C227.04 130.708 226.879 131.554 226.568 132.339L201.183 181.642C200.731 182.774 199.983 183.739 199.031 184.417C198.078 185.095 196.963 185.457 195.822 185.459H59.8652C58.6619 185.458 57.4882 185.055 56.5043 184.306C55.5204 183.557 54.7742 182.498 54.3676 181.273L33.3736 132.322C33.1163 131.542 33.0037 130.715 33.0422 129.888C33.0806 129.061 33.2695 128.25 33.5978 127.502C33.9262 126.754 34.3876 126.084 34.9559 125.528C35.5241 124.973 36.1879 124.545 36.9093 124.267C37.5335 124.024 38.192 123.899 38.8555 123.899L61.1295 123.853L70.2205 123.836L189.847 123.609L198.943 123.592L221.202 123.547H221.207C222.754 123.547 224.237 124.212 225.331 125.395C226.425 126.577 227.04 128.182 227.04 129.854Z" fill="#3F3D56"/>
<path d="M52.7177 219.887C55.4141 219.887 92.4362 222.334 92.4362 225.249C92.4362 228.164 55.4141 230.444 52.7177 230.444C51.423 230.444 50.1813 229.888 49.2658 228.898C48.3503 227.908 47.8359 226.565 47.8359 225.165C47.8359 223.765 48.3503 222.423 49.2658 221.433C50.1813 220.443 51.423 219.887 52.7177 219.887Z" fill="#3F3D56"/>
<path d="M187.355 21.8496H72.7176C69.6453 21.8535 66.6999 23.1749 64.5275 25.5238C62.3551 27.8728 61.1331 31.0576 61.1295 34.3795V185.459H195.822C196.928 185.463 198.012 185.122 198.943 184.477V34.3795C198.94 31.0576 197.718 27.8728 195.545 25.5238C193.373 23.1749 190.428 21.8535 187.355 21.8496Z" fill="#E6E6E6"/>
<path d="M143.6 32.0098H80.7752C77.9777 32.0128 75.2955 33.2153 73.3168 35.3537C71.3382 37.4921 70.2247 40.3917 70.2205 43.4166V185.46H189.847V82.0159C189.833 68.7582 184.956 56.0478 176.286 46.6731C167.616 37.2985 155.861 32.0251 143.6 32.0098Z" fill="white"/>
<path d="M169.467 172.844H90.6007C89.9189 172.844 89.2651 173.137 88.7831 173.658C88.301 174.179 88.0302 174.886 88.0302 175.623C88.0302 176.36 88.301 177.067 88.7831 177.588C89.2651 178.11 89.9189 178.403 90.6007 178.403H169.467C170.149 178.403 170.802 178.11 171.285 177.588C171.767 177.067 172.037 176.36 172.037 175.623C172.037 174.886 171.767 174.179 171.285 173.658C170.802 173.137 170.149 172.844 169.467 172.844Z" fill="#E4E4E4"/>
<path d="M169.467 161.852H90.6007C89.9183 161.852 89.2638 162.145 88.7812 162.666C88.2987 163.188 88.0276 163.896 88.0276 164.634C88.0276 165.372 88.2987 166.079 88.7812 166.601C89.2638 167.123 89.9183 167.416 90.6007 167.416H169.467C170.149 167.416 170.804 167.123 171.286 166.601C171.769 166.079 172.04 165.372 172.04 164.634C172.04 163.896 171.769 163.188 171.286 162.666C170.804 162.145 170.149 161.852 169.467 161.852Z" fill="#E4E4E4"/>
<path d="M124.787 150.865H90.6002C89.9184 150.865 89.2646 151.158 88.7826 151.679C88.3005 152.201 88.0297 152.907 88.0297 153.645C88.0297 154.382 88.3005 155.089 88.7826 155.61C89.2646 156.131 89.9184 156.424 90.6002 156.424H124.787C125.469 156.424 126.123 156.131 126.605 155.61C127.087 155.089 127.358 154.382 127.358 153.645C127.358 152.907 127.087 152.201 126.605 151.679C126.123 151.158 125.469 150.865 124.787 150.865Z" fill="#E4E4E4"/>
<path d="M169.467 127.846H90.6007C89.9183 127.846 89.2638 128.139 88.7812 128.661C88.2987 129.182 88.0276 129.89 88.0276 130.628C88.0276 131.366 88.2987 132.073 88.7812 132.595C89.2638 133.117 89.9183 133.41 90.6007 133.41H169.467C170.149 133.41 170.804 133.117 171.286 132.595C171.769 132.073 172.04 131.366 172.04 130.628C172.04 129.89 171.769 129.182 171.286 128.661C170.804 128.139 170.149 127.846 169.467 127.846Z" fill="#E4E4E4"/>
<path d="M169.467 116.859H90.6007C89.9189 116.859 89.2651 117.152 88.7831 117.673C88.301 118.195 88.0302 118.902 88.0302 119.639C88.0302 120.376 88.301 121.083 88.7831 121.604C89.2651 122.125 89.9189 122.418 90.6007 122.418H169.467C170.149 122.418 170.802 122.125 171.285 121.604C171.767 121.083 172.037 120.376 172.037 119.639C172.037 118.902 171.767 118.195 171.285 117.673C170.802 117.152 170.149 116.859 169.467 116.859Z" fill="#E4E4E4"/>
<path d="M124.787 105.867H90.6002C89.9177 105.867 89.2633 106.16 88.7807 106.682C88.2982 107.204 88.0271 107.912 88.0271 108.649C88.0271 109.387 88.2982 110.095 88.7807 110.617C89.2633 111.138 89.9177 111.432 90.6002 111.432H124.787C125.47 111.432 126.124 111.138 126.607 110.617C127.089 110.095 127.361 109.387 127.361 108.649C127.361 107.912 127.089 107.204 126.607 106.682C126.124 106.16 125.47 105.867 124.787 105.867Z" fill="#E4E4E4"/>
<path d="M169.467 82.8496H90.6007C89.9183 82.8496 89.2638 83.1427 88.7812 83.6645C88.2987 84.1863 88.0276 84.8939 88.0276 85.6318C88.0276 86.3697 88.2987 87.0774 88.7812 87.5991C89.2638 88.1209 89.9183 88.414 90.6007 88.414H169.467C170.149 88.414 170.804 88.1209 171.286 87.5991C171.769 87.0774 172.04 86.3697 172.04 85.6318C172.04 84.8939 171.769 84.1863 171.286 83.6645C170.804 83.1427 170.149 82.8496 169.467 82.8496Z" fill="#50EFC0"/>
<path d="M169.467 71.8613H90.6007C89.9183 71.8613 89.2638 72.1545 88.7812 72.6762C88.2987 73.198 88.0276 73.9057 88.0276 74.6435C88.0276 75.3814 88.2987 76.0891 88.7812 76.6109C89.2638 77.1326 89.9183 77.4258 90.6007 77.4258H169.467C170.149 77.4258 170.804 77.1326 171.286 76.6109C171.769 76.0891 172.04 75.3814 172.04 74.6435C172.04 73.9057 171.769 73.198 171.286 72.6762C170.804 72.1545 170.149 71.8613 169.467 71.8613Z" fill="#50EFC0"/>
<path d="M124.787 60.8691H90.6002C89.9177 60.8691 89.2633 61.1623 88.7807 61.684C88.2982 62.2058 88.0271 62.9135 88.0271 63.6514C88.0271 64.3893 88.2982 65.0969 88.7807 65.6187C89.2633 66.1405 89.9177 66.4336 90.6002 66.4336H124.787C125.47 66.4336 126.124 66.1405 126.607 65.6187C127.089 65.0969 127.361 64.3893 127.361 63.6514C127.361 62.9135 127.089 62.2058 126.607 61.684C126.124 61.1623 125.47 60.8691 124.787 60.8691Z" fill="#50EFC0"/>
<path d="M214.665 21.6468C214.665 33.6022 205.702 43.2937 194.645 43.2937C183.588 43.2937 174.625 33.6022 174.625 21.6468C174.625 9.69153 183.588 0 194.645 0C205.702 0 214.665 9.69153 214.665 21.6468Z" fill="#50EFC0"/>
<path d="M191.914 32.9121C191.569 32.9121 191.228 32.8251 190.919 32.6579C190.609 32.4907 190.34 32.248 190.133 31.9489L184.671 24.0748C184.317 23.5638 184.165 22.9216 184.248 22.2893C184.332 21.6571 184.644 21.0866 185.117 20.7035C185.589 20.3203 186.183 20.1558 186.768 20.2462C187.353 20.3366 187.88 20.6744 188.235 21.1853L191.807 26.3368L200.985 11.4513C201.312 10.9199 201.822 10.5509 202.401 10.4257C202.98 10.3004 203.582 10.4291 204.073 10.7834C204.565 11.1376 204.906 11.6885 205.022 12.3148C205.137 12.9411 205.018 13.5915 204.691 14.1229L193.767 31.8394C193.57 32.1599 193.304 32.4245 192.992 32.6111C192.681 32.7976 192.332 32.9006 191.976 32.9115H191.914L191.914 32.9121Z" fill="white"/>
</g>
<defs>
<clipPath id="clip0_723_14320">
<rect width="354" height="335" fill="white"/>
</clipPath>
</defs>
</svg>
