<svg width="387" height="298" viewBox="0 0 387 298" fill="none" xmlns="http://www.w3.org/2000/svg">
<g clip-path="url(#clip0_723_14355)">
<path d="M218.724 274.341C218.724 287.059 209.288 297.37 197.649 297.37C186.009 297.37 176.573 287.059 176.573 274.341C176.573 261.623 186.009 251.312 197.649 251.312C209.288 251.312 218.724 261.623 218.724 274.341Z" fill="#50EFC0"/>
<path d="M323.555 296.074C335.346 292.205 347.881 288.17 357.232 278.972C365.588 270.753 371.229 258.202 367.767 245.875C364.313 233.575 353.965 225.372 343.282 221.292C337.223 218.979 330.884 217.695 324.547 216.687C317.659 215.59 310.739 214.692 303.824 213.828C275.822 210.329 247.714 208.191 219.502 207.415C205.581 207.031 191.662 207.041 177.739 207.262C165.304 207.459 152.209 207.454 140.674 201.68C131.704 197.189 123.562 189.019 121.063 178.284C118.178 165.891 123.5 153.271 131.134 144.296C135.157 139.565 139.86 135.583 144.712 131.921C149.975 127.949 155.421 124.259 160.986 120.813C171.946 114.032 183.404 108.26 195.241 103.558C201.081 101.238 207.007 99.2363 212.985 97.3895C218.033 95.8306 223.096 94.2691 227.974 92.1445C237.405 88.0374 246.374 81.0808 248.772 69.6757C251.045 58.8668 247.213 47.1328 240.496 39.1028C232.724 29.8128 221.006 25.7403 209.771 25.0815C197.159 24.3415 184.837 27.7908 172.982 32.1682C160.338 36.837 147.967 42.2052 135.056 45.9868C122.253 49.7331 109.202 52.3837 96.0225 53.9147C89.5702 54.6656 82.9236 55.5131 76.4328 54.9384C70.9935 54.4568 65.5817 52.7087 61.5727 48.4904C58.1356 44.874 56.0876 39.9033 56.7918 34.6573C56.9196 33.7046 58.2441 34.1096 58.1172 35.0568C57.2605 41.4422 61.2327 47.326 66.1278 50.3402C71.7852 53.8235 78.6696 53.8285 84.9684 53.4301C98.6257 52.5287 112.191 50.386 125.522 47.0241C138.623 43.7551 151.255 39.0813 163.873 34.0886C175.856 29.3472 188.108 24.7195 200.911 23.6922C212.019 22.8011 223.705 24.5693 233.383 30.9127C241.888 36.4876 248.142 45.7846 250.135 56.4533C252.083 66.8787 249.386 77.3717 242.163 84.6467C234.686 92.1795 224.432 95.4 214.876 98.3657C202.757 102.128 190.897 106.525 179.418 112.234C167.782 118.005 156.623 124.86 146.064 132.724C135.871 140.335 125.813 149.91 122.589 163.488C121.087 169.812 121.365 176.52 123.877 182.493C126.111 187.805 129.79 192.273 134.077 195.719C144.303 203.941 157.192 205.63 169.545 205.798C183.419 205.986 197.293 205.475 211.172 205.724C239.455 206.231 267.681 208.112 295.849 211.367C302.907 212.183 309.956 213.085 316.997 214.074C323.329 214.963 329.683 215.846 335.909 217.425C346.979 220.233 357.752 225.631 364.632 235.887C367.686 240.332 369.578 245.6 370.106 251.129C370.588 256.898 369.295 262.678 366.908 267.81C361.624 279.169 351.727 286.395 341.217 291.141C335.588 293.684 329.748 295.61 323.92 297.522C323.071 297.801 322.709 296.352 323.555 296.074Z" fill="#F2F2F2"/>
<path d="M68.6752 34.7922C68.6752 41.4279 63.7522 46.8071 57.6792 46.8071C51.6063 46.8071 46.6833 41.4279 46.6833 34.7922C46.6833 28.1565 51.6063 22.7773 57.6792 22.7773C63.7522 22.7773 68.6752 28.1565 68.6752 34.7922Z" fill="#F2F2F2"/>
<path d="M144.96 57.5715C144.96 64.2072 140.037 69.5864 133.964 69.5864C127.891 69.5864 122.968 64.2072 122.968 57.5715C122.968 50.9358 127.891 45.5566 133.964 45.5566C140.037 45.5566 144.96 50.9358 144.96 57.5715Z" fill="#F2F2F2"/>
<path d="M209.561 12.0149C209.561 18.6506 204.638 24.0298 198.565 24.0298C192.492 24.0298 187.569 18.6506 187.569 12.0149C187.569 5.37916 192.492 0 198.565 0C204.638 0 209.561 5.37916 209.561 12.0149Z" fill="#F2F2F2"/>
<path d="M249.879 63.0774C249.879 69.7131 244.956 75.0923 238.884 75.0923C232.811 75.0923 227.888 69.7131 227.888 63.0774C227.888 56.4417 232.811 51.0625 238.884 51.0625C244.956 51.0625 249.879 56.4417 249.879 63.0774Z" fill="#F2F2F2"/>
<path d="M195.358 122.152C195.358 128.787 190.435 134.166 184.362 134.166C178.289 134.166 173.366 128.787 173.366 122.152C173.366 115.516 178.289 110.137 184.362 110.137C190.435 110.137 195.358 115.516 195.358 122.152Z" fill="#F2F2F2"/>
<path d="M126.175 150.687C126.175 157.322 121.252 162.702 115.179 162.702C109.106 162.702 104.183 157.322 104.183 150.687C104.183 144.051 109.106 138.672 115.179 138.672C121.252 138.672 126.175 144.051 126.175 150.687Z" fill="#F2F2F2"/>
<path d="M199.481 195.241C199.481 201.877 194.558 207.256 188.485 207.256C182.412 207.256 177.489 201.877 177.489 195.241C177.489 188.606 182.412 183.227 188.485 183.227C194.558 183.227 199.481 188.606 199.481 195.241Z" fill="#F2F2F2"/>
<path d="M278.286 220.273C278.286 226.908 273.363 232.288 267.29 232.288C261.217 232.288 256.294 226.908 256.294 220.273C256.294 213.637 261.217 208.258 267.29 208.258C273.363 208.258 278.286 213.637 278.286 220.273Z" fill="#F2F2F2"/>
<path d="M370.377 214.767C370.377 221.403 365.454 226.782 359.381 226.782C353.308 226.782 348.385 221.403 348.385 214.767C348.385 208.131 353.308 202.752 359.381 202.752C365.454 202.752 370.377 208.131 370.377 214.767Z" fill="#F2F2F2"/>
<path d="M195.391 34.0442C162.453 34.298 135.483 63.5457 135.015 99.5333C135.011 99.8657 135.009 102.202 135.009 105.257C135.009 109.738 136.638 114.035 139.538 117.203C142.437 120.371 146.369 122.151 150.47 122.152C152.502 122.151 154.515 121.713 156.392 120.862C158.27 120.012 159.976 118.765 161.412 117.194C162.849 115.622 163.988 113.757 164.764 111.705C165.541 109.652 165.939 107.453 165.938 105.232L165.935 101.626C165.934 96.0646 167.259 90.5983 169.777 85.7652C172.296 80.9322 175.923 76.8988 180.301 74.0619C184.68 71.225 189.658 69.6823 194.748 69.5855C199.837 69.4887 204.862 70.8411 209.328 73.5098C213.793 76.1785 217.547 80.0715 220.218 84.8059C222.889 89.5402 224.387 94.9528 224.563 100.511C224.739 106.07 223.588 111.583 221.223 116.508C218.858 121.433 215.36 125.6 211.074 128.6L211.079 128.607C211.079 128.607 189.074 144.086 182.366 165.32L182.371 165.321C181.192 169.671 180.594 174.185 180.597 178.722C180.597 180.587 180.697 196.905 180.891 210.15C180.959 214.72 182.668 219.077 185.65 222.282C188.632 225.487 192.647 227.283 196.83 227.282C198.932 227.282 201.013 226.828 202.954 225.946C204.894 225.063 206.656 223.771 208.137 222.142C209.619 220.513 210.791 218.58 211.587 216.454C212.382 214.328 212.785 212.052 212.772 209.755C212.704 197.625 212.668 183.502 212.668 182.477C212.668 169.438 224.18 156.447 233.635 147.975C244.524 138.22 252.359 124.925 255.507 109.928C256.203 106.841 256.587 103.679 256.652 100.5C256.652 91.7323 255.064 83.0512 251.98 74.957C248.896 66.8628 244.376 59.5154 238.682 53.3382C232.987 47.1609 226.231 42.2759 218.801 38.9647C211.371 35.6534 203.415 33.9813 195.391 34.0447L195.391 34.0442Z" fill="#50EFC0"/>
<path d="M386.454 298H0.545216C0.400615 298 0.261938 297.937 0.15969 297.826C0.0574422 297.714 0 297.562 0 297.404C0 297.246 0.0574422 297.095 0.15969 296.983C0.261938 296.871 0.400615 296.809 0.545216 296.809H386.454C386.599 296.809 386.738 296.871 386.84 296.983C386.942 297.095 387 297.246 387 297.404C387 297.562 386.942 297.714 386.84 297.826C386.738 297.937 386.599 298 386.454 298Z" fill="#3F3D56"/>
<path d="M301.678 121.649C301.678 129.944 295.524 136.668 287.933 136.668C280.342 136.668 274.188 129.944 274.188 121.649C274.188 113.355 280.342 106.631 287.933 106.631C295.524 106.631 301.678 113.355 301.678 121.649Z" fill="#2F2E41"/>
<path d="M262.534 291.425H256.917L254.244 267.752H262.535L262.534 291.425Z" fill="#A0616A"/>
<path d="M252.905 289.672H263.737V297.124H246.084C246.084 295.148 246.803 293.252 248.082 291.855C249.361 290.457 251.096 289.672 252.905 289.672Z" fill="#2F2E41"/>
<path d="M306.059 291.425H300.443L297.77 267.752H306.061L306.059 291.425Z" fill="#A0616A"/>
<path d="M296.43 289.672H307.263V297.124H289.61C289.61 295.148 290.329 293.252 291.608 291.855C292.887 290.457 294.622 289.672 296.43 289.672Z" fill="#2F2E41"/>
<path d="M297.097 124.46C297.097 131.251 292.059 136.756 285.844 136.756C279.629 136.756 274.591 131.251 274.591 124.46C274.591 117.669 279.629 112.164 285.844 112.164C292.059 112.164 297.097 117.669 297.097 124.46Z" fill="#A0616A"/>
<path d="M292.552 176.42L297.586 163.78C298.809 160.814 299.16 157.507 298.589 154.315C298.019 151.123 296.556 148.203 294.402 145.958C293.96 145.48 293.49 145.033 292.996 144.621C290.511 142.497 287.449 141.34 284.295 141.332C282.174 141.341 280.08 141.85 278.156 142.824C277.991 142.904 277.83 142.989 277.665 143.074C277.349 143.239 277.038 143.42 276.735 143.605C274.763 144.842 273.084 146.569 271.835 148.646C270.585 150.722 269.8 153.09 269.542 155.56L267.32 175.905C266.761 177.502 246.822 235.173 253.795 279.203C253.869 279.673 254.079 280.105 254.394 280.435C254.709 280.766 255.112 280.978 255.545 281.04L262.615 282.091C263.131 282.168 263.655 282.029 264.081 281.701C264.506 281.373 264.803 280.881 264.91 280.324L276.772 218.543C276.846 218.159 277.035 217.813 277.31 217.56C277.585 217.308 277.929 217.164 278.288 217.15C278.647 217.137 279 217.256 279.29 217.487C279.58 217.719 279.79 218.05 279.887 218.427L296.647 283.398C296.766 283.87 297.024 284.286 297.381 284.583C297.738 284.879 298.174 285.04 298.622 285.04C298.755 285.039 298.889 285.026 299.02 285L307.657 283.183C308.159 283.08 308.608 282.776 308.915 282.331C309.223 281.885 309.367 281.33 309.32 280.775C308.051 265.311 301.307 187.85 292.551 176.42H292.552Z" fill="#2F2E41"/>
<path d="M242.112 134.692C242.034 135.423 242.104 136.164 242.316 136.862C242.529 137.56 242.878 138.199 243.341 138.734C243.804 139.269 244.368 139.686 244.995 139.957C245.621 140.227 246.294 140.344 246.966 140.3L253.256 156.817L258.014 149.11L251.311 134.607C251.168 133.379 250.617 132.25 249.763 131.435C248.909 130.62 247.811 130.175 246.678 130.186C245.544 130.196 244.453 130.66 243.611 131.491C242.77 132.321 242.237 133.461 242.112 134.692Z" fill="#A0616A"/>
<path d="M285.22 193.052C285.889 192.965 286.532 192.718 287.104 192.33C287.676 191.942 288.164 191.421 288.532 190.804C288.9 190.188 289.14 189.491 289.235 188.762C289.33 188.034 289.277 187.291 289.081 186.587L302.315 176.055L294.348 172.795L283.002 183.296C281.941 183.735 281.064 184.583 280.537 185.68C280.011 186.778 279.871 188.048 280.144 189.251C280.418 190.454 281.086 191.505 282.021 192.206C282.957 192.906 284.095 193.207 285.22 193.052Z" fill="#A0616A"/>
<path d="M263.646 167.827C263.139 167.827 262.633 167.772 262.135 167.665C260.931 167.415 259.802 166.844 258.848 166.005C257.893 165.165 257.142 164.082 256.661 162.851L247.848 151.11C247.662 150.862 247.526 150.573 247.45 150.263C247.375 149.952 247.36 149.628 247.408 149.311C247.456 148.995 247.566 148.693 247.73 148.426C247.893 148.16 248.107 147.934 248.357 147.765L254.627 143.525C254.858 143.368 255.116 143.263 255.385 143.216C255.654 143.169 255.928 143.18 256.193 143.25C256.458 143.319 256.707 143.445 256.927 143.62C257.147 143.795 257.333 144.017 257.474 144.271L263.686 155.452L275.58 145.846C276.527 145.303 277.622 145.15 278.663 145.416C279.705 145.682 280.624 146.349 281.253 147.294C281.882 148.24 282.178 149.401 282.088 150.565C281.998 151.73 281.527 152.82 280.762 153.637L268.89 165.47C267.495 166.981 265.61 167.828 263.646 167.827Z" fill="#2F2E41"/>
<path d="M295.786 185.486L295.738 185.486C295.449 185.478 295.164 185.404 294.903 185.269C294.642 185.133 294.409 184.939 294.221 184.7L288.647 177.594C288.457 177.352 288.316 177.069 288.234 176.763C288.152 176.457 288.13 176.136 288.169 175.82C288.209 175.504 288.31 175.201 288.465 174.931C288.62 174.661 288.825 174.43 289.068 174.253L299.506 166.65L290.05 154.228C289.501 153.226 289.299 152.042 289.483 150.891C289.666 149.74 290.222 148.699 291.05 147.96C291.877 147.22 292.921 146.83 293.989 146.861C295.058 146.892 296.081 147.343 296.871 148.13L308.363 160.401C309.268 161.304 309.958 162.433 310.375 163.692C310.792 164.95 310.924 166.301 310.758 167.627C310.593 168.953 310.135 170.216 309.425 171.306C308.714 172.397 307.772 173.283 306.68 173.888L297.287 184.779C297.094 185.002 296.861 185.18 296.603 185.301C296.345 185.423 296.067 185.486 295.786 185.486Z" fill="#2F2E41"/>
<path d="M282.983 159.305C282.893 159.305 282.804 159.299 282.715 159.286C282.327 159.235 281.961 159.063 281.659 158.79C281.358 158.518 281.135 158.157 281.015 157.75L276.826 143.718C276.722 143.363 276.738 142.979 276.872 142.636C277.006 142.294 277.25 142.016 277.557 141.854L277.693 141.784C277.816 141.72 277.938 141.656 278.063 141.595C280.016 140.606 282.142 140.089 284.295 140.082C287.09 140.088 289.823 140.985 292.158 142.664C292.471 142.891 292.69 143.244 292.767 143.646C292.844 144.048 292.774 144.467 292.571 144.813L284.713 158.264C284.529 158.583 284.274 158.847 283.971 159.029C283.668 159.211 283.328 159.306 282.983 159.305Z" fill="#E6E6E6"/>
<path d="M303.267 110.03C303.267 112.744 301.254 114.944 298.769 114.944C296.285 114.944 294.272 112.744 294.272 110.03C294.272 107.315 296.285 105.115 298.769 105.115C301.254 105.115 303.267 107.315 303.267 110.03Z" fill="#2F2E41"/>
<path d="M283.352 104.627C280.192 104.627 277.162 105.998 274.928 108.439C272.694 110.88 271.439 114.191 271.439 117.643V123.15H277.637L280.602 117.643L281.492 123.15H300.303L295.263 117.643C295.263 114.191 294.008 110.88 291.774 108.439C289.54 105.998 286.511 104.627 283.351 104.627H283.352Z" fill="#2F2E41"/>
<path d="M301.081 106.662C301.579 104.963 302.608 103.51 303.989 102.558C305.37 101.606 307.014 101.217 308.632 101.458C311.499 101.982 313.765 104.499 315.115 107.311C316.465 110.122 317.089 113.27 317.997 116.286C318.905 119.303 320.191 122.335 322.483 124.288C324.775 126.241 328.292 126.77 330.542 124.762C330.285 126.855 329.432 128.807 328.104 130.342C326.776 131.876 325.04 132.916 323.141 133.313C321.243 133.711 319.278 133.446 317.525 132.556C315.771 131.667 314.319 130.198 313.372 128.356C312.184 126.048 311.877 123.342 311.525 120.722C311.173 118.102 310.716 115.39 309.298 113.243C307.88 111.095 305.225 109.692 302.973 110.669L301.081 106.662Z" fill="#2F2E41"/>
<path d="M154.835 114.16C150.735 114.16 146.802 112.38 143.903 109.212C141.004 106.044 139.375 101.747 139.375 97.2665C139.375 94.2107 139.377 91.8743 139.381 91.5419C139.511 81.0758 141.923 70.7944 146.418 61.5508C139.033 72.5957 134.973 85.8751 134.799 99.5518C134.795 99.8842 134.793 102.22 134.793 105.276C134.793 109.757 136.422 114.053 139.321 117.222C142.221 120.39 146.153 122.17 150.253 122.17C153.623 122.169 156.9 120.966 159.586 118.744C162.273 116.522 164.222 113.403 165.138 109.86C162.307 112.633 158.637 114.166 154.835 114.16Z" fill="#3F3D56"/>
<path d="M196.439 69.6404C201.179 69.8878 205.794 71.3885 209.886 74.0137C213.979 76.6389 217.427 80.3102 219.935 84.7124C222.443 89.1146 223.936 94.1161 224.285 99.2875C224.635 104.459 223.83 109.646 221.941 114.402C224.673 110.895 226.681 106.786 227.829 102.354C228.976 97.9215 229.235 93.2713 228.589 88.7199C227.942 84.1685 226.405 79.8229 224.082 75.9794C221.759 72.1358 218.705 68.8848 215.128 66.4477C211.552 64.0107 207.536 62.445 203.355 61.8575C199.174 61.2699 194.926 61.6742 190.901 63.0429C186.877 64.4116 183.169 66.7124 180.032 69.7885C176.894 72.8647 174.401 76.6438 172.721 80.8683C175.624 77.1373 179.272 74.1846 183.384 72.2379C187.496 70.2912 191.963 69.4025 196.439 69.6404Z" fill="#3F3D56"/>
<path d="M201.196 219.291C197.013 219.292 192.997 217.496 190.015 214.291C187.033 211.086 185.324 206.728 185.256 202.159C185.062 188.914 184.962 172.596 184.962 170.731C184.959 166.194 185.557 161.681 186.737 157.331L186.731 157.329C187.428 155.146 188.269 153.021 189.248 150.971C186.242 155.348 183.849 160.191 182.149 165.338L182.155 165.34C180.975 169.691 180.377 174.204 180.38 178.741C180.38 180.606 180.481 196.924 180.675 210.168C180.742 214.738 182.452 219.096 185.434 222.301C188.416 225.506 192.431 227.302 196.614 227.301C200.063 227.301 203.419 226.078 206.178 223.817C208.937 221.556 210.951 218.379 211.918 214.761C208.987 217.681 205.162 219.297 201.196 219.291Z" fill="#3F3D56"/>
<path d="M57.9762 291.654L63.5928 291.654L66.2653 267.98L57.9748 267.981L57.9762 291.654Z" fill="#FFB8B8"/>
<path d="M74.4257 297.353L56.7726 297.354L56.7721 289.901L67.605 289.9C69.4139 289.9 71.1487 290.686 72.4278 292.083C73.7069 293.481 74.4255 295.376 74.4257 297.353Z" fill="#2F2E41"/>
<path d="M37.8169 291.654L43.4336 291.654L46.106 267.98L37.8156 267.981L37.8169 291.654Z" fill="#FFB8B8"/>
<path d="M54.2664 297.353L36.6133 297.354L36.6129 289.901L47.4457 289.9C49.2546 289.9 50.9894 290.686 52.2685 292.083C53.5476 293.481 54.2663 295.376 54.2664 297.353Z" fill="#2F2E41"/>
<path d="M42.7257 284.373L37.2392 284.058C36.9563 284.041 36.6791 283.964 36.4238 283.83C36.1685 283.696 35.94 283.508 35.7517 283.277C35.5634 283.045 35.419 282.775 35.3268 282.483C35.2345 282.19 35.1964 281.88 35.2146 281.571L41.7723 202.24L71.9699 211.144L74.8797 210.277L65.7815 280.506C65.7039 281.034 65.4638 281.518 65.1008 281.877C64.7378 282.236 64.2735 282.449 63.7848 282.481L57.8699 282.782C57.5742 282.8 57.2783 282.75 57.001 282.637C56.7236 282.524 56.4708 282.348 56.2585 282.123C56.0463 281.897 55.8791 281.626 55.7677 281.326C55.6562 281.026 55.6029 280.704 55.6111 280.381L56.6823 238.231C56.6874 238.036 56.6254 237.846 56.5086 237.698C56.3919 237.551 56.2288 237.457 56.0516 237.434C55.8743 237.411 55.6957 237.462 55.551 237.576C55.4063 237.69 55.306 237.86 55.2698 238.051L44.935 282.512C44.8374 283.039 44.5754 283.514 44.1936 283.854C43.8118 284.194 43.3338 284.379 42.8412 284.377C42.8031 284.377 42.7646 284.376 42.7257 284.373V284.373Z" fill="#2F2E41"/>
<path d="M70.2376 125.034C70.2376 131.825 65.1996 137.33 58.9846 137.33C52.7696 137.33 47.7316 131.825 47.7316 125.034C47.7316 118.243 52.7696 112.738 58.9846 112.738C65.1996 112.738 70.2376 118.243 70.2376 125.034Z" fill="#FFB8B8"/>
<path d="M40.2493 161.158L41.4864 190.328L41.934 200.941C41.9518 201.403 42.0954 201.848 42.3463 202.221C42.5972 202.593 42.944 202.875 43.3424 203.031L72.3607 214.517C72.5952 214.612 72.8436 214.66 73.0938 214.657C73.3795 214.659 73.6627 214.597 73.9262 214.476C74.1898 214.356 74.4284 214.178 74.6278 213.954C74.8272 213.731 74.9833 213.465 75.0868 213.174C75.1903 212.883 75.239 212.572 75.2302 212.26L74.0408 159.812C73.9627 155.509 72.513 151.37 69.9416 148.11C67.3703 144.849 63.8384 142.671 59.955 141.951C59.6713 141.903 59.3873 141.858 59.1028 141.816C56.6949 141.489 54.2507 141.743 51.9422 142.56C49.6337 143.376 47.517 144.735 45.7409 146.542C43.9018 148.39 42.4566 150.657 41.5077 153.183C40.5588 155.709 40.1292 158.431 40.2493 161.158Z" fill="#CCCCCC"/>
<path d="M86.223 208.696C85.5366 208.463 84.9096 208.059 84.3919 207.514C83.8741 206.97 83.48 206.3 83.241 205.56C83.002 204.819 82.9247 204.028 83.0153 203.249C83.1058 202.47 83.3617 201.725 83.7626 201.074L73.9226 186.776L82.4142 186.201L90.4569 199.867C91.3179 200.594 91.917 201.629 92.1492 202.791C92.3814 203.953 92.2318 205.167 91.7267 206.22C91.2216 207.274 90.3932 208.099 89.3869 208.552C88.3805 209.004 87.2604 209.056 86.223 208.696Z" fill="#FFB8B8"/>
<path d="M79.3038 198.486C79.0432 198.371 78.8061 198.2 78.6064 197.984C78.4066 197.767 78.2481 197.51 78.14 197.226L63.3143 158.631C63.0241 157.875 62.8729 157.065 62.8693 156.245C62.8658 155.426 63.01 154.614 63.2937 153.855C63.5775 153.097 63.9951 152.407 64.5228 151.825C65.0506 151.243 65.6781 150.78 66.3695 150.463C67.061 150.146 67.8028 149.98 68.5527 149.977C69.3025 149.973 70.0458 150.13 70.7399 150.44C71.434 150.75 72.0655 151.207 72.5982 151.783C73.1309 152.36 73.5545 153.046 73.8447 153.801L88.6705 192.397C88.8896 192.969 88.892 193.613 88.6773 194.187C88.4626 194.761 88.0482 195.219 87.5251 195.46L80.9431 198.478C80.6839 198.598 80.4056 198.66 80.1242 198.662C79.8428 198.663 79.5639 198.604 79.3038 198.486Z" fill="#CCCCCC"/>
<path d="M55.3669 197.125L69.6062 167.334C69.8808 166.762 70.3522 166.331 70.917 166.137C71.4817 165.944 72.0937 166.003 72.6187 166.302L93.2869 178.096C93.8113 178.396 94.2054 178.911 94.3827 179.528C94.56 180.145 94.506 180.814 94.2326 181.388L79.9928 211.179C79.7183 211.752 79.247 212.182 78.6824 212.376C78.1177 212.57 77.5058 212.511 76.9808 212.212L56.3121 200.417C55.7878 200.117 55.3938 199.602 55.2166 198.985C55.0394 198.368 55.0935 197.699 55.3669 197.125Z" fill="#3F3D56"/>
<path d="M64.9164 183.513C64.6633 182.778 64.2564 182.118 63.7283 181.586C63.2002 181.053 62.5655 180.663 61.8749 180.446C61.1843 180.229 60.4568 180.192 59.7505 180.337C59.0443 180.481 58.3788 180.805 57.8071 181.28L44.1634 171.391L44.1405 180.687L57.0997 188.653C57.8151 189.549 58.7964 190.141 59.8715 190.326C60.9466 190.511 62.0469 190.276 62.9794 189.663C63.9118 189.049 64.6169 188.097 64.971 186.973C65.3252 185.848 65.3061 184.623 64.9164 183.513Z" fill="#FFB8B8"/>
<path d="M47.6665 185.606L36.5162 175.954C35.3099 175.512 34.22 174.756 33.3399 173.752C32.4597 172.748 31.8158 171.525 31.4633 170.189C31.1107 168.853 31.0602 167.444 31.3159 166.082C31.5716 164.72 32.126 163.446 32.9315 162.37L43.056 147.872C43.7595 146.932 44.749 146.3 45.8437 146.092C46.9383 145.884 48.0649 146.114 49.0175 146.739C49.9701 147.364 50.685 148.342 51.0314 149.496C51.3779 150.649 51.3328 151.901 50.9044 153.021L42.8934 167.338L54.6655 173.439C54.9392 173.581 55.1823 173.785 55.3786 174.037C55.575 174.289 55.7201 174.584 55.8045 174.902C55.8888 175.22 55.9105 175.554 55.868 175.882C55.8255 176.21 55.7198 176.524 55.558 176.804L50.8063 185.02C50.6457 185.298 50.4335 185.535 50.1836 185.717C49.9336 185.899 49.6514 186.022 49.3553 186.077C49.3436 186.079 49.3318 186.082 49.3201 186.084C49.0291 186.132 48.7321 186.114 48.4477 186.032C48.1632 185.949 47.8972 185.804 47.6661 185.605L47.6665 185.606Z" fill="#CCCCCC"/>
<path d="M50.4815 133.267C50.4333 133.113 50.418 132.949 50.4368 132.787C50.4557 132.625 50.5082 132.47 50.5903 132.334C50.6724 132.198 50.782 132.084 50.9106 132.001C51.0392 131.918 51.1835 131.869 51.3323 131.856C51.6371 131.874 51.9354 131.96 52.2091 132.107C52.4828 132.255 52.7263 132.461 52.9249 132.715C53.3321 133.228 53.8062 133.672 54.3319 134.035C54.8762 134.335 55.6148 134.292 55.925 133.72C56.2164 133.184 56.0166 132.465 55.8402 131.842C55.3913 130.255 55.1401 128.61 55.0934 126.95C55.043 125.098 55.2817 123.165 56.2205 121.72C57.4319 119.855 59.5976 119.147 61.6474 119.198C63.6973 119.25 65.7141 119.941 67.7442 120.378C68.4452 120.529 69.2695 120.607 69.7382 120.013C70.2367 119.382 70.0534 118.36 69.8417 117.508C69.2915 115.297 68.7078 113.01 67.429 111.224C66.0468 109.368 64.0725 108.154 61.9036 107.825C59.821 107.543 57.707 107.805 55.7353 108.59C52.523 109.696 49.6964 111.848 47.6336 114.757C45.5071 117.851 44.5883 121.738 45.0779 125.57C45.5564 128.908 47.175 131.923 49.6073 134.008L50.4815 133.267Z" fill="#2F2E41"/>
<path d="M193.005 291.752C190.011 290.327 187.361 288.162 185.264 285.426C183.168 282.691 181.681 279.46 180.923 275.99C180.165 272.519 180.155 268.903 180.894 265.428C181.634 261.952 183.102 258.712 185.184 255.963C182.771 257.889 180.76 260.353 179.284 263.193C177.809 266.033 176.904 269.183 176.628 272.434C176.352 275.686 176.712 278.964 177.684 282.052C178.657 285.14 180.219 287.966 182.267 290.344C184.316 292.721 186.804 294.596 189.566 295.842C192.328 297.089 195.301 297.68 198.288 297.575C201.275 297.47 204.207 296.673 206.891 295.235C209.574 293.797 211.946 291.752 213.851 289.236C210.88 291.609 207.393 293.089 203.735 293.531C200.078 293.972 196.378 293.359 193.005 291.752V291.752Z" fill="#3F3D56"/>
</g>
<defs>
<clipPath id="clip0_723_14355">
<rect width="387" height="298" fill="white"/>
</clipPath>
</defs>
</svg>
