<svg width="360" height="296" viewBox="0 0 360 296" fill="none" xmlns="http://www.w3.org/2000/svg">
<g clip-path="url(#clip0_723_14402)">
<path d="M359.519 18.3745H53.1898C53.062 18.3703 52.9407 18.3147 52.8518 18.2194C52.7628 18.1241 52.713 17.9967 52.713 17.864C52.713 17.7313 52.7628 17.6038 52.8518 17.5086C52.9407 17.4133 53.062 17.3577 53.1898 17.3535H359.519C359.646 17.3593 359.765 17.4157 359.853 17.5107C359.94 17.6058 359.989 17.7322 359.989 17.8637C359.989 17.9953 359.94 18.1217 359.853 18.2168C359.765 18.3118 359.646 18.3681 359.519 18.374V18.3745Z" fill="#CACACA"/>
<path d="M69.3123 5.61453C69.3123 8.71511 66.9428 11.2291 64.0197 11.2291C61.0965 11.2291 58.7271 8.71561 58.7271 5.61453C58.7271 2.51394 61.0965 0 64.0197 0C66.9428 0 69.3123 2.51344 69.3123 5.61453Z" fill="#3F3D56"/>
<path d="M87.5964 5.61453C87.5964 8.71511 85.227 11.2291 82.3038 11.2291C79.3806 11.2291 77.0112 8.71561 77.0112 5.61453C77.0112 2.51394 79.3806 0 82.3038 0C85.227 0 87.5964 2.51344 87.5964 5.61453Z" fill="#3F3D56"/>
<path d="M105.881 5.61453C105.881 8.71511 103.511 11.2291 100.588 11.2291C97.6647 11.2291 95.2953 8.71561 95.2953 5.61453C95.2953 2.51394 97.6647 0 100.588 0C103.511 0 105.881 2.51344 105.881 5.61453Z" fill="#3F3D56"/>
<path d="M348.562 1.39062H335.574C335.313 1.39063 335.063 1.49814 334.879 1.68951C334.694 1.88088 334.591 2.14044 334.591 2.41108C334.591 2.68172 334.694 2.94128 334.879 3.13265C335.063 3.32403 335.313 3.43154 335.574 3.43154H348.562C348.823 3.43154 349.073 3.32403 349.258 3.13265C349.442 2.94128 349.546 2.68172 349.546 2.41108C349.546 2.14044 349.442 1.88088 349.258 1.68951C349.073 1.49814 348.823 1.39063 348.562 1.39062Z" fill="#3F3D56"/>
<path d="M348.562 5.22266H335.574C335.313 5.22266 335.063 5.33017 334.879 5.52154C334.694 5.71291 334.591 5.97247 334.591 6.24311C334.591 6.51376 334.694 6.77331 334.879 6.96469C335.063 7.15606 335.313 7.26357 335.574 7.26357H348.562C348.823 7.26357 349.073 7.15606 349.258 6.96469C349.442 6.77331 349.546 6.51376 349.546 6.24311C349.546 5.97247 349.442 5.71291 349.258 5.52154C349.073 5.33017 348.823 5.22266 348.562 5.22266Z" fill="#3F3D56"/>
<path d="M348.562 9.04688H335.574C335.313 9.04688 335.063 9.15439 334.879 9.34576C334.694 9.53713 334.591 9.79669 334.591 10.0673C334.591 10.338 334.694 10.5975 334.879 10.7889C335.063 10.9803 335.313 11.0878 335.574 11.0878H348.562C348.823 11.0878 349.073 10.9803 349.258 10.7889C349.442 10.5975 349.546 10.338 349.546 10.0673C349.546 9.79669 349.442 9.53713 349.258 9.34576C349.073 9.15439 348.823 9.04688 348.562 9.04688Z" fill="#3F3D56"/>
<path d="M343.712 35.6094H64.6974C63.1525 35.6118 61.6714 36.2497 60.579 37.3832C59.4865 38.5168 58.8718 40.0536 58.8695 41.6567V42.6319C58.8718 44.2351 59.4865 45.7718 60.579 46.9054C61.6714 48.039 63.1525 48.6769 64.6974 48.6793H343.712C345.257 48.6769 346.738 48.039 347.83 46.9054C348.923 45.7718 349.537 44.2351 349.54 42.6319V41.6567C349.537 40.0536 348.923 38.5168 347.83 37.3832C346.738 36.2497 345.257 35.6118 343.712 35.6094Z" fill="#F0F0F0"/>
<path d="M98.3696 44.557H71.8101C71.221 44.548 70.659 44.2989 70.2454 43.8634C69.8319 43.428 69.6001 42.8412 69.6001 42.2298C69.6001 41.6185 69.8319 41.0317 70.2454 40.5962C70.659 40.1607 71.221 39.9116 71.8101 39.9026H98.3691C101.261 39.8609 101.29 44.5992 98.3691 44.5575L98.3696 44.557Z" fill="white"/>
<path d="M177.819 44.557H151.26C150.671 44.548 150.109 44.2989 149.695 43.8634C149.282 43.428 149.05 42.8412 149.05 42.2298C149.05 41.6185 149.282 41.0317 149.695 40.5962C150.109 40.1607 150.671 39.9116 151.26 39.9026H177.819C180.711 39.8609 180.74 44.5992 177.819 44.5575L177.819 44.557Z" fill="white"/>
<path d="M257.269 44.557H230.71C230.121 44.548 229.559 44.2989 229.145 43.8634C228.732 43.428 228.5 42.8412 228.5 42.2298C228.5 41.6185 228.732 41.0317 229.145 40.5962C229.559 40.1607 230.121 39.9116 230.71 39.9026H257.269C260.161 39.8609 260.19 44.5992 257.269 44.5575L257.269 44.557Z" fill="white"/>
<path d="M332.601 44.807H306.042C305.453 44.798 304.891 44.5489 304.477 44.1134C304.064 43.678 303.832 43.0912 303.832 42.4798C303.832 41.8685 304.064 41.2817 304.477 40.8462C304.891 40.4107 305.453 40.1616 306.042 40.1526H332.601C335.493 40.1109 335.522 44.8492 332.601 44.8075L332.601 44.807Z" fill="#50EFC0"/>
<path d="M291.164 35.6094V48.6793H290.195V35.6094H291.164Z" fill="white"/>
<path d="M100.058 170.844C99.4314 170.891 98.8021 170.795 98.2149 170.562C97.6277 170.329 97.0968 169.966 96.6597 169.497C96.2225 169.028 95.8897 168.466 95.6847 167.849C95.4797 167.232 95.4074 166.577 95.4731 165.928L69.743 135.292L77.7306 130.246L100.51 161.948C101.553 162.135 102.493 162.712 103.153 163.57C103.813 164.428 104.146 165.508 104.091 166.604C104.035 167.7 103.594 168.737 102.851 169.519C102.108 170.3 101.114 170.772 100.058 170.844Z" fill="#FFB6B6"/>
<path d="M62.0412 122.257C62.0412 122.257 60.0249 123.343 63.044 127.232C65.4604 130.346 75.9294 145.242 80.2681 148.489C79.9797 149.207 79.9298 150.005 80.1262 150.756C80.3226 151.506 80.7541 152.168 81.3528 152.636L88.8235 144.093C88.5798 141.491 86.8978 141.516 85.9391 141.769L83.1923 135.171L73.0682 118.078L63.4853 121.446L62.0412 122.257Z" fill="#50EFC0"/>
<path d="M310.527 248.999H100.789C99.1154 248.997 97.511 248.306 96.3276 247.078C95.1442 245.85 94.4785 244.185 94.4766 242.449V76.0891C94.4785 74.3525 95.1442 72.6877 96.3276 71.4597C97.511 70.2318 99.1154 69.5411 100.789 69.5391H310.527C312.201 69.5411 313.805 70.2318 314.988 71.4597C316.172 72.6877 316.837 74.3525 316.839 76.0891V242.449C316.837 244.185 316.172 245.85 314.988 247.078C313.805 248.306 312.201 248.997 310.527 248.999Z" fill="white"/>
<path d="M310.527 248.999H100.789C99.1154 248.997 97.511 248.306 96.3276 247.078C95.1442 245.85 94.4785 244.185 94.4766 242.449V76.0891C94.4785 74.3525 95.1442 72.6877 96.3276 71.4597C97.511 70.2318 99.1154 69.5411 100.789 69.5391H310.527C312.201 69.5411 313.805 70.2318 314.988 71.4597C316.172 72.6877 316.837 74.3525 316.839 76.0891V242.449C316.837 244.185 316.172 245.85 314.988 247.078C313.805 248.306 312.201 248.997 310.527 248.999ZM100.789 70.5444C99.3723 70.546 98.014 71.1307 97.0123 72.1702C96.0105 73.2097 95.447 74.619 95.4455 76.0891V242.449C95.4472 243.919 96.0107 245.328 97.0124 246.368C98.0141 247.407 99.3723 247.992 100.789 247.993H310.527C311.944 247.992 313.302 247.407 314.304 246.368C315.305 245.328 315.869 243.919 315.87 242.449V76.0891C315.869 74.619 315.305 73.2097 314.304 72.1702C313.302 71.1307 311.944 70.546 310.527 70.5444H100.789Z" fill="#F0F0F0"/>
<path d="M204.781 108.043C203.668 106.133 202.349 104.094 200.283 103.47C197.892 102.748 195.435 104.183 193.351 105.599C187.119 109.833 181.117 114.421 175.374 119.343L175.38 119.417L188.795 118.457C192.026 118.226 195.368 117.963 198.223 116.377C199.306 115.776 200.362 114.971 201.59 114.916C203.116 114.846 204.445 115.951 205.491 117.106C211.673 123.938 213.462 134.385 220.399 140.387C216.025 129.194 210.802 118.379 204.78 108.043H204.781Z" fill="#F2F2F2"/>
<path d="M242.784 165.987C242.101 165.091 241.821 164.881 241.146 163.977C235.655 156.608 230.494 148.99 225.662 141.122C222.381 135.779 219.262 130.333 216.306 124.785C214.898 122.147 213.529 119.488 212.199 116.809C211.167 114.732 210.158 112.642 209.171 110.54C208.89 109.939 208.614 109.336 208.343 108.731C207.7 107.31 207.07 105.881 206.393 104.479C205.621 102.88 204.682 101.205 203.265 100.13C202.621 99.6218 201.85 99.314 201.043 99.2432C199.906 99.2499 198.793 99.5808 197.825 100.2C190.499 104.196 183.66 109.089 177.456 114.775C171.243 120.437 165.689 126.834 160.908 133.835C160.762 134.052 160.416 133.845 160.564 133.627C161.145 132.774 161.738 131.93 162.342 131.096C169.857 120.725 179.071 111.806 189.564 104.748C191.329 103.561 193.128 102.43 194.959 101.354C195.883 100.811 196.81 100.276 197.753 99.7735C198.656 99.2236 199.67 98.8976 200.715 98.8209C204.31 98.7631 206.171 102.987 207.449 105.828C207.851 106.723 208.257 107.615 208.669 108.504C210.224 111.878 211.839 115.222 213.513 118.536C214.547 120.581 215.603 122.615 216.682 124.637C220.04 130.933 223.608 137.101 227.388 143.141C232.395 151.143 237.362 158.212 243.066 165.695C243.223 165.902 242.942 166.197 242.784 165.987Z" fill="#E4E4E4"/>
<path d="M177.101 112.69C176.892 112.449 176.684 112.207 176.474 111.965C174.817 110.063 173.038 108.183 170.763 107.093C169.677 106.556 168.492 106.271 167.29 106.258C166.05 106.293 164.827 106.57 163.686 107.073C163.144 107.301 162.611 107.552 162.089 107.825C161.492 108.137 160.905 108.47 160.321 108.806C159.225 109.435 158.143 110.092 157.075 110.776C154.951 112.139 152.893 113.605 150.902 115.176C149.87 115.99 148.859 116.831 147.869 117.699C146.949 118.505 146.046 119.333 145.163 120.183C144.974 120.363 144.692 120.07 144.881 119.889C145.114 119.665 145.35 119.441 145.585 119.22C146.25 118.596 146.926 117.984 147.612 117.384C148.864 116.288 150.148 115.235 151.464 114.223C153.512 112.65 155.63 111.183 157.818 109.823C158.911 109.144 160.02 108.493 161.143 107.871C161.482 107.683 161.826 107.5 162.173 107.326C162.961 106.914 163.779 106.568 164.621 106.292C165.812 105.892 167.073 105.764 168.317 105.915C169.518 106.097 170.676 106.512 171.728 107.14C173.963 108.436 175.696 110.44 177.383 112.396C177.553 112.594 177.273 112.889 177.101 112.69H177.101Z" fill="#E4E4E4"/>
<path d="M222.891 132.4L228.246 130.368L230.905 129.359C231.764 129 232.64 128.686 233.53 128.42C234.308 128.19 235.134 128.201 235.906 128.452C236.594 128.716 237.224 129.122 237.759 129.644C238.305 130.165 238.813 130.728 239.279 131.328C239.858 132.05 240.428 132.779 241.001 133.506C243.365 136.507 245.714 139.52 248.047 142.547C250.381 145.573 252.699 148.612 255.001 151.664C257.309 154.724 259.601 157.797 261.877 160.882L262.713 162.016C262.867 162.225 263.213 162.019 263.058 161.807C260.765 158.691 258.456 155.588 256.131 152.497C253.8 149.399 251.453 146.314 249.091 143.242C246.728 140.17 244.349 137.112 241.955 134.067C241.358 133.308 240.76 132.55 240.162 131.793C239.657 131.155 239.158 130.509 238.604 129.915C237.588 128.824 236.317 127.86 234.797 127.834C233.907 127.866 233.029 128.066 232.208 128.425C231.313 128.76 230.42 129.103 229.525 129.443L224.133 131.489L222.785 132.001C222.545 132.091 222.649 132.492 222.891 132.4Z" fill="#E4E4E4"/>
<path d="M170.058 109.486C168.682 108.783 167.15 108.472 165.62 108.585C164.09 108.699 162.616 109.233 161.351 110.132C166.12 110.986 170.838 112.129 175.48 113.554C173.552 112.382 172.045 110.546 170.058 109.486V109.486Z" fill="#F2F2F2"/>
<path d="M161.323 110.127L160.8 110.569C160.977 110.415 161.161 110.269 161.351 110.131L161.323 110.127Z" fill="#F2F2F2"/>
<path d="M237.557 132.42C237.088 131.703 236.435 131.138 235.672 130.787L234.935 130.817C240.539 141.092 248.107 150.07 257.175 157.2L237.557 132.42Z" fill="#F2F2F2"/>
<path d="M168.35 166.508C168.029 166.958 167.687 167.392 167.324 167.809C164.392 168.322 161.472 168.908 158.567 169.566C157.792 169.741 157.038 169.917 156.306 170.094L156.323 170.04C156.078 168.071 156.349 166.07 157.109 164.248C157.156 164.137 157.205 164.024 157.255 163.914C157.754 162.802 158.432 161.785 159.259 160.908C160.586 159.613 162.082 158.518 163.704 157.658C166.721 155.914 169.866 154.373 171.311 151.23C171.912 153.848 171.958 156.569 171.446 159.206C170.935 161.843 169.879 164.334 168.35 166.507V166.508Z" fill="#E6E6E6"/>
<path d="M151.984 158.13C153.398 156.656 154.599 154.978 155.549 153.147C156.497 151.326 157.192 149.375 157.614 147.352C158.042 145.299 158.172 143.192 158.001 141.099C157.645 136.836 156.094 132.775 153.538 129.418C153.382 129.213 153.222 129.012 153.058 128.814C152.876 128.593 152.572 128.917 152.753 129.136C155.36 132.325 157.008 136.236 157.494 140.387C157.847 143.559 157.507 146.772 156.499 149.789C155.492 152.806 153.842 155.549 151.673 157.813C151.475 158.02 151.786 158.336 151.984 158.13Z" fill="#CCCCCC"/>
<path d="M153.716 129.798C153.54 129.731 153.367 129.654 153.198 129.568L153.173 129.61L153.716 129.798Z" fill="#E6E6E6"/>
<path d="M153.861 123.988C153.63 123.631 153.296 123.359 152.906 123.213C152.516 123.066 152.092 123.052 151.694 123.173C151.296 123.294 150.946 123.543 150.693 123.884C150.441 124.225 150.3 124.641 150.291 125.071C150.254 125.753 150.401 126.432 150.714 127.032C151.255 128.135 152.126 129.026 153.197 129.57C153.748 128.751 154.154 127.837 154.397 126.871C154.517 126.379 154.531 125.866 154.439 125.368C154.346 124.869 154.149 124.398 153.861 123.988Z" fill="#CCCCCC"/>
<path d="M161.419 129.568C161.721 128.269 161.749 126.918 161.5 125.607C161.25 124.296 160.73 123.057 159.975 121.975C159.842 124.625 157.18 126.335 156.221 128.795C155.927 129.565 155.804 130.393 155.861 131.219C155.918 132.044 156.153 132.846 156.549 133.565L156.712 135.573C157.868 134.985 158.888 134.143 159.7 133.107C160.513 132.07 161.099 130.863 161.418 129.568H161.419Z" fill="#CCCCCC"/>
<path d="M166.217 137.045C164.898 139.318 161.774 139.526 159.811 141.227C159.202 141.763 158.718 142.433 158.393 143.189C158.069 143.946 157.912 144.768 157.936 145.595L157.168 147.447C158.456 147.502 159.74 147.262 160.929 146.744C162.117 146.226 163.181 145.443 164.045 144.45C164.909 143.457 165.552 142.278 165.927 140.999C166.302 139.719 166.402 138.369 166.217 137.045Z" fill="#CCCCCC"/>
<path d="M153.937 142.098C152.937 142.943 152.129 144.006 151.571 145.211C151.012 146.417 150.716 147.735 150.704 149.073C150.691 150.41 150.963 151.734 151.5 152.951C152.036 154.167 152.824 155.246 153.808 156.11L154.452 154.208C155.009 153.615 155.43 152.9 155.685 152.116C155.939 151.331 156.021 150.498 155.922 149.676C155.588 147.046 153.425 144.698 153.937 142.098Z" fill="#CCCCCC"/>
<path d="M154.081 167.776C153.48 169.397 152.321 170.728 150.829 171.514C150.752 171.559 150.676 171.601 150.599 171.643C150.536 171.678 150.471 171.712 150.405 171.743C149.881 171.865 149.353 171.969 148.827 172.086L148.822 172.087C148.037 172.317 147.297 172.54 146.602 172.758C146.224 172.875 145.847 172.994 145.471 173.116C145.423 173.13 145.377 173.145 145.329 173.161C145.267 173.181 145.206 173.201 145.145 173.22C145.144 173.217 145.143 173.215 145.143 173.212V173.209C144.862 172.561 144.592 171.908 144.333 171.251C143.311 168.712 142.499 166.086 141.906 163.403C141.168 160.145 140.963 156.781 141.3 153.452C141.559 151.159 142.164 148.923 143.094 146.825C143.228 146.526 143.368 146.23 143.515 145.938C143.559 145.845 143.605 145.754 143.653 145.664V145.662C143.658 145.652 143.663 145.643 143.669 145.634L143.69 145.593V145.591C143.818 145.346 143.95 145.104 144.088 144.866C144.772 143.667 145.581 142.55 146.5 141.535C148.055 139.789 149.975 138.437 152.112 137.582H152.114C152.216 137.54 152.32 137.501 152.425 137.463C152.385 137.579 152.345 137.694 152.307 137.81C151.785 139.373 151.385 140.977 151.109 142.606C151.088 142.732 151.068 142.858 151.048 142.984C150.429 146.915 150.519 150.93 151.313 154.826C151.315 154.837 151.318 154.847 151.319 154.858C151.496 155.721 151.709 156.574 151.957 157.418C152.011 157.605 152.067 157.792 152.125 157.978C152.272 158.451 152.431 158.921 152.602 159.387C153.596 162.105 154.973 165.02 154.081 167.776Z" fill="#F0F0F0"/>
<path d="M152.488 137.593C152.426 137.666 152.366 137.739 152.307 137.811C151.041 139.341 149.943 141.011 149.031 142.792C148.985 142.881 148.94 142.972 148.895 143.063C147.65 145.548 146.784 148.219 146.327 150.98V150.983L146.314 151.061V151.064C146.209 151.71 146.129 152.359 146.073 153.012C145.939 154.239 145.993 155.48 146.232 156.69C146.455 157.681 146.897 158.604 147.525 159.386C147.585 159.466 147.648 159.544 147.714 159.621C147.765 159.682 147.818 159.744 147.872 159.803C148.377 160.37 148.934 160.904 149.406 161.507C149.622 161.778 149.814 162.069 149.981 162.376C150.244 162.89 150.4 163.455 150.438 164.036C150.476 164.616 150.395 165.198 150.201 165.744C149.685 167.078 148.916 168.29 147.94 169.308C146.958 170.454 145.922 171.628 145.471 173.117C145.423 173.131 145.377 173.146 145.329 173.162C145.267 173.182 145.206 173.202 145.145 173.221C145.16 173.258 145.177 173.296 145.193 173.333C145.176 173.32 145.163 173.304 145.154 173.284C145.145 173.265 145.141 173.244 145.141 173.222C145.141 173.219 145.142 173.216 145.143 173.213V173.21C145.143 173.199 145.144 173.189 145.147 173.178C145.26 172.766 145.414 172.366 145.607 171.987C145.607 171.984 145.607 171.984 145.609 171.982C146.64 169.949 148.595 168.512 149.6 166.441C149.908 165.889 150.09 165.271 150.132 164.635C150.174 163.999 150.075 163.362 149.843 162.771C149.684 162.424 149.486 162.097 149.255 161.797C148.803 161.196 148.25 160.668 147.751 160.116C147.627 159.98 147.508 159.841 147.394 159.699C146.77 158.954 146.308 158.08 146.038 157.135C145.74 155.941 145.64 154.703 145.743 153.475C145.798 152.586 145.901 151.701 146.051 150.824V150.822C146.896 145.927 148.989 141.355 152.112 137.583H152.114C152.171 137.51 152.231 137.437 152.292 137.366C152.417 137.219 152.613 137.447 152.488 137.593Z" fill="white"/>
<path d="M146.137 151.162C145.226 150.941 144.42 150.39 143.863 149.609C143.307 148.828 143.036 147.867 143.099 146.898C143.102 146.859 143.12 146.822 143.148 146.796C143.177 146.77 143.214 146.756 143.252 146.758C143.29 146.76 143.326 146.776 143.352 146.805C143.378 146.833 143.393 146.871 143.393 146.911C143.333 147.813 143.585 148.708 144.105 149.434C144.624 150.161 145.377 150.67 146.227 150.871C146.412 150.915 146.321 151.206 146.137 151.162Z" fill="white"/>
<path d="M147.446 159.436C149.081 158.404 150.281 156.771 150.807 154.861C150.859 154.672 151.139 154.766 151.087 154.955C150.537 156.941 149.285 158.638 147.581 159.708C147.419 159.81 147.285 159.537 147.446 159.437V159.436Z" fill="white"/>
<path d="M148.948 142.755C149.283 142.917 149.652 142.99 150.022 142.967C150.391 142.944 150.749 142.827 151.064 142.625C151.225 142.521 151.358 142.793 151.198 142.897C150.849 143.118 150.454 143.247 150.046 143.273C149.638 143.299 149.23 143.221 148.858 143.045C148.821 143.032 148.791 143.005 148.774 142.969C148.756 142.933 148.752 142.892 148.763 142.853C148.775 142.815 148.801 142.783 148.836 142.765C148.87 142.746 148.911 142.743 148.948 142.755Z" fill="white"/>
<path d="M171.793 149.582C171.693 149.649 171.597 149.718 171.497 149.787L171.495 149.788C170.172 150.708 168.923 151.737 167.76 152.867L167.759 152.868C167.667 152.955 167.576 153.043 167.487 153.131C164.72 155.878 162.467 159.132 160.841 162.729L160.828 162.756C160.182 164.193 159.643 165.678 159.214 167.2C158.997 167.971 158.794 168.774 158.566 169.566C157.792 169.742 157.038 169.918 156.306 170.095C155.376 170.318 154.48 170.542 153.619 170.767C153.246 170.862 152.879 170.958 152.519 171.055C151.839 171.36 151.131 171.591 150.406 171.745C149.881 171.867 149.353 171.971 148.827 172.087L148.822 172.088C148.037 172.318 147.297 172.542 146.602 172.76C146.224 172.876 145.847 172.995 145.471 173.117C145.423 173.131 145.377 173.147 145.329 173.162C145.419 172.772 145.511 172.378 145.607 171.987C145.607 171.984 145.607 171.984 145.609 171.982C146.432 168.449 147.656 165.031 149.255 161.797C149.303 161.701 149.352 161.602 149.406 161.507C150.066 160.233 150.814 159.011 151.644 157.85C151.745 157.705 151.849 157.562 151.955 157.421L151.957 157.419C152.402 156.825 152.872 156.25 153.366 155.692C153.496 155.545 153.629 155.4 153.764 155.257C154.197 154.794 154.649 154.352 155.12 153.931C156.278 152.897 157.54 151.996 158.885 151.243C158.894 151.238 158.904 151.232 158.913 151.228C162.795 149.065 167.299 148.213 171.473 149.481C171.58 149.515 171.685 149.547 171.792 149.582H171.793Z" fill="#F0F0F0"/>
<path d="M146.602 172.759C147.319 172.462 148.063 172.238 148.822 172.088C148.037 172.317 147.297 172.541 146.602 172.759Z" fill="white"/>
<path d="M171.769 149.725C171.678 149.744 171.587 149.764 171.497 149.786C169.599 150.218 167.752 150.866 165.991 151.718C165.902 151.76 165.813 151.803 165.727 151.848C163.29 153.055 161.049 154.647 159.082 156.566L159.08 156.567C159.061 156.584 159.043 156.603 159.026 156.622L159.024 156.623C158.566 157.072 158.125 157.54 157.701 158.027C156.882 158.924 156.204 159.948 155.692 161.064C155.296 161.995 155.114 163.008 155.16 164.025C155.164 164.125 155.169 164.228 155.177 164.33C155.182 164.411 155.188 164.493 155.196 164.575C155.305 165.691 155.541 166.822 155.386 167.947C155.299 168.519 155.096 169.066 154.792 169.552C154.487 170.037 154.088 170.451 153.619 170.767C153.246 170.862 152.879 170.958 152.519 171.055C152.588 171.024 152.657 170.991 152.724 170.955C153.29 170.706 153.793 170.327 154.196 169.845C154.599 169.364 154.89 168.793 155.048 168.177C155.28 167.044 155.037 165.879 154.918 164.749C154.899 164.57 154.885 164.39 154.875 164.209C154.874 164.201 154.874 164.193 154.874 164.185C154.809 163.204 154.947 162.219 155.28 161.298C155.735 160.159 156.374 159.108 157.168 158.191C157.663 157.594 158.187 157.022 158.737 156.478C158.808 156.405 158.88 156.335 158.952 156.267C160.963 154.334 163.247 152.731 165.725 151.514C167.561 150.612 169.489 149.93 171.473 149.481C171.562 149.461 171.654 149.441 171.744 149.421C171.929 149.382 171.953 149.686 171.769 149.725Z" fill="white"/>
<path d="M158.825 156.592C158.225 155.846 157.901 154.903 157.91 153.931C157.919 152.96 158.26 152.024 158.873 151.29C158.997 151.141 159.225 151.335 159.1 151.483C158.528 152.166 158.211 153.038 158.204 153.943C158.198 154.847 158.503 155.725 159.065 156.416C159.188 156.566 158.946 156.741 158.825 156.592Z" fill="white"/>
<path d="M155.069 164.014C156.973 164.212 158.879 163.657 160.407 162.461C160.558 162.342 160.728 162.592 160.576 162.71C158.985 163.952 157 164.525 155.019 164.315C154.83 164.295 154.881 163.995 155.069 164.014Z" fill="white"/>
<path d="M165.946 151.635C166.12 151.974 166.372 152.263 166.68 152.475C166.989 152.688 167.343 152.818 167.711 152.853C167.9 152.871 167.849 153.172 167.661 153.154C167.254 153.113 166.863 152.969 166.522 152.735C166.181 152.501 165.901 152.184 165.705 151.811C165.684 151.778 165.676 151.737 165.682 151.697C165.689 151.658 165.71 151.622 165.741 151.598C165.773 151.575 165.812 151.566 165.851 151.573C165.889 151.58 165.924 151.602 165.946 151.635Z" fill="white"/>
<path d="M187.259 160.257C186.834 162.226 185.815 164.004 184.349 165.331C184.243 165.427 184.135 165.521 184.024 165.613C183.753 165.638 183.482 165.663 183.215 165.691C182.993 165.712 182.774 165.734 182.556 165.756L182.518 165.76L182.491 165.513L182.379 164.514C181.951 163.789 181.686 162.973 181.603 162.128C181.52 161.282 181.622 160.428 181.9 159.628C182.347 158.56 182.939 157.564 183.659 156.671C184.601 155.373 185.517 154.089 185.55 152.508C186.597 153.912 187.242 155.595 187.409 157.362C187.507 158.329 187.456 159.306 187.259 160.257H187.259Z" fill="#E6E6E6"/>
<path d="M192.077 156.309C189.952 157.912 190.025 161.247 188.522 163.482C188.065 164.157 187.468 164.717 186.777 165.124C186.588 165.236 186.393 165.336 186.193 165.424C185.456 165.483 184.733 165.546 184.024 165.613C183.753 165.638 183.482 165.663 183.215 165.691C182.993 165.712 182.774 165.734 182.556 165.756C182.555 165.674 182.555 165.589 182.557 165.507C182.602 163.301 183.384 161.18 184.769 159.506C184.834 159.427 184.901 159.35 184.969 159.273C185.671 158.495 186.496 157.849 187.409 157.362C188.847 156.586 190.458 156.223 192.077 156.309Z" fill="#F2F2F2"/>
<path d="M183.466 164.918L183.3 165.431L183.215 165.691C182.993 165.712 182.774 165.734 182.556 165.756L182.518 165.76C182.275 165.786 182.036 165.81 181.798 165.837C181.735 165.761 181.673 165.685 181.612 165.607C180.098 163.704 179.371 161.256 179.59 158.798C179.81 156.34 180.958 154.072 182.784 152.49C182.517 153.938 183.053 155.298 183.66 156.671C184.106 157.582 184.477 158.53 184.769 159.506C184.833 159.749 184.882 159.996 184.918 160.245C185.029 161.087 184.957 161.944 184.705 162.753C184.454 163.562 184.031 164.302 183.466 164.918Z" fill="#F2F2F2"/>
<path d="M225.553 165.9C225.511 165.97 225.466 166.038 225.421 166.106L225.098 166.07L224.537 166.01L224.468 166.003L224.352 165.77L224.136 165.335C223.611 164.914 223.185 164.375 222.888 163.76C222.591 163.144 222.432 162.466 222.422 161.778C222.464 160.835 222.638 159.903 222.936 159.012C223.29 157.748 223.629 156.504 223.217 155.297C224.399 156.05 225.352 157.133 225.968 158.422C226.309 159.125 226.541 159.879 226.655 160.657C226.905 162.485 226.514 164.346 225.553 165.9Z" fill="#E6E6E6"/>
<path d="M228.504 162.723C228.337 163.389 228.027 164.008 227.598 164.533C227.169 165.059 226.632 165.477 226.026 165.758L225.876 165.936L225.708 166.137L225.421 166.105L225.098 166.07L224.537 166.009C224.511 165.934 224.487 165.858 224.463 165.781C223.97 164.164 224.005 162.423 224.561 160.828C224.588 160.749 224.617 160.671 224.648 160.594C224.965 159.797 225.411 159.061 225.968 158.421C226.842 157.404 227.961 156.649 229.211 156.232C228.046 158.078 229.023 160.583 228.504 162.723Z" fill="#F2F2F2"/>
<path d="M225.091 165.848L225.098 166.069L224.538 166.009L224.468 166.002C224.01 165.954 223.553 165.909 223.1 165.867C222.998 165.788 222.898 165.706 222.8 165.619C221.49 164.49 220.603 162.919 220.295 161.18C219.988 159.442 220.278 157.646 221.116 156.107C221.314 157.283 222.097 158.153 222.936 159.011C223.526 159.569 224.069 160.177 224.561 160.829C224.676 160.994 224.783 161.167 224.879 161.345C225.195 161.95 225.377 162.621 225.411 163.309C225.444 163.996 225.328 164.682 225.071 165.317L225.091 165.848Z" fill="#F2F2F2"/>
<path d="M263.773 174.694C263.764 174.725 263.745 174.752 263.721 174.771C263.696 174.79 263.665 174.8 263.635 174.8C263.62 174.8 263.605 174.797 263.591 174.792C250.683 170.558 237.403 167.659 223.945 166.138L223.513 166.088C223.35 166.07 223.189 166.054 223.028 166.035L222.185 165.945C222.15 165.942 222.115 165.937 222.081 165.934C221.391 165.862 220.705 165.794 220.023 165.731C208.636 164.665 197.182 164.582 185.782 165.484C184.885 165.556 184.005 165.633 183.142 165.715C182.81 165.745 182.481 165.776 182.156 165.809C181.886 165.835 181.619 165.862 181.354 165.889L181.307 165.894C181.013 165.925 180.721 165.956 180.43 165.987C179.245 166.115 178.093 166.251 176.974 166.393C155.236 169.16 141.66 174.733 141.524 174.789C141.489 174.802 141.451 174.8 141.417 174.783C141.383 174.767 141.356 174.738 141.343 174.702C141.329 174.666 141.329 174.626 141.343 174.59C141.357 174.554 141.383 174.525 141.417 174.509C141.552 174.454 155.156 168.868 176.928 166.097C178.018 165.958 179.11 165.829 180.204 165.707C180.561 165.668 180.917 165.63 181.274 165.593C181.301 165.59 181.329 165.588 181.355 165.585C182.082 165.51 182.81 165.438 183.537 165.371C184.521 165.28 185.506 165.196 186.493 165.12C196.231 164.371 206.007 164.346 215.748 165.045C217.024 165.137 218.299 165.241 219.573 165.358C220.351 165.427 221.128 165.504 221.906 165.584L222.073 165.602C222.388 165.633 222.701 165.668 223.016 165.702C223.249 165.727 223.479 165.752 223.711 165.779C223.874 165.797 224.037 165.815 224.198 165.835C237.599 167.381 250.823 170.285 263.678 174.506C263.696 174.512 263.713 174.521 263.728 174.534C263.743 174.547 263.755 174.562 263.764 174.58C263.772 174.597 263.778 174.616 263.779 174.636C263.781 174.656 263.779 174.676 263.773 174.694Z" fill="#CCCCCC"/>
<path d="M179.972 136.137C180.313 137.421 181.08 138.539 182.139 139.293C182.548 139.582 183.032 139.859 183.172 140.352C183.246 140.666 183.2 140.997 183.045 141.278C182.891 141.555 182.702 141.81 182.485 142.037L182.465 142.114C181.417 141.536 180.539 140.675 179.923 139.622C179.624 139.092 179.47 138.487 179.479 137.872C179.487 137.258 179.658 136.658 179.972 136.137Z" fill="#F2F2F2"/>
<path d="M231.145 141.729C230.846 141.199 230.692 140.594 230.701 139.98C230.71 139.365 230.881 138.765 231.195 138.244C231.535 139.528 232.303 140.646 233.361 141.4C233.771 141.689 234.255 141.967 234.395 142.459C234.469 142.773 234.423 143.105 234.268 143.385C234.113 143.662 233.925 143.917 233.708 144.144L233.688 144.222C232.64 143.644 231.761 142.782 231.145 141.729Z" fill="#F2F2F2"/>
<path d="M209.234 168.68C208.935 168.15 208.781 167.545 208.79 166.931C208.798 166.316 208.969 165.716 209.284 165.195C209.624 166.48 210.392 167.598 211.451 168.351C211.859 168.64 212.344 168.917 212.484 169.41C212.557 169.724 212.512 170.056 212.357 170.336C212.202 170.613 212.014 170.868 211.797 171.095L211.777 171.172C210.729 170.594 209.85 169.733 209.234 168.68Z" fill="#F2F2F2"/>
<path d="M247.325 100.845C247.325 105.086 244.011 108.524 239.925 108.524C235.837 108.524 232.524 105.086 232.524 100.845C232.524 96.6039 235.838 93.166 239.925 93.166C244.012 93.166 247.325 96.6044 247.325 100.845Z" fill="#FF6584"/>
<path d="M253.279 94.9533C249.693 94.4506 245.598 96.4618 244.668 100.091C244.434 99.4461 244.008 98.895 243.452 98.5175C242.896 98.1399 242.239 97.9555 241.575 97.9909C240.912 98.0262 240.276 98.2795 239.76 98.7142C239.245 99.1488 238.875 99.7423 238.706 100.409L239.116 100.714C246.802 102.439 254.758 102.402 262.429 100.605C259.934 97.8839 256.866 95.4565 253.279 94.9533Z" fill="#F0F0F0"/>
<path d="M237.898 105.192C234.311 104.688 230.217 106.7 229.287 110.329C229.053 109.684 228.627 109.133 228.071 108.755C227.515 108.378 226.857 108.193 226.194 108.229C225.53 108.264 224.895 108.517 224.379 108.952C223.863 109.387 223.494 109.98 223.324 110.647L223.735 110.952C231.421 112.677 239.377 112.639 247.047 110.842C244.553 108.122 241.485 105.695 237.898 105.192Z" fill="#F0F0F0"/>
<path d="M252.613 163.728C252.437 163.66 252.264 163.582 252.096 163.494L252.071 163.535L252.613 163.728Z" fill="#E6E6E6"/>
<path d="M174.554 104.388C174.254 103.858 174.101 103.253 174.109 102.638C174.118 102.023 174.289 101.423 174.603 100.902C174.944 102.187 175.711 103.305 176.77 104.058C177.179 104.347 177.664 104.625 177.804 105.117C177.877 105.432 177.832 105.763 177.677 106.043C177.522 106.32 177.333 106.575 177.116 106.802L177.097 106.88C176.048 106.302 175.17 105.441 174.554 104.387V104.388Z" fill="#F2F2F2"/>
<path d="M263.635 195.428C263.62 195.428 263.605 195.426 263.591 195.421C233.298 185.458 201.188 182.944 169.797 188.076C166.863 188.564 163.94 189.124 161.032 189.756C159.376 190.117 157.725 190.502 156.08 190.913C155.705 191.005 155.338 191.098 154.978 191.191C154.432 191.331 153.879 191.476 153.286 191.637C152.623 191.814 151.949 192 151.284 192.19L151.276 192.192C150.154 192.51 149.035 192.843 147.921 193.191C147.883 193.202 147.846 193.213 147.808 193.225L147.731 193.249C147.686 193.264 147.641 193.278 147.597 193.291L147.594 193.292L147.476 193.33L147.064 193.46C143.502 194.599 141.544 195.41 141.525 195.418C141.507 195.426 141.488 195.431 141.468 195.432C141.448 195.432 141.428 195.429 141.41 195.421C141.392 195.414 141.375 195.402 141.361 195.388C141.347 195.373 141.336 195.356 141.328 195.337C141.321 195.318 141.318 195.298 141.318 195.277C141.319 195.257 141.323 195.236 141.331 195.218C141.34 195.199 141.352 195.183 141.366 195.169C141.381 195.155 141.398 195.145 141.417 195.138C141.436 195.13 143.404 194.316 146.978 193.172L147.392 193.041L147.502 193.006L147.513 193.002L147.646 192.961L147.724 192.936C147.763 192.924 147.801 192.912 147.84 192.901C148.217 192.783 148.594 192.667 148.972 192.554C149.696 192.335 150.445 192.115 151.197 191.902L151.204 191.9C151.872 191.71 152.548 191.523 153.213 191.345C153.807 191.185 154.361 191.039 154.908 190.899C155.27 190.806 155.638 190.713 156.012 190.62C157.661 190.209 159.314 189.822 160.973 189.461C163.886 188.828 166.813 188.267 169.751 187.778C201.187 182.639 233.343 185.157 263.679 195.134C263.711 195.145 263.739 195.168 263.757 195.198C263.775 195.229 263.782 195.265 263.777 195.3C263.772 195.336 263.755 195.368 263.729 195.391C263.703 195.415 263.669 195.428 263.635 195.428Z" fill="#CCCCCC"/>
<path d="M169.43 177.296C171.209 176.542 179.64 175.546 181.556 175.693C181.611 175.693 181.665 175.671 181.705 175.631C181.745 175.591 181.769 175.537 181.772 175.479C181.775 175.422 181.757 175.365 181.721 175.321C181.686 175.277 181.635 175.249 181.58 175.242C179.584 175.088 171.08 176.111 169.228 176.895C168.969 177.005 169.172 177.405 169.43 177.296Z" fill="#CCCCCC"/>
<path d="M145.027 183.066C146.824 182.352 148.757 182.079 150.673 182.268C150.729 182.269 150.782 182.248 150.824 182.21C150.865 182.171 150.89 182.117 150.894 182.059C150.899 182.002 150.881 181.945 150.846 181.9C150.811 181.855 150.761 181.826 150.706 181.818C148.712 181.625 146.701 181.914 144.833 182.661C144.572 182.765 144.767 183.169 145.027 183.066Z" fill="#CCCCCC"/>
<path d="M215.469 175.276C217.365 174.933 219.312 175.05 221.157 175.617C221.212 175.629 221.268 175.619 221.316 175.589C221.363 175.559 221.398 175.511 221.413 175.456C221.428 175.4 221.421 175.341 221.395 175.29C221.37 175.239 221.326 175.2 221.273 175.181C219.352 174.595 217.325 174.479 215.353 174.841C215.078 174.891 215.195 175.326 215.469 175.276Z" fill="#CCCCCC"/>
<path d="M258.062 151.888L260.21 150.123C260.018 148.644 259.48 147.236 258.644 146.021C258.49 148.67 255.815 150.357 254.835 152.808C254.536 153.575 254.406 154.403 254.456 155.229C254.506 156.055 254.735 156.859 255.125 157.581L255.272 159.591C256.433 159.013 257.459 158.18 258.28 157.15C259.101 156.121 259.697 154.919 260.027 153.627C260.205 152.901 260.294 152.154 260.293 151.404C259.212 151.705 258.062 151.888 258.062 151.888Z" fill="#50EFC0"/>
<path d="M252.993 169.634C252.136 169.838 251.388 169.957 251.388 169.957L252.713 168.869C252.379 167.986 252.286 167.025 252.445 166.092C251.438 166.928 250.622 167.984 250.054 169.185C249.485 170.385 249.178 171.701 249.156 173.039C249.133 174.376 249.394 175.703 249.921 176.924C250.447 178.145 251.227 179.23 252.204 180.103L252.863 178.207C253.425 177.619 253.852 176.908 254.113 176.125C254.373 175.343 254.461 174.51 254.369 173.687C254.202 172.286 253.517 170.96 252.993 169.634Z" fill="#50EFC0"/>
<path d="M252.086 147.56C251.634 147.971 251.207 148.411 250.807 148.876L251.492 147.237C251.235 147.134 250.96 147.091 250.685 147.11C250.41 147.129 250.143 147.209 249.901 147.346C249.625 147.53 249.395 147.778 249.227 148.071C249.059 148.364 248.959 148.693 248.935 149.032C248.893 149.714 249.035 150.394 249.343 150.998C249.875 152.105 250.739 153.003 251.806 153.556C252.363 152.742 252.777 151.832 253.027 150.868C253.151 150.377 253.17 149.864 253.081 149.365C252.992 148.866 252.799 148.393 252.514 147.98C252.391 147.82 252.246 147.679 252.086 147.56Z" fill="#50EFC0"/>
<path d="M262.706 165.59L264.697 163.955C264.861 163.027 264.884 162.079 264.765 161.145C263.427 163.407 260.302 163.588 258.326 165.272C257.713 165.802 257.223 166.468 256.892 167.222C256.562 167.975 256.399 168.796 256.415 169.623L255.633 171.468C256.919 171.525 258.202 171.292 259.394 170.785C260.585 170.278 261.656 169.509 262.533 168.531C263.363 167.584 263.991 166.467 264.377 165.251C263.494 165.465 262.706 165.59 262.706 165.59Z" fill="#50EFC0"/>
<path d="M251.814 179.73C251.434 180.239 251.031 180.729 250.606 181.2L251.068 181.346C251.441 180.926 251.797 180.491 252.135 180.041C252.192 179.965 252.248 179.888 252.305 179.81C252.921 178.968 253.477 178.081 253.968 177.154C254.915 175.372 255.618 173.462 256.057 171.479C256.185 170.9 256.29 170.316 256.371 169.727C256.387 169.617 256.401 169.504 256.416 169.392C256.452 169.086 256.482 168.781 256.507 168.475C256.597 167.361 256.6 166.241 256.516 165.126C256.373 163.22 255.989 161.342 255.375 159.539C255.332 159.411 255.288 159.283 255.241 159.157C255.214 159.081 255.187 159.006 255.159 158.931C254.42 156.947 253.406 155.087 252.148 153.408C252.102 153.347 252.056 153.286 252.009 153.226C251.899 153.083 251.787 152.941 251.673 152.801C251.655 152.777 251.631 152.757 251.604 152.744C251.576 152.731 251.547 152.725 251.517 152.727C251.487 152.728 251.458 152.737 251.432 152.753C251.406 152.768 251.384 152.79 251.367 152.816C251.331 152.858 251.311 152.912 251.311 152.967C251.31 153.023 251.329 153.078 251.364 153.12C251.456 153.233 251.548 153.347 251.634 153.463C251.743 153.601 251.847 153.74 251.949 153.882C254.191 156.95 255.595 160.587 256.015 164.411C256.267 166.769 256.13 169.153 255.61 171.463H255.609C255.298 172.854 254.854 174.21 254.281 175.508C254.167 175.767 254.047 176.024 253.923 176.277C253.601 176.939 253.245 177.582 252.858 178.204C252.533 178.729 252.185 179.238 251.814 179.73Z" fill="#3F3D56"/>
<path d="M247.973 181.901C249.869 181.558 251.816 181.675 253.661 182.242C253.716 182.256 253.774 182.247 253.823 182.218C253.872 182.188 253.908 182.14 253.923 182.083C253.938 182.026 253.932 181.966 253.904 181.914C253.877 181.862 253.832 181.824 253.777 181.806C251.856 181.22 249.83 181.104 247.858 181.466C247.581 181.516 247.699 181.952 247.973 181.901Z" fill="#CCCCCC"/>
<path d="M94.961 217.33V242.449C94.9633 244.053 95.5781 245.589 96.6705 246.723C97.763 247.856 99.244 248.494 100.789 248.497H310.527C312.072 248.494 313.553 247.856 314.645 246.723C315.738 245.589 316.353 244.053 316.355 242.449V217.33H94.961Z" fill="#F0F0F0"/>
<path d="M73.5759 102.425V92.2422C73.5771 90.4502 73.238 88.6756 72.5782 87.0196C71.9183 85.3636 70.9506 83.8587 69.7303 82.5908C68.5099 81.3229 67.0609 80.3168 65.4658 79.63C63.8708 78.9431 62.1609 78.589 60.434 78.5879C56.9463 78.5856 53.6006 80.021 51.1328 82.5783C48.665 85.1357 47.2774 88.6056 47.2751 92.2246V92.2422C44.9575 97.254 46.408 99.6367 47.2751 102.425C47.2758 102.911 47.462 103.377 47.793 103.72C48.124 104.064 48.5728 104.257 49.0409 104.257H71.8091C72.2774 104.257 72.7263 104.064 73.0574 103.72C73.3885 103.377 73.5748 102.911 73.5754 102.425H73.5759Z" fill="#2F2E41"/>
<path d="M57.9907 143.702L57.3817 146.713L56.8643 157.818L77.6628 154.896L79.2595 142.037L77.0519 138.273L57.9907 143.702Z" fill="#FFB6B6"/>
<path d="M74.5807 93.3821C74.5807 99.0233 70.1736 103.596 64.7371 103.596C59.3006 103.596 54.8936 99.0233 54.8936 93.3821C54.8936 87.7409 59.3006 83.168 64.7371 83.168C70.1736 83.168 74.5807 87.7409 74.5807 93.3821Z" fill="#FFB7B7"/>
<path d="M49.9071 129.862L47.201 122.565C47.1996 119.51 48.1958 116.545 50.0272 114.153C51.8587 111.761 54.4171 110.084 57.2853 109.395L57.3226 109.386L59.2687 106.664L67.1768 107.485L68.6263 110.559L74.3564 114.099L80.8732 122.018C81.8302 122.679 82.6458 123.538 83.2694 124.541C83.8929 125.544 84.3111 126.669 84.4979 127.846C85.2468 132.811 81.8964 137.778 81.4981 138.348L80.4716 144.348L56.733 147.877L56.5514 147.902L49.9071 129.862Z" fill="#50EFC0"/>
<path d="M54.4353 96.0597C54.5249 96.0446 54.6141 96.0255 54.7032 96.011C56.2389 95.7285 57.7741 95.4505 59.3045 95.1629L59.4455 91.5627L61.3005 94.7879C65.5312 96.2447 69.4891 95.4213 73.2131 93.6041C74.4411 92.9991 75.6326 92.3173 76.7811 91.5627C76.4683 89.5712 75.7305 87.6776 74.6216 86.0201C73.5126 84.3627 72.0606 82.9835 70.3718 81.9834C70.2346 81.9034 70.0953 81.8271 69.9542 81.7547C69.9529 81.7547 69.9517 81.7542 69.9508 81.7532C69.9499 81.7523 69.9494 81.751 69.9494 81.7497C69.7098 81.6323 69.4672 81.5218 69.2217 81.4184C67.3101 80.6432 65.2258 80.4468 63.2109 80.8522C61.1961 81.2575 59.3334 82.2479 57.8395 83.7082C54.8345 86.6856 53.4824 91.6019 54.4353 96.0597Z" fill="#2F2E41"/>
<path d="M105.316 283.311L111.08 280.899L104.86 256.682L96.3528 260.24L105.316 283.311Z" fill="#FFB6B6"/>
<path d="M102.74 280.957L111.633 276.582L113.206 280.633L124.281 283.218C124.828 283.346 125.321 283.651 125.689 284.09C126.057 284.53 126.28 285.079 126.325 285.659C126.37 286.239 126.236 286.819 125.941 287.314C125.646 287.809 125.207 288.193 124.687 288.41L113.839 292.948L110.413 289.723L111.239 294.035L107.149 295.746L102.74 280.957Z" fill="#2F2E41"/>
<path d="M47.8032 282.673L54.0182 282.673L56.9748 257.799L47.8022 257.799L47.8032 282.673Z" fill="#FFB6B6"/>
<path d="M44.4236 231.633V231.567L46.7577 227.393L44.3742 221.959L44.2047 188.936C43.2658 165.071 56.6085 153.599 56.7132 153.486L57.0029 153.175L78.4011 152.631C78.4011 152.631 115.286 264.989 108.526 266.092L98.8366 271.621L82.0388 224.393L81.0234 221.691C79.2038 221.343 74.4736 202.295 74.4736 202.295C73.6811 201.318 73.7217 198.663 73.7217 198.663L67.5261 191.913L61.8159 223.024L63.2281 232.304L62.0591 235.495L57.3967 272.479L57.3434 272.904H44.6353L44.4236 231.633Z" fill="#2F2E41"/>
<path d="M45.6982 279.493L55.5229 278.885V283.253L64.8631 289.946C65.3246 290.276 65.6723 290.751 65.8552 291.301C66.0382 291.851 66.0469 292.448 65.8801 293.003C65.7133 293.559 65.3797 294.044 64.928 294.389C64.4763 294.734 63.9303 294.92 63.3695 294.92H51.6729L49.6571 290.599L48.8699 294.92H44.46L45.6982 279.493Z" fill="#2F2E41"/>
<path d="M100.297 159.709C99.6724 159.78 99.04 159.708 98.4448 159.498C97.8495 159.289 97.3058 158.946 96.8519 158.495C96.3981 158.043 96.0452 157.494 95.818 156.886C95.5908 156.278 95.4949 155.625 95.537 154.974L75.8766 150.068L61.5097 134.205L69.3084 128.852L79.4673 141.934L100.427 150.8C101.476 150.946 102.436 151.486 103.127 152.318C103.818 153.15 104.19 154.216 104.174 155.314C104.158 156.412 103.755 157.465 103.04 158.275C102.326 159.085 101.35 159.595 100.297 159.709Z" fill="#FFB6B6"/>
<path d="M51.4341 118.231C51.4341 118.231 49.458 119.394 52.6157 123.163C55.1436 126.18 68.0517 143.909 72.5048 146.984C72.2426 147.713 72.2216 148.512 72.445 149.254C72.6684 149.997 73.1235 150.641 73.7387 151.086L80.8955 142.257C80.5573 139.667 78.8777 139.757 77.9282 140.047L74.5497 133.241L64.2096 116.875L52.8473 117.363L51.4341 118.231Z" fill="#50EFC0"/>
<path d="M338.156 234.822C338.156 247.521 328.235 257.815 315.996 257.815C303.758 257.815 293.837 247.521 293.837 234.822C293.837 222.123 303.758 211.828 315.996 211.828C328.235 211.828 338.156 222.123 338.156 234.822Z" fill="#50EFC0"/>
<path d="M312.973 246.79C312.591 246.79 312.213 246.697 311.871 246.52C311.529 246.342 311.231 246.084 311.002 245.767L304.956 237.402C304.757 237.134 304.612 236.827 304.528 236.5C304.444 236.173 304.423 235.832 304.468 235.496C304.512 235.161 304.62 234.838 304.785 234.546C304.95 234.254 305.17 233.999 305.431 233.796C305.692 233.593 305.989 233.445 306.306 233.363C306.622 233.28 306.951 233.263 307.274 233.313C307.597 233.363 307.907 233.479 308.186 233.654C308.465 233.829 308.708 234.06 308.9 234.334L312.855 239.805L323.013 223.994C323.376 223.43 323.94 223.038 324.581 222.905C325.222 222.772 325.888 222.909 326.432 223.285C326.975 223.661 327.353 224.246 327.481 224.912C327.609 225.577 327.478 226.268 327.115 226.832L315.025 245.651C314.806 245.991 314.512 246.272 314.167 246.47C313.822 246.668 313.436 246.777 313.042 246.789L312.973 246.79Z" fill="white"/>
<path d="M98.0528 287.224L94.3177 280.996L93.5716 284.555C93.4408 285.178 93.31 285.812 93.1889 286.44C92.128 285.5 90.9992 284.63 89.8947 283.796C86.5035 281.242 83.114 278.685 79.726 276.125L80.787 282.509C81.441 286.44 82.1241 290.452 83.7421 294.046C83.9214 294.453 84.1152 294.855 84.3235 295.247H100.087C100.214 294.883 100.302 294.505 100.349 294.121C100.353 294.096 100.355 294.071 100.354 294.046C100.601 291.608 99.3027 289.31 98.0528 287.224Z" fill="#F0F0F0"/>
<path d="M134.164 295.846L0.576494 296C0.423534 296 0.276838 295.937 0.168679 295.825C0.0605192 295.713 -0.000244141 295.56 -0.000244141 295.402C-0.000244141 295.243 0.0605192 295.091 0.168679 294.979C0.276838 294.866 0.423534 294.803 0.576494 294.803L134.164 294.648C134.317 294.648 134.463 294.712 134.572 294.824C134.68 294.936 134.741 295.088 134.741 295.247C134.741 295.406 134.68 295.558 134.572 295.67C134.463 295.783 134.317 295.846 134.164 295.846Z" fill="#CACACA"/>
</g>
<defs>
<clipPath id="clip0_723_14402">
<rect width="360" height="296" fill="white"/>
</clipPath>
</defs>
</svg>
