<svg width="146" height="30" viewBox="0 0 146 30" fill="none" xmlns="http://www.w3.org/2000/svg">
<path d="M40.1635 3.23113C38.5313 1.79242 36.537 0.815523 34.3836 0.815523C31.7357 0.815523 29.1963 1.93154 27.3239 3.91805C25.4515 5.90457 24.3997 8.59886 24.3997 11.4082C24.3997 14.2176 25.4515 16.9119 27.3239 18.8984C29.1963 20.8849 31.7357 22.0009 34.3836 22.0009C36.537 22.0009 38.5313 21.0262 40.1635 19.5853V21.1128C40.1635 21.3484 40.2517 21.5743 40.4087 21.7408C40.5657 21.9074 40.7786 22.0009 41.0006 22.0009H46.1338C46.3558 22.0009 46.5687 21.9074 46.7257 21.7408C46.8827 21.5743 46.9709 21.3484 46.9709 21.1128V1.69473C46.9709 1.45919 46.8827 1.23331 46.7257 1.06676C46.5687 0.900213 46.3558 0.806641 46.1338 0.806641H41.0006C40.7786 0.806641 40.5657 0.900213 40.4087 1.06676C40.2517 1.23331 40.1635 1.45919 40.1635 1.69473V3.23113ZM35.7208 16.1973C34.8607 16.1972 34.0187 15.9351 33.2949 15.4421C32.5711 14.9491 31.996 14.2459 31.6379 13.4162C31.2798 12.5864 31.1539 11.6651 31.275 10.7616C31.3961 9.85813 31.7593 9.01057 32.3212 8.3197C32.8832 7.62884 33.6203 7.12373 34.445 6.86443C35.2697 6.60513 36.1472 6.60255 36.9732 6.857C37.7992 7.11145 38.539 7.61223 39.1046 8.29978C39.6701 8.98734 40.0377 9.83275 40.1635 10.7355V12.132C40.005 13.262 39.4693 14.294 38.6539 15.0402C37.8385 15.7863 36.7976 16.1969 35.7208 16.1973V16.1973Z" fill="black"/>
<path d="M68.5611 1.75442L68.5046 1.7078C67.0007 0.49546 65.1371 -0.105069 63.2517 0.0150889C61.3663 0.135247 59.5839 0.968135 58.2276 2.36276L57.535 3.08434V1.69447C57.535 1.45894 57.4468 1.23305 57.2898 1.06651C57.1328 0.899956 56.9199 0.806383 56.6979 0.806383H51.5647C51.3427 0.806383 51.1297 0.899956 50.9728 1.06651C50.8158 1.23305 50.7276 1.45894 50.7276 1.69447V21.1037C50.7276 21.3392 50.8158 21.5651 50.9728 21.7317C51.1297 21.8982 51.3427 21.9918 51.5647 21.9918H56.6979C56.9199 21.9918 57.1328 21.8982 57.2898 21.7317C57.4468 21.5651 57.535 21.3392 57.535 21.1037V8.13092C57.5475 8.24415 57.5601 8.35293 57.5747 8.46616C58.3867 7.24282 59.4748 6.19266 60.9355 6.00172C62.8733 5.74861 64.7023 7.39824 64.7023 9.49413V21.1037C64.7023 21.3392 64.7904 21.5651 64.9474 21.7317C65.1044 21.8982 65.3173 21.9918 65.5393 21.9918H70.6788C70.9008 21.9918 71.1137 21.8982 71.2707 21.7317C71.4277 21.5651 71.5159 21.3392 71.5159 21.1037C71.5159 18.4883 71.5159 12.1873 71.5159 8.14201C71.5157 6.90862 71.2493 5.69164 70.7372 4.58441C70.225 3.47718 69.4806 2.50911 68.5611 1.75442V1.75442Z" fill="black"/>
<path d="M110.502 0.646484C104.214 0.646484 99.118 5.38889 99.118 11.2392C99.118 17.0895 104.214 21.8319 110.502 21.8319C116.211 21.8319 119.291 18.899 120.622 16.6366C120.701 16.502 120.744 16.3476 120.748 16.1893C120.751 16.031 120.715 15.8746 120.642 15.7363C120.57 15.5979 120.464 15.4826 120.335 15.4024C120.206 15.3222 120.06 15.2799 119.91 15.28H115.133C114.79 15.2813 114.448 15.3359 114.12 15.4421C112.17 16.0726 111.691 15.9594 110.51 15.8861C109.822 15.8446 109.15 15.65 108.537 15.315C107.924 14.9799 107.384 14.5119 106.953 13.9412C106.907 13.8751 106.879 13.7966 106.872 13.7147C106.866 13.6327 106.881 13.5504 106.916 13.4769C106.951 13.4035 107.004 13.3418 107.07 13.2987C107.136 13.2556 107.212 13.2328 107.29 13.2329H120.978C121.182 13.2347 121.381 13.1569 121.535 13.0141C121.689 12.8713 121.789 12.6735 121.815 12.4581C121.864 12.0539 121.889 11.6468 121.89 11.2392C121.886 5.38889 116.788 0.646484 110.502 0.646484ZM107.081 9.56514C107.007 9.56467 106.935 9.54381 106.872 9.50464C106.809 9.46548 106.756 9.40939 106.72 9.34196C106.684 9.27454 106.664 9.19815 106.664 9.12043C106.665 9.04271 106.684 8.96638 106.721 8.89907C107.107 8.19896 107.659 7.61827 108.322 7.21473C108.985 6.81119 109.736 6.59887 110.501 6.59887C111.265 6.59887 112.017 6.81119 112.68 7.21473C113.343 7.61827 113.895 8.19896 114.281 8.89907C114.318 8.96621 114.337 9.04234 114.337 9.11987C114.338 9.19741 114.319 9.27365 114.282 9.34101C114.246 9.40838 114.194 9.4645 114.131 9.50382C114.068 9.54315 113.997 9.56429 113.923 9.56514H107.081Z" fill="black"/>
<path d="M139.192 1.69473V3.23113C137.562 1.79242 135.568 0.815523 133.412 0.815523C130.764 0.815523 128.225 1.93154 126.353 3.91805C124.48 5.90457 123.428 8.59886 123.428 11.4082C123.428 14.2176 124.48 16.9119 126.353 18.8984C128.225 20.8849 130.764 22.0009 133.412 22.0009C135.568 22.0009 137.562 21.0262 139.192 19.5853V21.1128C139.192 21.3484 139.28 21.5743 139.437 21.7408C139.594 21.9074 139.807 22.0009 140.029 22.0009H145.163C145.385 22.0009 145.597 21.9074 145.754 21.7408C145.911 21.5743 146 21.3484 146 21.1128V1.69473C146 1.45919 145.911 1.23331 145.754 1.06676C145.597 0.900213 145.385 0.806641 145.163 0.806641H140.029C139.807 0.806641 139.594 0.900213 139.437 1.06676C139.28 1.23331 139.192 1.45919 139.192 1.69473ZM134.75 16.1973C133.889 16.1972 133.047 15.9351 132.324 15.4421C131.6 14.9491 131.025 14.2459 130.667 13.4162C130.309 12.5864 130.183 11.6651 130.304 10.7616C130.425 9.85813 130.788 9.01057 131.35 8.3197C131.912 7.62884 132.649 7.12373 133.474 6.86443C134.298 6.60513 135.176 6.60255 136.002 6.857C136.828 7.11145 137.568 7.61223 138.133 8.29978C138.699 8.98734 139.066 9.83275 139.192 10.7355V12.132C139.035 13.2624 138.499 14.295 137.683 15.0413C136.868 15.7876 135.827 16.1978 134.75 16.1973V16.1973Z" fill="black"/>
<path d="M12.604 0.806641C10.4423 0.806641 8.44171 1.7902 6.80736 3.23779V1.69473C6.80736 1.45919 6.71917 1.23331 6.56219 1.06676C6.40522 0.900213 6.19231 0.806641 5.9703 0.806641H0.837056C0.615055 0.806641 0.402146 0.900213 0.245168 1.06676C0.088189 1.23331 0 1.45919 0 1.69473V27.5537C0 27.7892 0.088189 28.0151 0.245168 28.1817C0.402146 28.3482 0.615055 28.4418 0.837056 28.4418H5.9703C6.19231 28.4418 6.40522 28.3482 6.56219 28.1817C6.71917 28.0151 6.80736 27.7892 6.80736 27.5537V19.5609C8.44171 21.0107 10.4423 22.0031 12.604 22.0031C15.2519 22.0031 17.7914 20.8871 19.6637 18.9006C21.5361 16.9141 22.588 14.2198 22.588 11.4104C22.588 8.60108 21.5361 5.90679 19.6637 3.92028C17.7914 1.93376 15.2519 0.817746 12.604 0.817746V0.806641ZM11.2668 16.1262C10.1652 16.1257 9.10219 15.6957 8.27996 14.9179C7.45773 14.1401 6.93364 13.0688 6.80736 11.9078V10.7977C6.9098 9.88583 7.25842 9.02484 7.81125 8.31829C8.36409 7.61173 9.09758 7.08972 9.92348 6.81508C10.7494 6.54044 11.6325 6.52486 12.4665 6.77023C13.3006 7.01559 14.05 7.51144 14.6247 8.1981C15.1994 8.88477 15.5748 9.733 15.7057 10.6407C15.8367 11.5484 15.7176 12.4769 15.3628 13.3145C15.0081 14.1521 14.4327 14.8631 13.706 15.362C12.9794 15.8608 12.1323 16.1262 11.2668 16.1262V16.1262Z" fill="black"/>
<path d="M90.2393 3.74844C88.5149 2.02555 86.3072 0.806641 83.9007 0.806641C81.2528 0.806641 78.7133 1.92265 76.8409 3.90917C74.9686 5.89569 73.9167 8.58999 73.9167 11.3993C73.9167 14.2087 74.9686 16.903 76.8409 18.8895C78.7133 20.876 81.2528 21.992 83.9007 21.992C86.3072 21.992 88.5045 20.7731 90.2393 19.0502V20.7976C90.2393 21.7686 89.8757 22.6998 89.2286 23.3864C88.5814 24.073 87.7037 24.4587 86.7885 24.4587H80.6027C80.0583 24.4594 79.5258 24.6276 79.0697 24.9428C78.6136 25.2581 78.2535 25.7069 78.0329 26.2349L76.7145 29.3765C76.6863 29.4441 76.6744 29.5182 76.68 29.5919C76.6856 29.6656 76.7085 29.7367 76.7465 29.7987C76.7845 29.8607 76.8366 29.9116 76.8979 29.9468C76.9592 29.982 77.0278 30.0005 77.0975 30.0004H86.7885C92.3759 30.0004 96.9232 26.73 96.9232 20.802V1.70806C96.9232 1.47252 96.835 1.24663 96.678 1.08008C96.521 0.913534 96.3081 0.819968 96.0861 0.819968H91.0763C90.8543 0.819968 90.6414 0.913534 90.4845 1.08008C90.3275 1.24663 90.2393 1.47252 90.2393 1.70806V3.74844ZM85.2421 16.1306C84.3539 16.1302 83.4859 15.8504 82.7477 15.3266C82.0094 14.8028 81.4342 14.0585 81.0946 13.1878C80.755 12.3172 80.6664 11.3592 80.8399 10.4352C81.0134 9.51106 81.4413 8.66229 82.0694 7.99617C82.6975 7.33005 83.4977 6.87649 84.3688 6.69282C85.2399 6.50916 86.1427 6.60365 86.9632 6.96433C87.7837 7.32502 88.4849 7.93571 88.9783 8.7192C89.4716 9.50269 89.735 10.4238 89.735 11.366C89.735 11.9919 89.6187 12.6117 89.3929 13.1899C89.1671 13.7681 88.8361 14.2935 88.4189 14.7359C88.0017 15.1784 87.5063 15.5293 86.9613 15.7686C86.4162 16.0079 85.832 16.1309 85.2421 16.1306Z" fill="black"/>
</svg>
