<svg width="29" height="37" viewBox="0 0 29 37" fill="none" xmlns="http://www.w3.org/2000/svg">
<path d="M16.1819 0.5C13.4065 0.5 10.8381 1.78128 8.73976 3.66703V1.65691C8.73976 1.35007 8.62654 1.05582 8.425 0.838858C8.22346 0.621896 7.95011 0.5 7.66509 0.5H1.07467C0.789651 0.5 0.516303 0.621896 0.314763 0.838858C0.113223 1.05582 0 1.35007 0 1.65691V35.3431C0 35.6499 0.113223 35.9442 0.314763 36.1612C0.516303 36.3781 0.789651 36.5 1.07467 36.5H7.66509C7.95011 36.5 8.22346 36.3781 8.425 36.1612C8.62654 35.9442 8.73976 35.6499 8.73976 35.3431V24.9309C10.8381 26.8196 13.4065 28.1124 16.1819 28.1124C19.5814 28.1124 22.8418 26.6586 25.2457 24.0708C27.6495 21.483 29 17.9732 29 14.3135C29 10.6537 27.6495 7.14391 25.2457 4.5561C22.8418 1.96828 19.5814 0.514467 16.1819 0.514467V0.5ZM14.4651 20.4566C13.0508 20.456 11.686 19.8958 10.6304 18.8826C9.57476 17.8694 8.90189 16.4738 8.73976 14.9613V13.5152C8.87128 12.3274 9.31886 11.2058 10.0286 10.2853C10.7384 9.36492 11.6801 8.6849 12.7405 8.32713C13.8008 7.96935 14.9346 7.94906 16.0054 8.26869C17.0762 8.58833 18.0384 9.23426 18.7762 10.1288C19.514 11.0233 19.996 12.1283 20.1641 13.3107C20.3322 14.4932 20.1793 15.7028 19.7239 16.7939C19.2684 17.885 18.5297 18.8112 17.5968 19.461C16.6638 20.1108 15.5763 20.4566 14.4651 20.4566Z" fill="black"/>
</svg>
