<svg width="19" height="33" viewBox="0 0 19 33" fill="none" xmlns="http://www.w3.org/2000/svg">
<path fill-rule="evenodd" clip-rule="evenodd" d="M5.11505 9.31092C5.11505 10.3695 4.19387 11.2276 3.05752 11.2276C1.92118 11.2276 1 10.3695 1 9.31092C1 4.74526 4.68255 1 9.6412 1C14.2283 1 18 4.25547 18 8.54902C18 11.7259 15.8371 14.4081 13.8985 16.8661C12.5624 18.5601 11.6986 19.6552 11.6986 22.0833C11.6986 23.1419 10.7774 24 9.6411 24C8.50476 24 7.58358 23.1419 7.58358 22.0833C7.58358 18.4131 8.76279 16.9181 10.5872 14.605C11.8641 12.986 13.885 10.6111 13.885 8.54902C13.885 6.34355 11.9683 4.8334 9.6412 4.8334C6.92425 4.8333 5.11505 6.84132 5.11505 9.31092Z" stroke="#F9F8FE" stroke-width="2" stroke-miterlimit="22.9256" stroke-linecap="round" stroke-linejoin="round"/>
<path d="M11.0951 30.6153C11.8986 29.8548 11.8986 28.6218 11.0951 27.8612C10.2916 27.1007 8.98885 27.1007 8.18534 27.8612C7.38184 28.6218 7.38184 29.8548 8.18534 30.6153C8.98885 31.3759 10.2916 31.3759 11.0951 30.6153Z" stroke="#F9F8FE" stroke-width="2" stroke-miterlimit="22.9256" stroke-linecap="round" stroke-linejoin="round"/>
</svg>
