<svg width="30" height="31" viewBox="0 0 30 31" fill="none" xmlns="http://www.w3.org/2000/svg">
<g clip-path="url(#clip0_723_14198)">
<path d="M22.1286 29.7483C21.8924 29.7483 21.6512 29.7174 21.4122 29.6528L2.08174 24.3037C0.590534 23.8787 -0.298236 22.2848 0.0917881 20.7451L2.21678 12.3246C2.34679 11.8078 2.85812 11.494 3.36053 11.6323C3.86065 11.7667 4.16186 12.2962 4.03071 12.8142L1.90549 21.2361C1.77434 21.7552 2.07304 22.2912 2.57316 22.4333L21.8924 27.7798C22.3886 27.9153 22.9011 27.6105 23.0311 27.1003L23.691 24.3489C23.8162 23.8297 24.3236 23.5145 24.8261 23.6412C25.3287 23.7704 25.6349 24.2947 25.5111 24.8139L24.8487 27.5783C24.5148 28.8867 23.3749 29.7483 22.1286 29.7483Z" fill="#F9F8FE"/>
<path d="M27.1875 21.9994H7.81193C6.26076 21.9994 4.99936 20.6959 4.99936 19.093V4.23835C4.99936 2.63548 6.26076 1.33203 7.81193 1.33203H27.1875C28.7386 1.33203 30 2.63548 30 4.23835V19.093C30 20.6959 28.7386 21.9994 27.1875 21.9994ZM7.81193 3.26958C7.29441 3.26958 6.87441 3.70359 6.87441 4.23835V19.093C6.87441 19.6278 7.29441 20.0618 7.81193 20.0618H27.1875C27.705 20.0618 28.125 19.6278 28.125 19.093V4.23835C28.125 3.70359 27.705 3.26958 27.1875 3.26958H7.81193Z" fill="#F9F8FE"/>
<path d="M11.2496 10.374C9.87077 10.374 8.74945 9.21529 8.74945 7.79051C8.74945 6.36573 9.87077 5.20703 11.2496 5.20703C12.6284 5.20703 13.7495 6.36573 13.7495 7.79051C13.7495 9.21529 12.6284 10.374 11.2496 10.374ZM11.2496 7.14458C10.9044 7.14458 10.6245 7.43408 10.6245 7.79051C10.6245 8.14694 10.9044 8.43643 11.2496 8.43643C11.5945 8.43643 11.8745 8.14694 11.8745 7.79051C11.8745 7.43408 11.5945 7.14458 11.2496 7.14458Z" fill="#50EFC0"/>
<path d="M5.96183 20.6801C5.72196 20.6801 5.48185 20.5857 5.29943 20.396C4.93321 20.0176 4.93321 19.4038 5.29943 19.0254L10.9495 13.187C11.8046 12.3033 13.1958 12.3033 14.0496 13.187L15.5609 14.7487L20.2034 8.99021C20.6184 8.47602 21.2272 8.17896 21.8736 8.17517C22.5685 8.1352 23.1311 8.46183 23.5498 8.96964L29.7725 16.4717C30.1099 16.8773 30.0637 17.4897 29.6711 17.8383C29.2774 18.1872 28.6862 18.1394 28.3486 17.7338L22.1236 10.2291C22.0409 10.1269 21.9398 10.1321 21.8835 10.1139C21.8299 10.1139 21.726 10.1307 21.6436 10.2315L16.3435 16.8064C16.1746 17.0155 15.9285 17.1422 15.666 17.1538C15.3984 17.1692 15.1459 17.0632 14.9608 16.871L12.7234 14.5588C12.5645 14.3946 12.4334 14.3946 12.2745 14.5588L6.62446 20.396C6.44181 20.5857 6.20193 20.6801 5.96183 20.6801Z" fill="#F9F8FE"/>
</g>
<defs>
<clipPath id="clip0_723_14198">
<rect width="30" height="31" fill="white"/>
</clipPath>
</defs>
</svg>
