<svg width="463" height="611" viewBox="0 0 463 611" fill="none" xmlns="http://www.w3.org/2000/svg">
<g clip-path="url(#clip0_733_14254)">
<path d="M225 109.5C225 169.975 175.975 219 115.5 219C55.0253 219 6 169.975 6 109.5C6 49.0253 55.0253 0 115.5 0C175.975 0 225 49.0253 225 109.5Z" fill="black"/>
</g>
<g clip-path="url(#clip1_733_14254)">
<path d="M444.88 580H292.12C287.085 580 283 576.208 283 571.534V467.466C283 462.792 287.085 459 292.12 459H444.88C449.915 459 454 462.792 454 467.466V571.534C454 576.208 449.915 580 444.88 580Z" fill="black"/>
</g>
<g clip-path="url(#clip2_733_14254)">
<path d="M340.06 516.179C334.672 516.179 331.965 514.591 329.346 513.055C326.864 511.599 324.519 510.223 319.754 510.223C314.989 510.223 312.644 511.599 310.162 513.055C307.544 514.591 304.836 516.179 299.449 516.179C294.062 516.179 291.356 514.591 288.736 513.055C286.255 511.599 283.91 510.223 279.145 510.223C274.381 510.223 272.036 511.599 269.555 513.055C266.937 514.591 264.23 516.179 258.844 516.179C253.457 516.179 250.751 514.591 248.132 513.055C245.65 511.599 243.306 510.223 238.542 510.223C233.778 510.223 231.432 511.599 228.952 513.055C226.333 514.591 223.627 516.179 218.24 516.179C212.854 516.179 210.149 514.591 207.53 513.055C205.048 511.599 202.705 510.223 197.94 510.223C197.691 510.223 197.452 510.145 197.275 510.005C197.099 509.866 197 509.676 197 509.479C197 509.281 197.099 509.092 197.275 508.952C197.452 508.813 197.691 508.734 197.94 508.734C203.326 508.734 206.032 510.323 208.651 511.858C211.133 513.315 213.476 514.69 218.24 514.69C223.004 514.69 225.35 513.315 227.831 511.858C230.449 510.323 233.155 508.734 238.542 508.734C243.929 508.734 246.634 510.323 249.253 511.858C251.735 513.315 254.079 514.69 258.844 514.69C263.608 514.69 265.953 513.315 268.434 511.858C271.052 510.323 273.759 508.734 279.145 508.734C284.532 508.734 287.238 510.323 289.857 511.858C292.339 513.315 294.684 514.69 299.449 514.69C304.214 514.69 306.559 513.315 309.041 511.858C311.659 510.323 314.367 508.734 319.754 508.734C325.142 508.734 327.848 510.323 330.467 511.858C332.95 513.315 335.295 514.69 340.06 514.69C340.309 514.69 340.548 514.769 340.725 514.908C340.901 515.048 341 515.237 341 515.435C341 515.632 340.901 515.822 340.725 515.961C340.548 516.101 340.309 516.179 340.06 516.179Z" fill="#FFBF23"/>
<path d="M340.06 528.048C334.672 528.048 331.965 526.46 329.346 524.925C326.864 523.468 324.519 522.093 319.754 522.093C314.989 522.093 312.644 523.468 310.162 524.925C307.544 526.46 304.836 528.048 299.449 528.048C294.062 528.048 291.356 526.46 288.736 524.925C286.255 523.468 283.91 522.093 279.145 522.093C274.381 522.093 272.036 523.468 269.555 524.925C266.937 526.46 264.23 528.048 258.844 528.048C253.457 528.048 250.751 526.46 248.132 524.925C245.65 523.468 243.306 522.093 238.542 522.093C233.778 522.093 231.432 523.468 228.952 524.925C226.333 526.46 223.627 528.048 218.24 528.048C212.854 528.048 210.149 526.46 207.53 524.925C205.048 523.468 202.705 522.093 197.94 522.093C197.691 522.093 197.452 522.014 197.275 521.874C197.099 521.735 197 521.545 197 521.348C197 521.151 197.099 520.961 197.275 520.822C197.452 520.682 197.691 520.604 197.94 520.604C203.326 520.604 206.032 522.192 208.651 523.727C211.133 525.184 213.476 526.559 218.24 526.559C223.004 526.559 225.35 525.184 227.831 523.727C230.449 522.192 233.155 520.604 238.542 520.604C243.929 520.604 246.634 522.192 249.253 523.727C251.735 525.184 254.079 526.559 258.844 526.559C263.608 526.559 265.953 525.184 268.434 523.727C271.052 522.192 273.759 520.604 279.145 520.604C284.532 520.604 287.238 522.192 289.857 523.727C292.339 525.184 294.684 526.559 299.449 526.559C304.214 526.559 306.559 525.184 309.041 523.727C311.659 522.192 314.367 520.604 319.754 520.604C325.142 520.604 327.848 522.192 330.467 523.727C332.95 525.184 335.295 526.559 340.06 526.559C340.309 526.559 340.548 526.638 340.725 526.778C340.901 526.917 341 527.107 341 527.304C341 527.501 340.901 527.691 340.725 527.83C340.548 527.97 340.309 528.048 340.06 528.048Z" fill="#FFBF23"/>
<path d="M340.06 539.918C334.672 539.918 331.965 538.329 329.346 536.794C326.864 535.337 324.519 533.962 319.754 533.962C314.989 533.962 312.644 535.337 310.162 536.794C307.544 538.329 304.836 539.918 299.449 539.918C294.062 539.918 291.356 538.329 288.736 536.794C286.255 535.337 283.91 533.962 279.145 533.962C274.381 533.962 272.036 535.337 269.555 536.794C266.937 538.329 264.23 539.918 258.844 539.918C253.457 539.918 250.751 538.329 248.132 536.794C245.65 535.337 243.306 533.962 238.542 533.962C233.778 533.962 231.432 535.337 228.952 536.794C226.333 538.329 223.627 539.918 218.24 539.918C212.854 539.918 210.149 538.329 207.53 536.794C205.048 535.337 202.705 533.962 197.94 533.962C197.691 533.962 197.452 533.883 197.275 533.744C197.099 533.604 197 533.415 197 533.217C197 533.02 197.099 532.83 197.275 532.691C197.452 532.551 197.691 532.473 197.94 532.473C203.326 532.473 206.032 534.061 208.651 535.597C211.133 537.053 213.476 538.429 218.24 538.429C223.004 538.429 225.35 537.053 227.831 535.597C230.449 534.061 233.155 532.473 238.542 532.473C243.929 532.473 246.634 534.061 249.253 535.597C251.735 537.053 254.079 538.429 258.844 538.429C263.608 538.429 265.953 537.053 268.434 535.597C271.052 534.061 273.759 532.473 279.145 532.473C284.532 532.473 287.238 534.061 289.857 535.597C292.339 537.053 294.684 538.429 299.449 538.429C304.214 538.429 306.559 537.053 309.041 535.597C311.659 534.061 314.367 532.473 319.754 532.473C325.142 532.473 327.848 534.061 330.467 535.597C332.95 537.053 335.295 538.429 340.06 538.429C340.309 538.429 340.548 538.507 340.725 538.647C340.901 538.786 341 538.976 341 539.173C341 539.371 340.901 539.56 340.725 539.7C340.548 539.839 340.309 539.918 340.06 539.918Z" fill="#FFBF23"/>
<path d="M340.06 551.789C334.672 551.789 331.965 550.2 329.346 548.665C326.864 547.209 324.519 545.833 319.754 545.833C314.989 545.833 312.644 547.209 310.162 548.665C307.544 550.2 304.836 551.789 299.449 551.789C294.062 551.789 291.356 550.2 288.736 548.665C286.255 547.209 283.91 545.833 279.145 545.833C274.381 545.833 272.036 547.209 269.555 548.665C266.937 550.2 264.23 551.789 258.844 551.789C253.457 551.789 250.751 550.2 248.132 548.665C245.65 547.209 243.306 545.833 238.542 545.833C233.778 545.833 231.432 547.209 228.952 548.665C226.333 550.2 223.627 551.789 218.24 551.789C212.854 551.789 210.149 550.2 207.53 548.665C205.048 547.209 202.705 545.833 197.94 545.833C197.691 545.833 197.452 545.754 197.275 545.615C197.099 545.475 197 545.286 197 545.088C197 544.891 197.099 544.701 197.275 544.562C197.452 544.422 197.691 544.344 197.94 544.344C203.326 544.344 206.032 545.933 208.651 547.468C211.133 548.924 213.476 550.3 218.24 550.3C223.004 550.3 225.35 548.924 227.831 547.468C230.449 545.933 233.155 544.344 238.542 544.344C243.929 544.344 246.634 545.933 249.253 547.468C251.735 548.924 254.079 550.3 258.844 550.3C263.608 550.3 265.953 548.924 268.434 547.468C271.052 545.933 273.759 544.344 279.145 544.344C284.532 544.344 287.238 545.933 289.857 547.468C292.339 548.924 294.684 550.3 299.449 550.3C304.214 550.3 306.559 548.924 309.041 547.468C311.659 545.933 314.367 544.344 319.754 544.344C325.142 544.344 327.848 545.933 330.467 547.468C332.95 548.924 335.295 550.3 340.06 550.3C340.309 550.3 340.548 550.378 340.725 550.518C340.901 550.657 341 550.847 341 551.044C341 551.242 340.901 551.431 340.725 551.571C340.548 551.71 340.309 551.789 340.06 551.789Z" fill="#FFBF23"/>
<path d="M340.06 563.658C334.672 563.658 331.965 562.069 329.346 560.534C326.864 559.078 324.519 557.702 319.754 557.702C314.989 557.702 312.644 559.078 310.162 560.534C307.544 562.069 304.836 563.658 299.449 563.658C294.062 563.658 291.356 562.069 288.736 560.534C286.255 559.078 283.91 557.702 279.145 557.702C274.381 557.702 272.036 559.078 269.555 560.534C266.937 562.069 264.23 563.658 258.844 563.658C253.457 563.658 250.751 562.069 248.132 560.534C245.65 559.078 243.306 557.702 238.542 557.702C233.778 557.702 231.432 559.078 228.952 560.534C226.333 562.069 223.627 563.658 218.24 563.658C212.854 563.658 210.149 562.069 207.53 560.534C205.048 559.078 202.705 557.702 197.94 557.702C197.691 557.702 197.452 557.623 197.275 557.484C197.099 557.344 197 557.155 197 556.957C197 556.76 197.099 556.571 197.275 556.431C197.452 556.291 197.691 556.213 197.94 556.213C203.326 556.213 206.032 557.802 208.651 559.337C211.133 560.793 213.476 562.169 218.24 562.169C223.004 562.169 225.35 560.793 227.831 559.337C230.449 557.802 233.155 556.213 238.542 556.213C243.929 556.213 246.634 557.802 249.253 559.337C251.735 560.793 254.079 562.169 258.844 562.169C263.608 562.169 265.953 560.793 268.434 559.337C271.052 557.802 273.759 556.213 279.145 556.213C284.532 556.213 287.238 557.802 289.857 559.337C292.339 560.793 294.684 562.169 299.449 562.169C304.214 562.169 306.559 560.793 309.041 559.337C311.659 557.802 314.367 556.213 319.754 556.213C325.142 556.213 327.848 557.802 330.467 559.337C332.95 560.793 335.295 562.169 340.06 562.169C340.309 562.169 340.548 562.247 340.725 562.387C340.901 562.527 341 562.716 341 562.913C341 563.111 340.901 563.3 340.725 563.44C340.548 563.579 340.309 563.658 340.06 563.658Z" fill="#FFBF23"/>
<path d="M340.06 575.527C334.672 575.527 331.965 573.938 329.346 572.403C326.864 570.947 324.519 569.571 319.754 569.571C314.989 569.571 312.644 570.947 310.162 572.403C307.544 573.938 304.836 575.527 299.449 575.527C294.062 575.527 291.356 573.938 288.736 572.403C286.255 570.947 283.91 569.571 279.145 569.571C274.381 569.571 272.036 570.947 269.555 572.403C266.937 573.938 264.23 575.527 258.844 575.527C253.457 575.527 250.751 573.938 248.132 572.403C245.65 570.947 243.306 569.571 238.542 569.571C233.778 569.571 231.432 570.947 228.952 572.403C226.333 573.938 223.627 575.527 218.24 575.527C212.854 575.527 210.149 573.938 207.53 572.403C205.048 570.947 202.705 569.571 197.94 569.571C197.691 569.571 197.452 569.493 197.275 569.353C197.099 569.213 197 569.024 197 568.827C197 568.629 197.099 568.44 197.275 568.3C197.452 568.16 197.691 568.082 197.94 568.082C203.326 568.082 206.032 569.671 208.651 571.206C211.133 572.662 213.476 574.038 218.24 574.038C223.004 574.038 225.35 572.662 227.831 571.206C230.449 569.671 233.155 568.082 238.542 568.082C243.929 568.082 246.634 569.671 249.253 571.206C251.735 572.662 254.079 574.038 258.844 574.038C263.608 574.038 265.953 572.662 268.434 571.206C271.052 569.671 273.759 568.082 279.145 568.082C284.532 568.082 287.238 569.671 289.857 571.206C292.339 572.662 294.684 574.038 299.449 574.038C304.214 574.038 306.559 572.662 309.041 571.206C311.659 569.671 314.367 568.082 319.754 568.082C325.142 568.082 327.848 569.671 330.467 571.206C332.95 572.662 335.295 574.038 340.06 574.038C340.309 574.038 340.548 574.116 340.725 574.256C340.901 574.396 341 574.585 341 574.782C341 574.98 340.901 575.169 340.725 575.309C340.548 575.449 340.309 575.527 340.06 575.527Z" fill="#FFBF23"/>
<path d="M340.06 587.398C334.672 587.398 331.965 585.809 329.346 584.274C326.864 582.818 324.519 581.442 319.754 581.442C314.989 581.442 312.644 582.818 310.162 584.274C307.544 585.809 304.836 587.398 299.449 587.398C294.062 587.398 291.356 585.809 288.736 584.274C286.255 582.818 283.91 581.442 279.145 581.442C274.381 581.442 272.036 582.818 269.555 584.274C266.937 585.809 264.23 587.398 258.844 587.398C253.457 587.398 250.751 585.809 248.132 584.274C245.65 582.818 243.306 581.442 238.542 581.442C233.778 581.442 231.432 582.818 228.952 584.274C226.333 585.809 223.627 587.398 218.24 587.398C212.854 587.398 210.149 585.809 207.53 584.274C205.048 582.818 202.705 581.442 197.94 581.442C197.691 581.442 197.452 581.364 197.275 581.224C197.099 581.084 197 580.895 197 580.698C197 580.5 197.099 580.311 197.275 580.171C197.452 580.032 197.691 579.953 197.94 579.953C203.326 579.953 206.032 581.542 208.651 583.077C211.133 584.533 213.476 585.909 218.24 585.909C223.004 585.909 225.35 584.533 227.831 583.077C230.449 581.542 233.155 579.953 238.542 579.953C243.929 579.953 246.634 581.542 249.253 583.077C251.735 584.533 254.079 585.909 258.844 585.909C263.608 585.909 265.953 584.533 268.434 583.077C271.052 581.542 273.759 579.953 279.145 579.953C284.532 579.953 287.238 581.542 289.857 583.077C292.339 584.533 294.684 585.909 299.449 585.909C304.214 585.909 306.559 584.533 309.041 583.077C311.659 581.542 314.367 579.953 319.754 579.953C325.142 579.953 327.848 581.542 330.467 583.077C332.95 584.533 335.295 585.909 340.06 585.909C340.309 585.909 340.548 585.988 340.725 586.127C340.901 586.267 341 586.456 341 586.654C341 586.851 340.901 587.04 340.725 587.18C340.548 587.32 340.309 587.398 340.06 587.398Z" fill="#FFBF23"/>
<path d="M340.06 599.267C334.672 599.267 331.965 597.678 329.346 596.143C326.864 594.687 324.519 593.311 319.754 593.311C314.989 593.311 312.644 594.687 310.162 596.143C307.544 597.678 304.836 599.267 299.449 599.267C294.062 599.267 291.356 597.678 288.736 596.143C286.255 594.687 283.91 593.311 279.145 593.311C274.381 593.311 272.036 594.687 269.555 596.143C266.937 597.678 264.23 599.267 258.844 599.267C253.457 599.267 250.751 597.678 248.132 596.143C245.65 594.687 243.306 593.311 238.542 593.311C233.778 593.311 231.432 594.687 228.952 596.143C226.333 597.678 223.627 599.267 218.24 599.267C212.854 599.267 210.149 597.678 207.53 596.143C205.048 594.687 202.705 593.311 197.94 593.311C197.691 593.311 197.452 593.233 197.275 593.093C197.099 592.954 197 592.764 197 592.567C197 592.369 197.099 592.18 197.275 592.04C197.452 591.901 197.691 591.822 197.94 591.822C203.326 591.822 206.032 593.411 208.651 594.946C211.133 596.402 213.476 597.778 218.24 597.778C223.004 597.778 225.35 596.402 227.831 594.946C230.449 593.411 233.155 591.822 238.542 591.822C243.929 591.822 246.634 593.411 249.253 594.946C251.735 596.402 254.079 597.778 258.844 597.778C263.608 597.778 265.953 596.402 268.434 594.946C271.052 593.411 273.759 591.822 279.145 591.822C284.532 591.822 287.238 593.411 289.857 594.946C292.339 596.402 294.684 597.778 299.449 597.778C304.214 597.778 306.559 596.402 309.041 594.946C311.659 593.411 314.367 591.822 319.754 591.822C325.142 591.822 327.848 593.411 330.467 594.946C332.95 596.402 335.295 597.778 340.06 597.778C340.309 597.778 340.548 597.857 340.725 597.996C340.901 598.136 341 598.325 341 598.523C341 598.72 340.901 598.91 340.725 599.049C340.548 599.189 340.309 599.267 340.06 599.267Z" fill="#FFBF23"/>
</g>
<g clip-path="url(#clip3_733_14254)">
<path d="M385.016 294.686C385.016 294.686 374.131 300.738 377.264 307.629C380.397 314.52 424.891 308.882 424.891 308.882C424.891 308.882 421.758 299.485 416.118 297.606C410.478 295.727 385.016 294.686 385.016 294.686Z" fill="#50EFC0"/>
<path d="M380.772 296.3C382.96 294.879 385.392 293.873 387.946 293.335C396.462 291.272 405.379 291.55 413.75 294.14L413.597 294.015C417.163 295.897 420.295 298.506 422.788 301.675L380.772 296.3Z" fill="#CCCCCC"/>
<path d="M428.977 325.933L428.526 332.673C428.32 337.375 427.807 342.058 426.991 346.693C426.226 350.571 425.01 354.417 422.836 357.718C420.661 361.013 417.434 363.739 413.611 364.741C411.264 365.303 408.824 365.357 406.455 364.897C401.986 362.36 398.96 365.605 403.421 368.907C404.434 369.655 405.486 370.347 406.574 370.98L408.598 402.221L370.997 394.077L378.336 352.519C377.212 351.498 376.184 350.376 375.265 349.167C371.06 343.586 369.612 336.313 369.888 329.334C370.17 322.349 372.031 315.54 373.88 308.806C374.351 306.979 374.92 305.178 375.585 303.412C376.405 303.75 377.239 304.057 378.085 304.314C383.493 305.955 389.24 306.087 394.892 306.081C404.95 306.074 414.996 305.682 425.029 304.903C427.335 308.697 428.735 312.972 429.121 317.394C429.283 320.24 429.235 323.094 428.977 325.933Z" fill="#CCCCCC"/>
<path d="M268.161 410.739L326.047 415.876L326.667 415.932V169.026L326.047 168.594C313.982 160.159 300.932 153.229 287.186 147.959L284.228 188.74L283.959 192.474L281.032 232.917L280.13 245.358L268.267 409.298L268.161 410.739Z" fill="#E6E6E6"/>
<path d="M125.009 164.428C124.596 164.691 124.182 164.954 123.768 165.229V415.932L125.009 415.819L182.268 410.739L182.162 409.298L170.299 245.358L169.397 232.917L166.47 192.473L166.2 188.74L163.098 145.973C149.721 150.608 136.937 156.802 125.009 164.428Z" fill="#E6E6E6"/>
<path d="M123.768 165.23C122.935 165.768 122.101 166.32 121.28 166.877V419.352C121.28 425.661 125.022 430.948 130.023 432.295C130.84 432.516 131.683 432.627 132.529 432.627H318.526C319.371 432.628 320.212 432.516 321.027 432.295C322.886 431.779 324.57 430.77 325.902 429.375C328.442 426.661 329.831 423.068 329.775 419.352V171.268C328.747 170.51 327.713 169.759 326.667 169.026L326.046 168.594V419.352C326.048 420.165 325.951 420.975 325.758 421.764C324.875 425.491 321.961 428.223 318.526 428.223H132.529C128.381 428.223 125.009 424.245 125.009 419.352V164.428C124.596 164.691 124.182 164.954 123.768 165.23Z" fill="#E6E6E6"/>
<path d="M327.911 188.742V192.475H123.144V188.742H327.911Z" fill="#E6E6E6"/>
<path d="M265.196 141.124C263.955 140.817 262.715 140.529 261.461 140.26V241.624H265.196V141.124Z" fill="#E6E6E6"/>
<path d="M189.594 139C188.347 139.232 187.1 139.47 185.859 139.727V241.624H189.594V139Z" fill="#E6E6E6"/>
<path d="M82.9968 426.092C82.9959 428.234 83.4065 430.356 84.2063 432.344C84.5135 433.114 84.8801 433.86 85.303 434.574C85.8491 435.505 86.4829 436.382 87.1955 437.192C88.7699 438.986 90.709 440.423 92.8834 441.407C95.0578 442.391 97.4173 442.9 99.8042 442.899H345.028C349.486 442.899 353.761 441.129 356.913 437.978C360.065 434.827 361.836 430.554 361.836 426.098C361.836 421.642 360.065 417.369 356.913 414.218C353.761 411.067 349.486 409.297 345.028 409.297H99.8042C95.349 409.301 91.0775 411.072 87.9266 414.22C84.7757 417.369 83.0028 421.638 82.9968 426.092Z" fill="#E6E6E6"/>
<path d="M123.142 245.359V232.916H326.665V245.359H123.142Z" fill="#E6E6E6"/>
<path d="M233.618 236.027H216.19C216.19 234.212 216.912 232.472 218.196 231.188C219.48 229.905 221.221 229.184 223.037 229.184H226.771C228.587 229.184 230.328 229.905 231.612 231.188C232.896 232.472 233.618 234.212 233.618 236.027Z" fill="#E6E6E6"/>
<path d="M0 435.689C5.44409 442.138 11.3325 448.198 17.6221 453.825H445.378C451.668 448.198 457.556 442.138 463 435.689H0Z" fill="#3F3D56"/>
<path d="M116.035 375.043V439.291H161.062V375.043C161.063 374.581 160.915 374.13 160.641 373.758C160.367 373.386 159.981 373.112 159.539 372.975C159.331 372.907 159.113 372.873 158.893 372.875H118.21C117.925 372.875 117.642 372.93 117.378 373.039C117.115 373.147 116.875 373.307 116.673 373.508C116.471 373.71 116.311 373.949 116.201 374.212C116.092 374.475 116.035 374.758 116.035 375.043ZM133.607 397.118C133.607 395.844 134.114 394.622 135.015 393.721C135.916 392.82 137.139 392.314 138.414 392.314C139.689 392.314 140.911 392.82 141.812 393.721C142.714 394.622 143.22 395.844 143.22 397.118V404.573C143.22 405.847 142.714 407.07 141.812 407.971C140.911 408.872 139.689 409.378 138.414 409.378C137.139 409.378 135.916 408.872 135.015 407.971C134.114 407.07 133.607 405.847 133.607 404.573V397.118Z" fill="#2F2E41"/>
<path d="M115.897 437.236V443.432C115.898 443.753 116.026 444.06 116.252 444.288C116.479 444.515 116.786 444.645 117.107 444.647H159.99C160.311 444.645 160.619 444.517 160.846 444.289C161.072 444.061 161.2 443.753 161.2 443.432V437.236H115.897Z" fill="#3F3D56"/>
<path d="M45.202 278.245V395.553C45.2032 397.048 45.7978 398.481 46.8553 399.538C47.9127 400.595 49.3466 401.189 50.8421 401.191H224.744C226.24 401.189 227.674 400.595 228.731 399.538C229.789 398.481 230.383 397.048 230.384 395.553V278.245C230.381 276.751 229.785 275.32 228.728 274.264C227.671 273.209 226.239 272.615 224.744 272.613H50.8421C49.348 272.615 47.9155 273.209 46.8584 274.265C45.8013 275.32 45.2057 276.751 45.202 278.245Z" fill="#3F3D56"/>
<path d="M49.2817 279.705V394.106C49.2831 394.905 49.6011 395.67 50.1661 396.235C50.7311 396.8 51.497 397.118 52.296 397.119H223.297C224.096 397.118 224.862 396.8 225.427 396.235C225.992 395.67 226.31 394.905 226.311 394.106V279.705C226.311 278.905 225.994 278.138 225.429 277.572C224.864 277.006 224.097 276.687 223.297 276.686H52.296C51.496 276.687 50.7293 277.006 50.1642 277.572C49.5991 278.138 49.2817 278.905 49.2817 279.705Z" fill="#50EFC0"/>
<path d="M84.1499 446.107C84.324 446.326 84.5452 446.502 84.797 446.622C85.0488 446.742 85.3247 446.804 85.6038 446.803H187.338C187.616 446.803 187.891 446.74 188.142 446.62C188.393 446.501 188.615 446.326 188.79 446.11C188.965 445.894 189.09 445.642 189.155 445.372C189.221 445.101 189.225 444.82 189.168 444.548L187.589 437.049C187.523 436.743 187.382 436.459 187.179 436.221C186.975 435.984 186.716 435.801 186.423 435.69C186.212 435.607 185.986 435.564 185.759 435.564H87.1768C86.9494 435.564 86.7241 435.607 86.5125 435.69C86.2202 435.801 85.9604 435.984 85.7568 436.221C85.5532 436.459 85.4123 436.743 85.3469 437.049L83.7676 444.548C83.7115 444.82 83.7166 445.101 83.7827 445.371C83.8489 445.64 83.9743 445.892 84.1499 446.107Z" fill="#2F2E41"/>
<path d="M181.903 438.488V437.22C181.903 437.051 182.04 436.914 182.209 436.914H184.731C184.9 436.914 185.036 437.051 185.036 437.22V438.488C185.036 438.657 184.9 438.793 184.731 438.793H182.209C182.128 438.793 182.05 438.761 181.993 438.704C181.935 438.647 181.903 438.569 181.903 438.488Z" fill="#3F3D56"/>
<path d="M175.636 438.488V437.22C175.636 437.051 175.773 436.914 175.942 436.914H178.464C178.633 436.914 178.77 437.051 178.77 437.22V438.488C178.77 438.657 178.633 438.793 178.464 438.793H175.942C175.861 438.793 175.783 438.761 175.726 438.704C175.669 438.647 175.636 438.569 175.636 438.488Z" fill="#3F3D56"/>
<path d="M169.37 438.488V437.22C169.37 437.051 169.506 436.914 169.675 436.914H172.197C172.366 436.914 172.503 437.051 172.503 437.22V438.488C172.503 438.657 172.366 438.793 172.197 438.793H169.675C169.594 438.793 169.517 438.761 169.459 438.704C169.402 438.647 169.37 438.569 169.37 438.488Z" fill="#3F3D56"/>
<path d="M163.103 438.488V437.22C163.103 437.051 163.239 436.914 163.409 436.914H165.93C166.1 436.914 166.236 437.051 166.236 437.22V438.488C166.236 438.657 166.1 438.793 165.93 438.793H163.409C163.327 438.793 163.25 438.761 163.192 438.704C163.135 438.647 163.103 438.569 163.103 438.488Z" fill="#3F3D56"/>
<path d="M156.836 438.488V437.22C156.836 437.051 156.973 436.914 157.142 436.914H159.664C159.833 436.914 159.969 437.051 159.969 437.22V438.488C159.969 438.657 159.833 438.793 159.664 438.793H157.142C157.061 438.793 156.983 438.761 156.926 438.704C156.868 438.647 156.836 438.569 156.836 438.488Z" fill="#3F3D56"/>
<path d="M150.569 438.488V437.22C150.569 437.051 150.706 436.914 150.875 436.914H153.397C153.566 436.914 153.703 437.051 153.703 437.22V438.488C153.703 438.657 153.566 438.793 153.397 438.793H150.875C150.794 438.793 150.716 438.761 150.659 438.704C150.602 438.647 150.569 438.569 150.569 438.488Z" fill="#3F3D56"/>
<path d="M144.303 438.488V437.22C144.303 437.051 144.439 436.914 144.608 436.914H147.13C147.299 436.914 147.436 437.051 147.436 437.22V438.488C147.436 438.657 147.299 438.793 147.13 438.793H144.608C144.527 438.793 144.45 438.761 144.392 438.704C144.335 438.647 144.303 438.569 144.303 438.488Z" fill="#3F3D56"/>
<path d="M138.036 438.488V437.22C138.036 437.051 138.172 436.914 138.342 436.914H140.863C141.033 436.914 141.169 437.051 141.169 437.22V438.488C141.169 438.657 141.033 438.793 140.863 438.793H138.342C138.26 438.793 138.183 438.761 138.125 438.704C138.068 438.647 138.036 438.569 138.036 438.488Z" fill="#3F3D56"/>
<path d="M131.769 438.488V437.22C131.769 437.051 131.906 436.914 132.075 436.914H134.597C134.766 436.914 134.902 437.051 134.902 437.22V438.488C134.902 438.657 134.766 438.793 134.597 438.793H132.075C131.994 438.793 131.916 438.761 131.859 438.704C131.801 438.647 131.769 438.569 131.769 438.488Z" fill="#3F3D56"/>
<path d="M125.502 438.488V437.22C125.502 437.051 125.639 436.914 125.808 436.914H128.33C128.499 436.914 128.636 437.051 128.636 437.22V438.488C128.636 438.657 128.499 438.793 128.33 438.793H125.808C125.727 438.793 125.649 438.761 125.592 438.704C125.535 438.647 125.502 438.569 125.502 438.488Z" fill="#3F3D56"/>
<path d="M119.236 438.488V437.22C119.236 437.051 119.372 436.914 119.541 436.914H122.063C122.232 436.914 122.369 437.051 122.369 437.22V438.488C122.369 438.657 122.232 438.793 122.063 438.793H119.541C119.46 438.793 119.383 438.761 119.325 438.704C119.268 438.647 119.236 438.569 119.236 438.488Z" fill="#3F3D56"/>
<path d="M112.969 438.488V437.22C112.969 437.051 113.105 436.914 113.275 436.914H115.796C115.966 436.914 116.102 437.051 116.102 437.22V438.488C116.102 438.657 115.966 438.793 115.796 438.793H113.275C113.193 438.793 113.116 438.761 113.058 438.704C113.001 438.647 112.969 438.569 112.969 438.488Z" fill="#3F3D56"/>
<path d="M106.702 438.488V437.22C106.702 437.051 106.839 436.914 107.008 436.914H109.53C109.699 436.914 109.835 437.051 109.835 437.22V438.488C109.835 438.657 109.699 438.793 109.53 438.793H107.008C106.927 438.793 106.849 438.761 106.792 438.704C106.734 438.647 106.702 438.569 106.702 438.488Z" fill="#3F3D56"/>
<path d="M100.435 438.488V437.22C100.435 437.051 100.572 436.914 100.741 436.914H103.263C103.432 436.914 103.569 437.051 103.569 437.22V438.488C103.569 438.657 103.432 438.793 103.263 438.793H100.741C100.66 438.793 100.582 438.761 100.525 438.704C100.468 438.647 100.435 438.569 100.435 438.488Z" fill="#3F3D56"/>
<path d="M94.1686 438.488V437.22C94.1686 437.051 94.3052 436.914 94.4744 436.914H96.9961C97.1653 436.914 97.302 437.051 97.302 437.22V438.488C97.302 438.657 97.1653 438.793 96.9961 438.793H94.4744C94.3933 438.793 94.3155 438.761 94.2581 438.704C94.2008 438.647 94.1686 438.569 94.1686 438.488Z" fill="#3F3D56"/>
<path d="M87.9019 438.488V437.22C87.9019 437.051 88.0385 436.914 88.2077 436.914H90.7294C90.8986 436.914 91.0352 437.051 91.0352 437.22V438.488C91.0352 438.657 90.8986 438.793 90.7294 438.793H88.2077C88.1266 438.793 88.0488 438.761 87.9914 438.704C87.9341 438.647 87.9019 438.569 87.9019 438.488Z" fill="#3F3D56"/>
<path d="M181.977 441.62V440.353C181.977 440.183 182.114 440.047 182.283 440.047H184.805C184.974 440.047 185.11 440.183 185.11 440.353V441.62C185.11 441.79 184.974 441.926 184.805 441.926H182.283C182.202 441.926 182.124 441.894 182.067 441.837C182.009 441.779 181.977 441.702 181.977 441.62Z" fill="#3F3D56"/>
<path d="M175.71 441.62V440.353C175.71 440.183 175.847 440.047 176.016 440.047H178.538C178.707 440.047 178.844 440.183 178.844 440.353V441.62C178.844 441.79 178.707 441.926 178.538 441.926H176.016C175.935 441.926 175.857 441.894 175.8 441.837C175.742 441.779 175.71 441.702 175.71 441.62Z" fill="#3F3D56"/>
<path d="M169.443 441.62V440.353C169.443 440.183 169.58 440.047 169.749 440.047H172.271C172.44 440.047 172.577 440.183 172.577 440.353V441.62C172.577 441.79 172.44 441.926 172.271 441.926H169.749C169.668 441.926 169.59 441.894 169.533 441.837C169.476 441.779 169.443 441.702 169.443 441.62Z" fill="#3F3D56"/>
<path d="M163.177 441.62V440.353C163.177 440.183 163.313 440.047 163.483 440.047H166.004C166.174 440.047 166.31 440.183 166.31 440.353V441.62C166.31 441.79 166.174 441.926 166.004 441.926H163.483C163.401 441.926 163.324 441.894 163.266 441.837C163.209 441.779 163.177 441.702 163.177 441.62Z" fill="#3F3D56"/>
<path d="M156.91 441.62V440.353C156.91 440.183 157.047 440.047 157.216 440.047H159.738C159.907 440.047 160.043 440.183 160.043 440.353V441.62C160.043 441.79 159.907 441.926 159.738 441.926H157.216C157.135 441.926 157.057 441.894 157 441.837C156.942 441.779 156.91 441.702 156.91 441.62Z" fill="#3F3D56"/>
<path d="M150.643 441.62V440.353C150.643 440.183 150.78 440.047 150.949 440.047H153.471C153.64 440.047 153.777 440.183 153.777 440.353V441.62C153.777 441.79 153.64 441.926 153.471 441.926H150.949C150.868 441.926 150.79 441.894 150.733 441.837C150.676 441.779 150.643 441.702 150.643 441.62Z" fill="#3F3D56"/>
<path d="M144.376 441.62V440.353C144.376 440.183 144.513 440.047 144.682 440.047H147.204C147.373 440.047 147.51 440.183 147.51 440.353V441.62C147.51 441.79 147.373 441.926 147.204 441.926H144.682C144.601 441.926 144.523 441.894 144.466 441.837C144.409 441.779 144.376 441.702 144.376 441.62Z" fill="#3F3D56"/>
<path d="M138.11 441.62V440.353C138.11 440.183 138.246 440.047 138.416 440.047H140.937C141.107 440.047 141.243 440.183 141.243 440.353V441.62C141.243 441.79 141.107 441.926 140.937 441.926H138.416C138.334 441.926 138.257 441.894 138.199 441.837C138.142 441.779 138.11 441.702 138.11 441.62Z" fill="#3F3D56"/>
<path d="M131.843 441.62V440.353C131.843 440.183 131.98 440.047 132.149 440.047H134.671C134.84 440.047 134.976 440.183 134.976 440.353V441.62C134.976 441.79 134.84 441.926 134.671 441.926H132.149C132.068 441.926 131.99 441.894 131.933 441.837C131.875 441.779 131.843 441.702 131.843 441.62Z" fill="#3F3D56"/>
<path d="M125.576 441.62V440.353C125.576 440.183 125.713 440.047 125.882 440.047H128.404C128.573 440.047 128.71 440.183 128.71 440.353V441.62C128.71 441.79 128.573 441.926 128.404 441.926H125.882C125.801 441.926 125.723 441.894 125.666 441.837C125.609 441.779 125.576 441.702 125.576 441.62Z" fill="#3F3D56"/>
<path d="M119.31 441.62V440.353C119.31 440.183 119.446 440.047 119.615 440.047H122.137C122.306 440.047 122.443 440.183 122.443 440.353V441.62C122.443 441.79 122.306 441.926 122.137 441.926H119.615C119.534 441.926 119.457 441.894 119.399 441.837C119.342 441.779 119.31 441.702 119.31 441.62Z" fill="#3F3D56"/>
<path d="M113.043 441.62V440.353C113.043 440.183 113.179 440.047 113.349 440.047H115.87C116.039 440.047 116.176 440.183 116.176 440.353V441.62C116.176 441.79 116.039 441.926 115.87 441.926H113.349C113.267 441.926 113.19 441.894 113.132 441.837C113.075 441.779 113.043 441.702 113.043 441.62Z" fill="#3F3D56"/>
<path d="M106.776 441.62V440.353C106.776 440.183 106.913 440.047 107.082 440.047H109.604C109.773 440.047 109.909 440.183 109.909 440.353V441.62C109.909 441.79 109.773 441.926 109.604 441.926H107.082C107.001 441.926 106.923 441.894 106.866 441.837C106.808 441.779 106.776 441.702 106.776 441.62Z" fill="#3F3D56"/>
<path d="M100.509 441.62V440.353C100.509 440.183 100.646 440.047 100.815 440.047H103.337C103.506 440.047 103.643 440.183 103.643 440.353V441.62C103.643 441.79 103.506 441.926 103.337 441.926H100.815C100.734 441.926 100.656 441.894 100.599 441.837C100.542 441.779 100.509 441.702 100.509 441.62Z" fill="#3F3D56"/>
<path d="M94.2426 441.62V440.353C94.2426 440.183 94.3792 440.047 94.5484 440.047H97.0701C97.2393 440.047 97.3759 440.183 97.3759 440.353V441.62C97.3759 441.79 97.2393 441.926 97.0701 441.926H94.5484C94.4673 441.926 94.3895 441.894 94.3321 441.837C94.2748 441.779 94.2426 441.702 94.2426 441.62Z" fill="#3F3D56"/>
<path d="M87.9757 441.62V440.353C87.9757 440.183 88.1123 440.047 88.2815 440.047H90.8033C90.9725 440.047 91.1091 440.183 91.1091 440.353V441.62C91.1091 441.79 90.9725 441.926 90.8033 441.926H88.2815C88.2004 441.926 88.1226 441.894 88.0653 441.837C88.0079 441.779 87.9757 441.702 87.9757 441.62Z" fill="#3F3D56"/>
<path d="M129.963 445.378V444.11C129.963 443.941 130.1 443.805 130.269 443.805H154.724C154.893 443.805 155.03 443.941 155.03 444.11V445.378C155.03 445.547 154.893 445.684 154.724 445.684H130.269C130.188 445.684 130.11 445.652 130.053 445.594C129.995 445.537 129.963 445.459 129.963 445.378Z" fill="#3F3D56"/>
<path d="M60.889 292.446H220.893C221.059 292.441 221.216 292.372 221.331 292.253C221.446 292.134 221.51 291.975 221.51 291.81C221.51 291.645 221.446 291.486 221.331 291.367C221.216 291.248 221.059 291.179 220.893 291.174H60.889C60.7252 291.181 60.5705 291.251 60.4571 291.37C60.3438 291.488 60.2805 291.646 60.2805 291.81C60.2805 291.974 60.3438 292.131 60.4571 292.25C60.5705 292.368 60.7252 292.438 60.889 292.446V292.446Z" fill="#3F3D56"/>
<path d="M213.731 284.115C213.731 286.22 212.061 287.926 210.002 287.926C207.943 287.926 206.273 286.22 206.273 284.115C206.273 282.01 207.943 280.305 210.002 280.305C212.061 280.305 213.731 282.01 213.731 284.115Z" fill="#3F3D56"/>
<path d="M200.849 284.115C200.849 286.22 199.179 287.926 197.12 287.926C195.061 287.926 193.391 286.22 193.391 284.115C193.391 282.01 195.061 280.305 197.12 280.305C199.179 280.305 200.849 282.01 200.849 284.115Z" fill="#3F3D56"/>
<path d="M187.967 284.115C187.967 286.22 186.297 287.926 184.238 287.926C182.179 287.926 180.509 286.22 180.509 284.115C180.509 282.01 182.179 280.305 184.238 280.305C186.297 280.305 187.967 282.01 187.967 284.115Z" fill="#3F3D56"/>
<path d="M67.9629 281.941C67.9625 282.032 67.9798 282.121 68.0139 282.204C68.048 282.288 68.0982 282.363 68.1617 282.427C68.2251 282.491 68.3005 282.542 68.3836 282.577C68.4667 282.612 68.5559 282.63 68.646 282.631H77.7954C77.9791 282.631 78.1552 282.558 78.2851 282.428C78.415 282.298 78.4879 282.122 78.4879 281.938C78.4879 281.755 78.415 281.579 78.2851 281.449C78.1552 281.319 77.9791 281.246 77.7954 281.246H68.646C68.4633 281.248 68.2889 281.323 68.1609 281.453C68.0329 281.583 67.9617 281.759 67.9629 281.941Z" fill="#3F3D56"/>
<path d="M67.9629 284.541C67.9625 284.631 67.9798 284.72 68.0139 284.804C68.048 284.887 68.0982 284.963 68.1617 285.027C68.2251 285.091 68.3005 285.142 68.3836 285.177C68.4667 285.212 68.5559 285.23 68.646 285.23H77.7954C77.9791 285.23 78.1552 285.157 78.2851 285.027C78.415 284.898 78.4879 284.722 78.4879 284.538C78.4879 284.354 78.415 284.178 78.2851 284.048C78.1552 283.919 77.9791 283.846 77.7954 283.846H68.646C68.4633 283.848 68.2889 283.922 68.1609 284.052C68.0329 284.183 67.9617 284.358 67.9629 284.541Z" fill="#3F3D56"/>
<path d="M67.9629 287.134C67.9617 287.317 68.0329 287.493 68.1609 287.623C68.2889 287.753 68.4633 287.828 68.646 287.83H77.7954C77.9791 287.83 78.1552 287.757 78.2851 287.627C78.415 287.497 78.4879 287.321 78.4879 287.138C78.4879 286.954 78.415 286.778 78.2851 286.648C78.1552 286.518 77.9791 286.445 77.7954 286.445H68.646C68.5559 286.446 68.4667 286.464 68.3836 286.499C68.3005 286.534 68.2251 286.584 68.1617 286.648C68.0982 286.712 68.048 286.788 68.0139 286.872C67.9798 286.955 67.9625 287.044 67.9629 287.134Z" fill="#3F3D56"/>
<path d="M72.5953 309.031C72.5953 309.509 72.4052 309.968 72.0667 310.306C71.7282 310.645 71.2691 310.835 70.7905 310.835H67.5029C67.0243 310.835 66.5652 310.645 66.2267 310.306C65.8883 309.968 65.6981 309.509 65.6981 309.031C65.6981 308.552 65.8883 308.093 66.2267 307.755C66.5652 307.417 67.0243 307.227 67.5029 307.227H70.7905C71.2691 307.227 71.7282 307.417 72.0667 307.755C72.4052 308.093 72.5953 308.552 72.5953 309.031Z" fill="#E6E6E6"/>
<path d="M110.196 309.031C110.196 309.509 110.006 309.968 109.667 310.306C109.329 310.645 108.87 310.835 108.391 310.835H105.103C104.625 310.835 104.166 310.645 103.827 310.306C103.489 309.968 103.299 309.509 103.299 309.031C103.299 308.552 103.489 308.093 103.827 307.755C104.166 307.417 104.625 307.227 105.103 307.227H108.391C108.87 307.227 109.329 307.417 109.667 307.755C110.006 308.093 110.196 308.552 110.196 309.031Z" fill="#E6E6E6"/>
<path d="M120.849 309.031C120.849 309.509 120.659 309.968 120.321 310.306C119.982 310.645 119.523 310.835 119.044 310.835H115.757C115.278 310.835 114.819 310.645 114.481 310.306C114.142 309.968 113.952 309.509 113.952 309.031C113.952 308.552 114.142 308.093 114.481 307.755C114.819 307.417 115.278 307.227 115.757 307.227H119.044C119.523 307.227 119.982 307.417 120.321 307.755C120.659 308.093 120.849 308.552 120.849 309.031Z" fill="#E6E6E6"/>
<path d="M99.9684 308.73C99.9684 309.208 99.7783 309.667 99.4398 310.006C99.1013 310.344 98.6423 310.534 98.1636 310.534H77.7302C77.2516 310.534 76.7925 310.344 76.454 310.006C76.1156 309.667 75.9254 309.208 75.9254 308.73C75.9254 308.251 76.1156 307.793 76.454 307.454C76.7925 307.116 77.2516 306.926 77.7302 306.926H98.1636C98.6423 306.926 99.1013 307.116 99.4398 307.454C99.7783 307.793 99.9684 308.251 99.9684 308.73Z" fill="#E6E6E6"/>
<path d="M150.102 308.73C150.102 309.208 149.912 309.667 149.574 310.006C149.235 310.344 148.776 310.534 148.298 310.534H127.864C127.386 310.534 126.927 310.344 126.588 310.006C126.25 309.667 126.059 309.208 126.059 308.73C126.059 308.251 126.25 307.793 126.588 307.454C126.927 307.116 127.386 306.926 127.864 306.926H148.298C148.776 306.926 149.235 307.116 149.574 307.454C149.912 307.793 150.102 308.251 150.102 308.73Z" fill="#E6E6E6"/>
<path d="M82.622 317.175C82.622 317.654 82.4319 318.113 82.0934 318.451C81.755 318.789 81.2959 318.979 80.8172 318.979H77.5297C77.051 318.979 76.5919 318.789 76.2535 318.451C75.915 318.113 75.7249 317.654 75.7249 317.175C75.7249 316.697 75.915 316.238 76.2535 315.9C76.5919 315.561 77.051 315.371 77.5297 315.371H80.8172C81.2959 315.371 81.755 315.561 82.0934 315.9C82.4319 316.238 82.622 316.697 82.622 317.175Z" fill="#E6E6E6"/>
<path d="M120.223 317.175C120.223 317.654 120.032 318.113 119.694 318.451C119.356 318.789 118.896 318.979 118.418 318.979H115.13C114.652 318.979 114.193 318.789 113.854 318.451C113.516 318.113 113.325 317.654 113.325 317.175C113.325 316.697 113.516 316.238 113.854 315.9C114.193 315.561 114.652 315.371 115.13 315.371H118.418C118.896 315.371 119.356 315.561 119.694 315.9C120.032 316.238 120.223 316.697 120.223 317.175Z" fill="#E6E6E6"/>
<path d="M130.876 317.175C130.876 317.654 130.686 318.113 130.347 318.451C130.009 318.789 129.55 318.979 129.071 318.979H125.784C125.305 318.979 124.846 318.789 124.508 318.451C124.169 318.113 123.979 317.654 123.979 317.175C123.979 316.697 124.169 316.238 124.508 315.9C124.846 315.561 125.305 315.371 125.784 315.371H129.071C129.55 315.371 130.009 315.561 130.347 315.9C130.686 316.238 130.876 316.697 130.876 317.175Z" fill="#E6E6E6"/>
<path d="M109.995 316.874C109.995 317.353 109.805 317.812 109.467 318.15C109.128 318.489 108.669 318.679 108.19 318.679H87.7571C87.2784 318.679 86.8194 318.489 86.4809 318.15C86.1424 317.812 85.9523 317.353 85.9523 316.874C85.9523 316.396 86.1424 315.937 86.4809 315.599C86.8194 315.26 87.2784 315.07 87.7571 315.07H108.19C108.669 315.07 109.128 315.26 109.467 315.599C109.805 315.937 109.995 316.396 109.995 316.874Z" fill="#E6E6E6"/>
<path d="M160.129 316.874C160.129 317.353 159.939 317.812 159.601 318.15C159.262 318.489 158.803 318.679 158.324 318.679H137.891C137.412 318.679 136.953 318.489 136.615 318.15C136.276 317.812 136.086 317.353 136.086 316.874C136.086 316.396 136.276 315.937 136.615 315.599C136.953 315.26 137.412 315.07 137.891 315.07H158.324C158.803 315.07 159.262 315.26 159.601 315.599C159.939 315.937 160.129 316.396 160.129 316.874Z" fill="#E6E6E6"/>
<path d="M92.6489 325.318C92.6489 325.796 92.4587 326.255 92.1203 326.594C91.7818 326.932 91.3227 327.122 90.8441 327.122H87.5565C87.0779 327.122 86.6188 326.932 86.2803 326.594C85.9419 326.255 85.7517 325.796 85.7517 325.318C85.7517 324.839 85.9419 324.38 86.2803 324.042C86.6188 323.704 87.0779 323.514 87.5565 323.514H90.8441C91.3227 323.514 91.7818 323.704 92.1203 324.042C92.4587 324.38 92.6489 324.839 92.6489 325.318Z" fill="#E6E6E6"/>
<path d="M130.249 325.318C130.249 325.796 130.059 326.255 129.721 326.594C129.382 326.932 128.923 327.122 128.445 327.122H125.157C124.678 327.122 124.219 326.932 123.881 326.594C123.542 326.255 123.352 325.796 123.352 325.318C123.352 324.839 123.542 324.38 123.881 324.042C124.219 323.704 124.678 323.514 125.157 323.514H128.445C128.923 323.514 129.382 323.704 129.721 324.042C130.059 324.38 130.249 324.839 130.249 325.318Z" fill="#E6E6E6"/>
<path d="M140.903 325.318C140.903 325.796 140.713 326.255 140.374 326.594C140.036 326.932 139.577 327.122 139.098 327.122H135.81C135.332 327.122 134.873 326.932 134.534 326.594C134.196 326.255 134.006 325.796 134.006 325.318C134.006 324.839 134.196 324.38 134.534 324.042C134.873 323.704 135.332 323.514 135.81 323.514H139.098C139.577 323.514 140.036 323.704 140.374 324.042C140.713 324.38 140.903 324.839 140.903 325.318Z" fill="#E6E6E6"/>
<path d="M120.022 325.017C120.022 325.496 119.832 325.954 119.493 326.293C119.155 326.631 118.696 326.821 118.217 326.821H97.7838C97.3052 326.821 96.8461 326.631 96.5076 326.293C96.1691 325.954 95.979 325.496 95.979 325.017C95.979 324.539 96.1691 324.08 96.5076 323.741C96.8461 323.403 97.3052 323.213 97.7838 323.213H118.217C118.696 323.213 119.155 323.403 119.493 323.741C119.832 324.08 120.022 324.539 120.022 325.017Z" fill="#E6E6E6"/>
<path d="M170.156 325.017C170.156 325.496 169.966 325.954 169.627 326.293C169.289 326.631 168.83 326.821 168.351 326.821H147.918C147.439 326.821 146.98 326.631 146.642 326.293C146.303 325.954 146.113 325.496 146.113 325.017C146.113 324.539 146.303 324.08 146.642 323.741C146.98 323.403 147.439 323.213 147.918 323.213H168.351C168.83 323.213 169.289 323.403 169.627 323.741C169.966 324.08 170.156 324.539 170.156 325.017Z" fill="#E6E6E6"/>
<path d="M102.676 333.462C102.676 333.941 102.485 334.4 102.147 334.738C101.809 335.076 101.349 335.267 100.871 335.267H97.5833C97.3463 335.267 97.1116 335.22 96.8926 335.129C96.6736 335.039 96.4747 334.906 96.3071 334.738C96.1395 334.571 96.0065 334.372 95.9158 334.153C95.8251 333.934 95.7784 333.699 95.7784 333.462C95.7784 333.225 95.8251 332.991 95.9158 332.772C96.0065 332.553 96.1395 332.354 96.3071 332.187C96.4747 332.019 96.6736 331.886 96.8926 331.796C97.1116 331.705 97.3463 331.658 97.5833 331.658H100.871C101.349 331.658 101.809 331.848 102.147 332.187C102.485 332.525 102.676 332.984 102.676 333.462Z" fill="#E6E6E6"/>
<path d="M140.276 333.462C140.276 333.941 140.086 334.4 139.748 334.738C139.409 335.076 138.95 335.267 138.471 335.267H135.184C134.947 335.267 134.712 335.22 134.493 335.129C134.274 335.039 134.075 334.906 133.908 334.738C133.74 334.571 133.607 334.372 133.516 334.153C133.426 333.934 133.379 333.699 133.379 333.462C133.379 333.225 133.426 332.991 133.516 332.772C133.607 332.553 133.74 332.354 133.908 332.187C134.075 332.019 134.274 331.886 134.493 331.796C134.712 331.705 134.947 331.658 135.184 331.658H138.471C138.95 331.658 139.409 331.848 139.748 332.187C140.086 332.525 140.276 332.984 140.276 333.462Z" fill="#E6E6E6"/>
<path d="M150.93 333.462C150.93 333.941 150.74 334.4 150.401 334.738C150.063 335.076 149.604 335.267 149.125 335.267H145.837C145.6 335.267 145.366 335.22 145.147 335.129C144.928 335.039 144.729 334.906 144.561 334.738C144.394 334.571 144.261 334.372 144.17 334.153C144.079 333.934 144.032 333.699 144.032 333.462C144.032 333.225 144.079 332.991 144.17 332.772C144.261 332.553 144.394 332.354 144.561 332.187C144.729 332.019 144.928 331.886 145.147 331.796C145.366 331.705 145.6 331.658 145.837 331.658H149.125C149.604 331.658 150.063 331.848 150.401 332.187C150.74 332.525 150.93 332.984 150.93 333.462Z" fill="#E6E6E6"/>
<path d="M130.049 333.162C130.049 333.64 129.859 334.099 129.52 334.437C129.182 334.776 128.723 334.966 128.244 334.966H107.811C107.332 334.966 106.873 334.776 106.534 334.437C106.196 334.099 106.006 333.64 106.006 333.162C106.006 332.683 106.196 332.224 106.534 331.886C106.873 331.548 107.332 331.357 107.811 331.357H128.244C128.723 331.357 129.182 331.548 129.52 331.886C129.859 332.224 130.049 332.683 130.049 333.162Z" fill="#E6E6E6"/>
<path d="M110.196 365.845C110.196 366.324 110.006 366.783 109.667 367.121C109.329 367.459 108.87 367.649 108.391 367.649H105.103C104.625 367.649 104.166 367.459 103.827 367.121C103.489 366.783 103.299 366.324 103.299 365.845C103.299 365.367 103.489 364.908 103.827 364.569C104.166 364.231 104.625 364.041 105.103 364.041H108.391C108.87 364.041 109.329 364.231 109.667 364.569C110.006 364.908 110.196 365.367 110.196 365.845Z" fill="#E6E6E6"/>
<path d="M120.849 365.845C120.849 366.324 120.659 366.783 120.321 367.121C119.982 367.459 119.523 367.649 119.044 367.649H115.757C115.278 367.649 114.819 367.459 114.481 367.121C114.142 366.783 113.952 366.324 113.952 365.845C113.952 365.367 114.142 364.908 114.481 364.569C114.819 364.231 115.278 364.041 115.757 364.041H119.044C119.523 364.041 119.982 364.231 120.321 364.569C120.659 364.908 120.849 365.367 120.849 365.845Z" fill="#E6E6E6"/>
<path d="M150.102 366.146C150.102 366.624 149.912 367.083 149.574 367.422C149.235 367.76 148.776 367.95 148.298 367.95H127.864C127.627 367.95 127.393 367.903 127.174 367.813C126.955 367.722 126.756 367.589 126.588 367.422C126.42 367.254 126.288 367.055 126.197 366.836C126.106 366.617 126.059 366.383 126.059 366.146C126.059 365.909 126.106 365.674 126.197 365.456C126.288 365.237 126.42 365.038 126.588 364.87C126.756 364.703 126.955 364.57 127.174 364.479C127.393 364.388 127.627 364.342 127.864 364.342H148.298C148.776 364.342 149.235 364.532 149.574 364.87C149.912 365.209 150.102 365.667 150.102 366.146Z" fill="#E6E6E6"/>
<path d="M72.5953 365.845C72.5953 366.324 72.4052 366.783 72.0667 367.121C71.7282 367.459 71.2691 367.649 70.7905 367.649H67.5029C67.0243 367.649 66.5652 367.459 66.2267 367.121C65.8883 366.783 65.6981 366.324 65.6981 365.845C65.6981 365.367 65.8883 364.908 66.2267 364.569C66.5652 364.231 67.0243 364.041 67.5029 364.041H70.7905C71.2691 364.041 71.7282 364.231 72.0667 364.569C72.4052 364.908 72.5953 365.367 72.5953 365.845Z" fill="#E6E6E6"/>
<path d="M99.9684 366.146C99.9684 366.624 99.7783 367.083 99.4398 367.422C99.1013 367.76 98.6423 367.95 98.1636 367.95H77.7302C77.4932 367.95 77.2585 367.903 77.0396 367.813C76.8206 367.722 76.6216 367.589 76.454 367.422C76.2864 367.254 76.1535 367.055 76.0628 366.836C75.9721 366.617 75.9254 366.383 75.9254 366.146C75.9254 365.909 75.9721 365.674 76.0628 365.456C76.1535 365.237 76.2864 365.038 76.454 364.87C76.6216 364.703 76.8206 364.57 77.0396 364.479C77.2585 364.388 77.4932 364.342 77.7302 364.342H98.1636C98.6423 364.342 99.1013 364.532 99.4398 364.87C99.7783 365.209 99.9684 365.667 99.9684 366.146Z" fill="#E6E6E6"/>
<path d="M82.622 357.703C82.622 358.181 82.4319 358.64 82.0934 358.978C81.755 359.317 81.2959 359.507 80.8172 359.507H77.5297C77.051 359.507 76.5919 359.317 76.2535 358.978C75.915 358.64 75.7249 358.181 75.7249 357.703C75.7249 357.224 75.915 356.765 76.2535 356.427C76.5919 356.089 77.051 355.898 77.5297 355.898H80.8172C81.2959 355.898 81.755 356.089 82.0934 356.427C82.4319 356.765 82.622 357.224 82.622 357.703Z" fill="#E6E6E6"/>
<path d="M120.223 357.703C120.223 358.181 120.032 358.64 119.694 358.978C119.356 359.317 118.896 359.507 118.418 359.507H115.13C114.652 359.507 114.193 359.317 113.854 358.978C113.516 358.64 113.325 358.181 113.325 357.703C113.325 357.224 113.516 356.765 113.854 356.427C114.193 356.089 114.652 355.898 115.13 355.898H118.418C118.896 355.898 119.356 356.089 119.694 356.427C120.032 356.765 120.223 357.224 120.223 357.703Z" fill="#E6E6E6"/>
<path d="M130.876 357.703C130.876 358.181 130.686 358.64 130.347 358.978C130.009 359.317 129.55 359.507 129.071 359.507H125.784C125.305 359.507 124.846 359.317 124.508 358.978C124.169 358.64 123.979 358.181 123.979 357.703C123.979 357.224 124.169 356.765 124.508 356.427C124.846 356.089 125.305 355.898 125.784 355.898H129.071C129.55 355.898 130.009 356.089 130.347 356.427C130.686 356.765 130.876 357.224 130.876 357.703Z" fill="#E6E6E6"/>
<path d="M109.995 358.003C109.995 358.482 109.805 358.941 109.467 359.279C109.128 359.617 108.669 359.808 108.19 359.808H87.7571C87.2784 359.808 86.8194 359.617 86.4809 359.279C86.1424 358.941 85.9523 358.482 85.9523 358.003C85.9523 357.525 86.1424 357.066 86.4809 356.728C86.8194 356.389 87.2784 356.199 87.7571 356.199H108.19C108.669 356.199 109.128 356.389 109.467 356.728C109.805 357.066 109.995 357.525 109.995 358.003Z" fill="#E6E6E6"/>
<path d="M92.6489 349.558C92.6489 350.037 92.4587 350.495 92.1203 350.834C91.7818 351.172 91.3227 351.362 90.8441 351.362H87.5565C87.3195 351.362 87.0848 351.316 86.8659 351.225C86.6469 351.134 86.4479 351.001 86.2803 350.834C86.1127 350.666 85.9798 350.467 85.8891 350.248C85.7984 350.03 85.7517 349.795 85.7517 349.558C85.7517 349.321 85.7984 349.087 85.8891 348.868C85.9798 348.649 86.1127 348.45 86.2803 348.282C86.4479 348.115 86.6469 347.982 86.8659 347.891C87.0848 347.801 87.3195 347.754 87.5565 347.754H90.8441C91.3227 347.754 91.7818 347.944 92.1203 348.282C92.4587 348.621 92.6489 349.08 92.6489 349.558Z" fill="#E6E6E6"/>
<path d="M130.249 349.558C130.249 350.037 130.059 350.495 129.721 350.834C129.382 351.172 128.923 351.362 128.445 351.362H125.157C124.92 351.362 124.685 351.316 124.466 351.225C124.247 351.134 124.048 351.001 123.881 350.834C123.713 350.666 123.58 350.467 123.49 350.248C123.399 350.03 123.352 349.795 123.352 349.558C123.352 349.321 123.399 349.087 123.49 348.868C123.58 348.649 123.713 348.45 123.881 348.282C124.048 348.115 124.247 347.982 124.466 347.891C124.685 347.801 124.92 347.754 125.157 347.754H128.445C128.923 347.754 129.382 347.944 129.721 348.282C130.059 348.621 130.249 349.08 130.249 349.558Z" fill="#E6E6E6"/>
<path d="M140.903 349.558C140.903 350.037 140.713 350.495 140.374 350.834C140.036 351.172 139.577 351.362 139.098 351.362H135.81C135.573 351.362 135.339 351.316 135.12 351.225C134.901 351.134 134.702 351.001 134.534 350.834C134.367 350.666 134.234 350.467 134.143 350.248C134.052 350.03 134.006 349.795 134.006 349.558C134.006 349.321 134.052 349.087 134.143 348.868C134.234 348.649 134.367 348.45 134.534 348.282C134.702 348.115 134.901 347.982 135.12 347.891C135.339 347.801 135.573 347.754 135.81 347.754H139.098C139.577 347.754 140.036 347.944 140.374 348.282C140.713 348.621 140.903 349.08 140.903 349.558Z" fill="#E6E6E6"/>
<path d="M120.022 349.859C120.022 350.337 119.832 350.796 119.493 351.135C119.155 351.473 118.696 351.663 118.217 351.663H97.7838C97.3052 351.663 96.8461 351.473 96.5076 351.135C96.1691 350.796 95.979 350.337 95.979 349.859C95.979 349.38 96.1691 348.921 96.5076 348.583C96.8461 348.245 97.3052 348.055 97.7838 348.055H118.217C118.696 348.055 119.155 348.245 119.493 348.583C119.832 348.921 120.022 349.38 120.022 349.859Z" fill="#E6E6E6"/>
<path d="M102.676 341.414C102.676 341.892 102.485 342.351 102.147 342.689C101.809 343.028 101.349 343.218 100.871 343.218H97.5833C97.1046 343.218 96.6455 343.028 96.3071 342.689C95.9686 342.351 95.7784 341.892 95.7784 341.414C95.7784 340.935 95.9686 340.476 96.3071 340.138C96.6455 339.799 97.1046 339.609 97.5833 339.609H100.871C101.349 339.609 101.809 339.799 102.147 340.138C102.485 340.476 102.676 340.935 102.676 341.414Z" fill="#E6E6E6"/>
<path d="M140.276 341.414C140.276 341.892 140.086 342.351 139.748 342.689C139.409 343.028 138.95 343.218 138.471 343.218H135.184C134.705 343.218 134.246 343.028 133.908 342.689C133.569 342.351 133.379 341.892 133.379 341.414C133.379 340.935 133.569 340.476 133.908 340.138C134.246 339.799 134.705 339.609 135.184 339.609H138.471C138.95 339.609 139.409 339.799 139.748 340.138C140.086 340.476 140.276 340.935 140.276 341.414Z" fill="#E6E6E6"/>
<path d="M150.93 341.414C150.93 341.892 150.74 342.351 150.401 342.689C150.063 343.028 149.604 343.218 149.125 343.218H145.837C145.359 343.218 144.9 343.028 144.561 342.689C144.223 342.351 144.032 341.892 144.032 341.414C144.032 340.935 144.223 340.476 144.561 340.138C144.9 339.799 145.359 339.609 145.837 339.609H149.125C149.604 339.609 150.063 339.799 150.401 340.138C150.74 340.476 150.93 340.935 150.93 341.414Z" fill="#E6E6E6"/>
<path d="M130.049 341.714C130.049 342.193 129.859 342.652 129.52 342.99C129.182 343.328 128.723 343.518 128.244 343.518H107.811C107.332 343.518 106.873 343.328 106.534 342.99C106.196 342.652 106.006 342.193 106.006 341.714C106.006 341.236 106.196 340.777 106.534 340.439C106.873 340.1 107.332 339.91 107.811 339.91H128.244C128.723 339.91 129.182 340.1 129.52 340.439C129.859 340.777 130.049 341.236 130.049 341.714Z" fill="#E6E6E6"/>
<path d="M58.9701 481.69C59.3524 481.884 59.7409 482.078 60.1232 482.266C70.0246 487.215 77.9458 490.028 88.781 493.11C89.696 482.899 90.5796 464.951 91.4381 453.825C91.6637 450.938 91.8893 448.513 92.1087 446.803C92.164 445.894 92.3497 444.997 92.6601 444.141L92.6225 446.803L92.5285 453.825L91.9833 493.987C105.462 497.552 119.307 499.546 133.244 499.932C133.971 499.95 134.685 499.963 135.374 499.975C135.619 499.982 135.857 499.988 136.095 499.988C136.878 499.994 137.655 500.001 138.439 500.001C153.125 500.011 167.759 498.238 182.018 494.72C181.711 484.615 181.404 466.868 181.109 453.825C181.046 451.276 180.99 448.902 180.927 446.803C180.808 442.318 180.683 439.085 180.564 438.002C180.669 438.194 180.751 438.398 180.808 438.609C181.389 441.31 181.784 444.048 181.993 446.803C182.212 448.902 182.431 451.276 182.651 453.825C183.816 467.375 185.032 485.799 186.285 493.611C193.746 491.575 201.066 489.058 208.2 486.075C211.96 484.509 215.653 482.819 219.28 481.007C218.59 476.496 217.87 471.441 217.13 466.198C216.554 462.132 215.958 457.954 215.351 453.825C214.411 447.448 200.442 402.883 199.558 401.192C198.8 399.745 198.079 398.379 197.396 397.12C195.742 394.063 194.338 391.626 193.298 390.085C188.949 383.49 182.474 378.581 174.949 376.172L174.761 376.122L174.629 376.178L161.814 372.244L159.94 371.668L158.68 371.279L154.243 367.903L151.831 366.067L149.568 364.344L145.144 360.98L117.752 362.666L112.419 375.501L100.475 379.868L100.268 379.774L100.086 379.699L99.8982 379.749C92.3742 382.16 85.9002 387.069 81.5492 393.662C80.9601 394.545 80.2457 395.71 79.4373 397.12C78.748 398.316 77.9959 399.682 77.1813 401.192C76.0219 403.341 74.756 405.765 73.415 408.39C73.1204 408.966 72.8196 409.555 72.5188 410.15C71.9611 411.252 71.395 412.378 70.8205 413.526C69.4857 416.189 68.107 418.97 66.7283 421.795C65.5314 424.245 64.3219 429.281 63.1312 435.69C62.1473 441.015 61.1697 447.292 60.2234 453.825C58.9826 462.295 60.3049 472.437 59.1832 480.23C59.1142 480.725 59.039 481.207 58.9701 481.69Z" fill="#3F3D56"/>
<path opacity="0.2" d="M190.252 435.661L184.927 415.119L180.225 432.845L190.252 435.661Z" fill="black"/>
<path d="M48.5548 422.276C50.4599 448.512 48.4859 460.063 59.0015 481.694C68.5692 486.376 78.5351 490.195 88.7811 493.108C89.8464 493.409 90.9139 493.701 91.9834 493.985C105.462 497.55 119.307 499.545 133.244 499.93C133.971 499.949 134.685 499.962 135.374 499.974C135.619 499.98 135.857 499.987 136.095 499.987C136.878 499.993 137.655 499.999 138.439 499.999C153.125 500.01 167.759 498.237 182.018 494.718C183.447 494.367 184.869 493.998 186.285 493.609C193.746 491.573 201.066 489.056 208.2 486.073C211.96 484.507 215.654 482.818 219.28 481.005C220.101 480.592 220.922 480.178 221.73 479.752C225.885 472.448 228.248 463.565 228.298 452.891C225.421 434.498 54.9093 406.415 48.5548 422.276Z" fill="#2F2E41"/>
<path opacity="0.2" d="M48.5598 426.771C48.4595 425.087 48.3486 423.404 48.2271 421.722C54.5815 405.86 225.094 433.944 227.97 452.336C227.961 453.978 227.894 455.619 227.768 457.257C220.803 439.104 58.8141 412.412 48.5598 426.771Z" fill="black"/>
<path d="M9.92027 435.423C10.1964 436.227 10.7201 436.922 11.4161 437.409C12.1121 437.896 12.9447 438.151 13.7944 438.136L30.3963 437.709C31.2523 437.692 32.0801 437.399 32.7557 436.873C33.4313 436.348 33.9185 435.617 34.1444 434.792L36.4938 409.68C37.3274 410.057 38.2348 410.243 39.1496 410.225C40.7549 410.184 42.2783 409.508 43.3848 408.345C44.4914 407.182 45.0904 405.627 45.0501 404.022C45.0098 402.418 44.3335 400.895 43.1699 399.789C42.0064 398.683 40.4509 398.084 38.8457 398.124C38.4801 398.123 38.1154 398.161 37.7578 398.237C37.3688 397.816 36.8961 397.482 36.3701 397.255C35.844 397.028 35.2763 396.914 34.7034 396.92L9.16638 397.579C8.95437 397.587 8.74343 397.613 8.53595 397.657C7.97599 397.762 7.44491 397.985 6.97843 398.312C6.51194 398.639 6.12088 399.061 5.83155 399.552C5.54222 400.042 5.36134 400.589 5.30108 401.155C5.24081 401.721 5.30256 402.294 5.48216 402.834L9.92027 435.423ZM36.9757 407.974L38.6471 401.99C38.8371 401.299 38.8414 400.57 38.6596 399.876C38.7411 399.876 38.8125 399.837 38.894 399.837C40.0422 399.811 41.154 400.241 41.9849 401.034C42.8158 401.826 43.2977 402.916 43.3246 404.064C43.3514 405.212 42.921 406.323 42.1281 407.154C41.3351 407.985 40.2446 408.466 39.0964 408.493C38.3555 408.516 37.6223 408.337 36.9757 407.974Z" fill="#2F2E41"/>
<path d="M8.53589 397.658C9.07984 400.768 15.1974 402.954 22.5521 402.574C29.3158 402.263 34.8456 399.888 35.8589 397.074C35.484 396.964 35.0941 396.912 34.7033 396.921L9.16632 397.58C8.95431 397.588 8.74337 397.614 8.53589 397.658Z" fill="#3F3D56"/>
<path d="M23.9002 421.624C23.9336 421.615 23.9654 421.601 23.9942 421.582L27.6001 419.222C27.6435 419.194 27.6792 419.155 27.7039 419.109C27.7286 419.064 27.7415 419.012 27.7415 418.961C27.7415 418.909 27.7286 418.857 27.7039 418.812C27.6792 418.766 27.6435 418.727 27.6001 418.699L23.8526 416.246C23.8183 416.22 23.7792 416.202 23.7376 416.192C23.696 416.182 23.6528 416.181 23.6108 416.188C23.5687 416.196 23.5286 416.212 23.493 416.235C23.4573 416.259 23.4268 416.289 23.4034 416.325C23.38 416.361 23.3641 416.401 23.3568 416.443C23.3495 416.485 23.3508 416.528 23.3608 416.57C23.3708 416.611 23.3891 416.65 23.4147 416.685C23.4404 416.719 23.4727 416.747 23.5098 416.769L26.8562 418.961L23.652 421.058C23.5901 421.098 23.5446 421.16 23.5235 421.231C23.5025 421.302 23.5072 421.378 23.537 421.446C23.5667 421.513 23.6195 421.568 23.686 421.601C23.7525 421.634 23.8284 421.642 23.9002 421.624Z" fill="#50EFC0"/>
<path d="M18.2055 421.887C18.2661 421.872 18.3208 421.839 18.3624 421.793C18.4041 421.746 18.4309 421.688 18.4394 421.626C18.4479 421.564 18.4377 421.501 18.4101 421.445C18.3825 421.389 18.3387 421.343 18.2845 421.312L14.9612 419.407L18.1735 417.022C18.2066 416.997 18.2345 416.966 18.2556 416.931C18.2767 416.896 18.2907 416.857 18.2968 416.816C18.3028 416.775 18.3007 416.734 18.2907 416.694C18.2807 416.654 18.2629 416.617 18.2384 416.584C18.2139 416.551 18.1831 416.523 18.1478 416.502C18.1125 416.48 18.0734 416.466 18.0326 416.46C17.9919 416.454 17.9504 416.456 17.9105 416.466C17.8706 416.476 17.8331 416.494 17.8 416.519L14.2035 419.189C14.1618 419.22 14.1285 419.261 14.1065 419.308C14.0846 419.356 14.0747 419.407 14.0778 419.459C14.0809 419.511 14.0969 419.561 14.1243 419.606C14.1518 419.65 14.1897 419.687 14.2349 419.712L17.973 421.855C18.0435 421.895 18.1269 421.906 18.2055 421.886V421.887Z" fill="#50EFC0"/>
<path d="M23.5417 423.691C23.572 423.683 23.6009 423.671 23.6275 423.655C23.6985 423.612 23.7494 423.542 23.769 423.461C23.7886 423.381 23.7754 423.295 23.7322 423.224L18.6216 414.824C18.5784 414.753 18.5087 414.702 18.4279 414.683C18.3471 414.663 18.2618 414.676 18.1908 414.719C18.1197 414.763 18.0688 414.832 18.0491 414.913C18.0294 414.994 18.0426 415.079 18.0858 415.15L23.197 423.551C23.2319 423.608 23.2842 423.652 23.3462 423.678C23.4082 423.703 23.4767 423.708 23.5417 423.691Z" fill="#50EFC0"/>
<path d="M420.505 388.441V437.304H364.73V388.441H420.505Z" fill="#3F3D56"/>
<path d="M428.771 320.189C427.737 326.315 428.645 332.611 431.368 338.195C432.376 340.249 433.625 342.723 432.397 344.653C432.053 345.136 431.605 345.536 431.086 345.823C430.567 346.111 429.991 346.278 429.399 346.315C428.215 346.377 427.029 346.224 425.9 345.862" fill="#CCCCCC"/>
<path d="M381.651 299.799C381.651 300.663 380.809 301.365 379.771 301.365C378.732 301.365 377.891 300.663 377.891 299.799C377.891 298.934 378.732 298.232 379.771 298.232C380.809 298.232 381.651 298.934 381.651 299.799Z" fill="#3F3D56"/>
<path d="M388.544 300.425C388.544 301.29 387.702 301.992 386.664 301.992C385.626 301.992 384.784 301.29 384.784 300.425C384.784 299.561 385.626 298.859 386.664 298.859C387.702 298.859 388.544 299.561 388.544 300.425Z" fill="#3F3D56"/>
<path d="M395.438 303.558C395.438 304.423 394.596 305.124 393.558 305.124C392.519 305.124 391.677 304.423 391.677 303.558C391.677 302.694 392.519 301.992 393.558 301.992C394.596 301.992 395.438 302.694 395.438 303.558Z" fill="#3F3D56"/>
<path d="M403.584 301.677C403.584 302.542 402.743 303.244 401.704 303.244C400.666 303.244 399.824 302.542 399.824 301.677C399.824 300.813 400.666 300.111 401.704 300.111C402.743 300.111 403.584 300.813 403.584 301.677Z" fill="#3F3D56"/>
<path d="M230.575 332.928C239.706 330.394 249.876 333.11 256.932 339.33C260.739 342.71 263.533 347.079 265.003 351.952C266.804 357.751 267.102 363.87 267.291 369.899C267.499 376.565 267.68 383.233 267.875 389.899C268.06 396.256 268.081 402.642 268.506 408.989C268.862 414.314 269.715 419.842 272.566 424.461C275.209 428.742 279.385 431.633 284.104 433.227C288.887 434.843 294.043 435.219 299.061 435.185C304.901 435.167 310.731 434.706 316.5 433.805C327.459 432.051 338.283 427.574 344.976 418.339C348.058 414.146 349.789 409.114 349.941 403.913C350.082 397.853 348.145 391.983 346.024 386.384C343.959 380.937 341.725 375.57 340.418 369.874C339.204 364.544 338.626 359.089 338.695 353.623C338.807 342.687 341.429 331.923 346.359 322.159C348.854 317.145 352.019 312.493 355.768 308.331C359.634 304.126 364.42 300.655 370.112 299.517C372.89 298.942 375.767 299.057 378.49 299.854C379.651 300.201 380.147 298.388 378.989 298.042C373.35 296.354 367.225 297.637 362.225 300.567C357.309 303.447 353.424 307.768 350.128 312.35C343.793 321.333 339.576 331.633 337.793 342.477C336.009 353.322 336.706 364.429 339.831 374.966C343.178 385.922 350.454 397.326 347.328 409.182C344.592 419.561 335.113 426.614 325.321 429.8C319.38 431.732 313.153 432.55 306.94 432.973C301.69 433.33 296.368 433.558 291.134 432.884C286.326 432.264 281.38 430.795 277.652 427.568C273.566 424.032 271.698 418.95 270.885 413.735C269.965 407.834 270.1 401.749 269.927 395.795L269.334 375.471C269 363.993 269.288 351.272 261.817 341.76C258.83 338.053 255.037 335.077 250.726 333.057C246.416 331.037 241.701 330.026 236.94 330.102C234.619 330.155 232.313 330.496 230.076 331.116C229.841 331.187 229.645 331.348 229.527 331.562C229.409 331.777 229.379 332.029 229.444 332.264C229.509 332.5 229.664 332.702 229.875 332.826C230.086 332.95 230.337 332.986 230.575 332.928Z" fill="#3F3D56"/>
<path d="M97.1134 321.038C98.4355 330.511 103.468 339.071 111.104 344.836C118.74 350.6 128.354 353.095 137.831 351.774C147.308 350.452 155.871 345.421 161.637 337.788C167.404 330.155 169.9 320.545 168.578 311.071L168.507 310.559C166.991 301.21 161.856 292.832 154.212 287.235C146.568 281.638 137.028 279.272 127.653 280.648C118.278 282.024 109.821 287.032 104.109 294.588C98.3971 302.145 95.8882 311.645 97.1246 321.036L97.1134 321.038Z" fill="#FFB6B6"/>
<path d="M128.918 350.859C127.053 347.103 125.136 343.071 125.643 338.908C126.15 334.745 130.218 330.755 134.231 331.978C136.631 332.709 138.45 335.069 140.955 335.182C144.403 335.337 146.367 331.386 147.429 328.103L151.754 314.734C160.098 321.286 149.532 314.417 159.866 312.018C163.921 311.077 168.014 309.255 170.383 305.834C172.752 302.413 172.72 297.118 169.446 294.548C167.842 293.288 165.709 292.814 164.175 291.469C163.223 290.634 162.566 289.516 162.299 288.278C162.033 287.041 162.172 285.751 162.696 284.599C163.22 283.447 164.102 282.494 165.21 281.882C166.318 281.269 167.593 281.03 168.848 281.198L157.839 279.86L161.098 273.922C158.742 275.791 155.455 276.053 152.493 275.53C149.53 275.007 146.738 273.798 143.839 272.994C129.923 269.14 113.787 275.977 106.879 288.654C104.169 287.759 101.25 287.709 98.5096 288.51C95.7695 289.311 93.3375 290.925 91.5359 293.139C88.6031 296.886 87.8185 301.876 87.7201 306.633C87.5373 316.013 89.6143 325.299 93.7756 333.707C95.0729 336.32 96.6057 338.884 98.8097 340.795C101.014 342.706 125.927 353.296 128.802 352.796" fill="#2F2E41"/>
<path d="M389.171 326.11C389.176 327.736 388.967 329.355 388.55 330.927V330.933C388.544 330.965 388.532 330.996 388.525 331.027C387.259 335.682 384.239 338.952 380.711 338.952C377.201 338.952 374.193 335.707 372.909 331.09C372.821 330.77 372.746 330.451 372.677 330.119C372.589 329.749 372.52 329.367 372.464 328.972C372.413 328.659 372.376 328.34 372.345 328.014C372.301 327.563 372.269 327.112 372.263 326.642V326.636C372.251 326.46 372.25 326.285 372.25 326.11V325.953L372.257 325.947C372.258 325.153 372.31 324.36 372.413 323.573C372.457 323.241 372.507 322.921 372.57 322.602C372.645 322.213 372.727 321.831 372.827 321.455C372.909 321.123 373.003 320.804 373.103 320.484C373.241 320.058 373.391 319.645 373.56 319.25C373.667 318.993 373.78 318.743 373.892 318.498C375.434 315.329 377.916 313.268 380.711 313.268C384.577 313.268 387.836 317.208 388.845 322.583C388.857 322.664 388.876 322.746 388.882 322.827V322.833C389.076 323.915 389.172 325.011 389.171 326.11Z" fill="#E6E6E6"/>
<path d="M373.974 318.774C373.97 318.889 373.927 318.999 373.852 319.085C373.777 319.172 373.674 319.23 373.56 319.25C373.667 318.993 373.78 318.742 373.892 318.498C373.945 318.581 373.973 318.676 373.974 318.774Z" fill="#50EFC0"/>
<path d="M381.869 318.69C381.869 318.959 381.651 319.177 381.383 319.177H375.868C375.739 319.177 375.615 319.126 375.523 319.035C375.432 318.943 375.381 318.82 375.381 318.69C375.381 318.421 375.599 318.203 375.868 318.203H381.383C381.652 318.203 381.869 318.421 381.869 318.69Z" fill="#50EFC0"/>
<path d="M373.805 320.967C373.805 321.096 373.753 321.22 373.661 321.312C373.57 321.404 373.446 321.455 373.316 321.455H372.827C372.909 321.123 373.003 320.804 373.103 320.484H373.316C373.445 320.484 373.568 320.535 373.66 320.625C373.751 320.715 373.803 320.838 373.805 320.967Z" fill="#50EFC0"/>
<path d="M376.681 320.969C376.681 321.239 376.463 321.457 376.194 321.457H375.306C375.242 321.457 375.179 321.444 375.12 321.419C375.061 321.395 375.007 321.359 374.962 321.314C374.917 321.269 374.881 321.215 374.856 321.156C374.832 321.097 374.819 321.034 374.819 320.97C374.819 320.7 375.037 320.482 375.306 320.482H376.194C376.463 320.482 376.681 320.7 376.681 320.969Z" fill="#50EFC0"/>
<path d="M384.576 320.887V320.888C384.576 321.157 384.358 321.375 384.089 321.375H378.574C378.445 321.375 378.321 321.323 378.23 321.232C378.139 321.141 378.087 321.017 378.087 320.888V320.887C378.087 320.618 378.305 320.4 378.574 320.4H384.089C384.359 320.4 384.576 320.618 384.576 320.887Z" fill="#50EFC0"/>
<path d="M376.511 323.166V323.167C376.511 323.436 376.293 323.654 376.024 323.654H375.137C375.008 323.654 374.884 323.603 374.793 323.511C374.701 323.42 374.65 323.296 374.65 323.167V323.166C374.65 322.897 374.868 322.68 375.137 322.68H376.024C376.294 322.68 376.511 322.898 376.511 323.166Z" fill="#50EFC0"/>
<path d="M379.386 323.166V323.167C379.386 323.436 379.168 323.654 378.9 323.654H378.012C377.883 323.654 377.759 323.603 377.668 323.511C377.577 323.42 377.525 323.296 377.525 323.167V323.166C377.525 322.897 377.743 322.68 378.012 322.68H378.9C379.169 322.68 379.386 322.898 379.386 323.166Z" fill="#50EFC0"/>
<path d="M373.755 323.084C373.754 323.213 373.703 323.338 373.611 323.429C373.52 323.521 373.395 323.572 373.266 323.573H372.413C372.457 323.241 372.507 322.921 372.57 322.602H373.266C373.33 322.601 373.393 322.613 373.452 322.637C373.511 322.661 373.565 322.696 373.61 322.741C373.656 322.786 373.692 322.839 373.717 322.898C373.741 322.957 373.754 323.02 373.755 323.084Z" fill="#50EFC0"/>
<path d="M387.282 323.086C387.282 323.356 387.064 323.574 386.795 323.574H381.28C381.216 323.574 381.153 323.561 381.094 323.537C381.035 323.512 380.981 323.476 380.936 323.431C380.891 323.386 380.855 323.332 380.831 323.273C380.806 323.214 380.793 323.151 380.793 323.087C380.793 322.818 381.012 322.6 381.28 322.6H386.795C387.065 322.6 387.282 322.818 387.282 323.086Z" fill="#50EFC0"/>
<path d="M373.974 326.291C373.974 326.355 373.961 326.418 373.936 326.477C373.911 326.536 373.875 326.589 373.83 326.634C373.784 326.679 373.73 326.714 373.671 326.738C373.612 326.762 373.549 326.774 373.485 326.774H372.601C372.476 326.774 372.355 326.727 372.263 326.642V326.636C372.251 326.46 372.25 326.285 372.25 326.11V325.953L372.257 325.947C372.302 325.901 372.355 325.865 372.415 325.84C372.474 325.815 372.537 325.803 372.601 325.803H373.485C373.615 325.803 373.739 325.854 373.831 325.946C373.922 326.038 373.974 326.162 373.974 326.291Z" fill="#CCCCCC"/>
<path d="M381.869 326.207C381.869 326.477 381.651 326.695 381.383 326.695H375.868C375.739 326.695 375.615 326.644 375.523 326.552C375.432 326.461 375.381 326.337 375.381 326.208C375.381 325.939 375.599 325.721 375.868 325.721H381.383C381.652 325.721 381.869 325.939 381.869 326.207Z" fill="#CCCCCC"/>
<path d="M373.805 328.483C373.805 328.612 373.753 328.737 373.661 328.828C373.57 328.92 373.446 328.971 373.316 328.971H372.464C372.414 328.658 372.376 328.339 372.345 328.013C372.373 328.003 372.403 327.998 372.432 328H373.316C373.445 328 373.568 328.051 373.66 328.141C373.751 328.232 373.803 328.354 373.805 328.483Z" fill="#CCCCCC"/>
<path d="M376.681 328.487C376.681 328.756 376.463 328.974 376.194 328.974H375.306C375.242 328.974 375.179 328.962 375.12 328.937C375.061 328.913 375.007 328.877 374.962 328.832C374.917 328.786 374.881 328.733 374.856 328.674C374.832 328.615 374.819 328.551 374.819 328.487C374.819 328.218 375.037 328 375.306 328H376.194C376.463 328 376.681 328.218 376.681 328.487Z" fill="#CCCCCC"/>
<path d="M384.576 328.405V328.405C384.576 328.675 384.358 328.892 384.089 328.892H378.574C378.445 328.892 378.321 328.841 378.23 328.75C378.139 328.658 378.087 328.534 378.087 328.405V328.405C378.087 328.135 378.305 327.918 378.574 327.918H384.089C384.359 327.918 384.576 328.136 384.576 328.405Z" fill="#CCCCCC"/>
<path d="M376.511 330.684V330.685C376.511 330.954 376.293 331.171 376.024 331.171H375.137C375.008 331.171 374.884 331.12 374.793 331.029C374.701 330.938 374.65 330.814 374.65 330.685V330.684C374.65 330.415 374.868 330.197 375.137 330.197H376.024C376.294 330.197 376.511 330.415 376.511 330.684Z" fill="#CCCCCC"/>
<path d="M379.386 330.684V330.685C379.386 330.954 379.168 331.171 378.9 331.171H378.012C377.883 331.171 377.759 331.12 377.668 331.029C377.577 330.938 377.525 330.814 377.525 330.685V330.684C377.525 330.415 377.743 330.197 378.012 330.197H378.9C379.169 330.197 379.386 330.415 379.386 330.684Z" fill="#CCCCCC"/>
<path d="M373.755 330.6C373.754 330.729 373.703 330.853 373.611 330.945C373.52 331.036 373.395 331.088 373.266 331.088H372.909C372.821 330.769 372.746 330.449 372.677 330.117H373.266C373.33 330.117 373.393 330.129 373.452 330.153C373.511 330.177 373.565 330.212 373.611 330.257C373.656 330.302 373.692 330.355 373.717 330.414C373.742 330.473 373.754 330.536 373.755 330.6Z" fill="#CCCCCC"/>
<path d="M387.282 330.604C387.282 330.873 387.064 331.091 386.795 331.091H381.28C381.216 331.091 381.153 331.079 381.094 331.054C381.035 331.03 380.981 330.994 380.936 330.949C380.891 330.904 380.855 330.85 380.831 330.791C380.806 330.732 380.793 330.668 380.793 330.605C380.793 330.335 381.012 330.117 381.28 330.117H386.795C387.065 330.117 387.282 330.335 387.282 330.604Z" fill="#CCCCCC"/>
</g>
<defs>
<clipPath id="clip0_733_14254">
<rect width="219" height="219" fill="white" transform="translate(6)"/>
</clipPath>
<clipPath id="clip1_733_14254">
<rect width="171" height="121" fill="white" transform="translate(283 459)"/>
</clipPath>
<clipPath id="clip2_733_14254">
<rect width="144" height="114" fill="white" transform="translate(197 497)"/>
</clipPath>
<clipPath id="clip3_733_14254">
<rect width="463" height="361" fill="white" transform="translate(0 139)"/>
</clipPath>
</defs>
</svg>
